<svg width="240" height="39" viewBox="0 0 240 39" fill="none" xmlns="http://www.w3.org/2000/svg">
<path d="M19.103 38.206C29.6533 38.206 38.206 29.6533 38.206 19.103C38.206 8.5527 29.6533 0 19.103 0C8.5527 0 0 8.5527 0 19.103C0 29.6533 8.5527 38.206 19.103 38.206Z" fill="#00C2FF"/>
<path fill-rule="evenodd" clip-rule="evenodd" d="M19.2375 17.1145C18.8435 17.1007 18.4615 16.976 18.1352 16.7546C17.9501 16.6344 17.7762 16.4976 17.6159 16.3458C17.5922 16.3192 17.5677 16.2933 17.5421 16.2681C17.2699 16.0015 16.9073 15.8473 16.5265 15.8362C16.483 15.8362 16.4398 15.8362 16.397 15.8362C16.0162 15.8549 15.6563 16.0164 15.3893 16.2886C15.2116 16.4728 15.0154 16.6381 14.8038 16.782C14.4738 17.0277 14.0744 17.1623 13.663 17.1666C13.2516 17.1708 12.8495 17.0443 12.5145 16.8054C12.3002 16.6658 12.1009 16.5044 11.9197 16.3239C11.6524 16.0622 11.2979 15.9084 10.9242 15.892C10.8046 15.8866 10.6848 15.8952 10.5672 15.9176C10.5395 15.9831 10.5122 16.0493 10.4863 16.1155C10.2687 16.6688 10.1052 17.2419 9.99789 17.8267C9.7356 19.2542 9.81097 20.7232 10.218 22.1163C10.625 23.5093 11.3523 24.7879 12.3418 25.8496C13.3313 26.9113 14.5556 27.7267 15.9166 28.2306C17.2776 28.7345 18.7377 28.913 20.18 28.7517C21.6224 28.5904 23.007 28.0938 24.223 27.3017C25.4391 26.5096 26.453 25.4439 27.1835 24.1898C27.9141 22.9357 28.341 21.5281 28.4302 20.0795C28.5195 18.631 28.2685 17.1816 27.6973 15.8474C27.679 15.8049 27.6613 15.7632 27.6415 15.7207L27.5922 15.7229C27.2114 15.7414 26.8515 15.903 26.5846 16.1752C26.4068 16.3592 26.2108 16.5245 25.9994 16.6686C25.6694 16.9143 25.27 17.049 24.8586 17.0532C24.4472 17.0574 24.0451 16.9309 23.7102 16.692C23.4958 16.5521 23.2962 16.3908 23.1146 16.2105C22.8476 15.9488 22.4933 15.795 22.1198 15.7786C22.0627 15.7762 22.0056 15.7769 21.9485 15.7808C21.5764 15.805 21.2262 15.9655 20.965 16.2317L20.9625 16.2343C20.9376 16.2598 20.9135 16.2861 20.8905 16.3131C20.7336 16.4685 20.5626 16.6091 20.3798 16.7331C20.0451 16.9719 19.6471 17.1062 19.2361 17.1192L19.2375 17.1145Z" fill="white"/>
<path fill-rule="evenodd" clip-rule="evenodd" d="M8.12587 15.2252C8.89295 13.0541 10.2866 11.1593 12.1306 9.78023C13.9746 8.40121 16.1861 7.59997 18.4855 7.47783C20.7849 7.35568 23.0689 7.91812 25.0486 9.09403C27.0283 10.2699 28.6149 12.0065 29.6076 14.0841C30.6004 16.1617 30.9548 18.4871 30.626 20.7661C30.2972 23.0451 29.3 25.1754 27.7605 26.8877C26.2209 28.6 24.2082 29.8173 21.9768 30.3857C19.7455 30.954 17.3957 30.848 15.2246 30.0809C13.7803 29.5755 12.4501 28.7895 11.3107 27.7682C10.1712 26.7468 9.24502 25.5102 8.58528 24.1296C7.92554 22.7489 7.54531 21.2514 7.46646 19.7233C7.38762 18.1951 7.61172 16.6664 8.12587 15.2252ZM31.2153 23.3831C32.0621 20.9871 32.1794 18.3939 31.5523 15.9313C30.9252 13.4687 29.5819 11.2473 27.6923 9.5482C25.8026 7.84907 23.4516 6.74847 20.9364 6.38559C18.4213 6.0227 15.855 6.41383 13.5622 7.50951C11.2693 8.60519 9.3529 10.3562 8.05526 12.5411C6.75762 14.726 6.13706 17.2467 6.27205 19.7843C6.40704 22.3219 7.29153 24.7624 8.81365 26.7973C10.3358 28.8322 12.4271 30.3701 14.8233 31.2163C18.0358 32.351 21.5674 32.1632 24.6415 30.6943C27.7155 29.2254 30.0803 26.5957 31.2156 23.3834L31.2153 23.3831Z" fill="white"/>
<path d="M59.3229 22.9693H68.3603V28.5363H53.5391V3.23184H59.3229V22.9693Z" fill="white"/>
<path d="M83.6726 10.4617H89.095V28.5363H83.6726V26.8373C82.3953 28.3074 80.5999 29.0424 78.2863 29.0424C75.9005 29.0424 73.8641 28.1266 72.1771 26.2951C70.4901 24.4394 69.6467 22.1741 69.6467 19.499C69.6467 16.824 70.4901 14.5707 72.1771 12.7391C73.8641 10.8834 75.9005 9.95561 78.2863 9.95561C80.5999 9.95561 82.3953 10.6906 83.6726 12.1607V10.4617ZM76.262 22.7163C77.0573 23.5116 78.0935 23.9092 79.3708 23.9092C80.6481 23.9092 81.6844 23.5116 82.4797 22.7163C83.2749 21.921 83.6726 20.8486 83.6726 19.499C83.6726 18.1494 83.2749 17.077 82.4797 16.2817C81.6844 15.4864 80.6481 15.0888 79.3708 15.0888C78.0935 15.0888 77.0573 15.4864 76.262 16.2817C75.4667 17.077 75.0691 18.1494 75.0691 19.499C75.0691 20.8486 75.4667 21.921 76.262 22.7163Z" fill="white"/>
<path d="M104.749 10.4617H110.172V28.5363H104.749V26.8373C103.665 28.3074 101.942 29.0424 99.5799 29.0424C97.652 29.0424 96.0373 28.3797 94.7359 27.0542C93.4587 25.7287 92.82 23.8972 92.82 21.5595V10.4617H98.2424V20.7642C98.2424 21.8246 98.5316 22.644 99.11 23.2224C99.7125 23.7767 100.472 24.0538 101.387 24.0538C102.424 24.0538 103.243 23.7405 103.846 23.1139C104.448 22.4873 104.749 21.5595 104.749 20.3304V10.4617Z" fill="white"/>
<path d="M124.74 9.95561C126.668 9.95561 128.271 10.6183 129.548 11.9438C130.849 13.2693 131.5 15.1008 131.5 17.4385V28.5363H126.078V18.2338C126.078 17.1734 125.776 16.3661 125.174 15.8118C124.596 15.2334 123.848 14.9442 122.933 14.9442C121.896 14.9442 121.077 15.2575 120.475 15.8841C119.872 16.5107 119.571 17.4385 119.571 18.6676V28.5363H114.148V10.4617H119.571V12.1607C120.655 10.6906 122.378 9.95561 124.74 9.95561Z" fill="white"/>
<path d="M148.346 3.23184H153.768V28.5363H148.346V26.8373C147.069 28.3074 145.273 29.0424 142.96 29.0424C140.574 29.0424 138.537 28.1266 136.85 26.2951C135.163 24.4394 134.32 22.1741 134.32 19.499C134.32 16.824 135.163 14.5707 136.85 12.7391C138.537 10.8834 140.574 9.95561 142.96 9.95561C145.273 9.95561 147.069 10.6906 148.346 12.1607V3.23184ZM140.935 22.7163C141.731 23.5116 142.767 23.9092 144.044 23.9092C145.321 23.9092 146.358 23.5116 147.153 22.7163C147.948 21.921 148.346 20.8486 148.346 19.499C148.346 18.1494 147.948 17.077 147.153 16.2817C146.358 15.4864 145.321 15.0888 144.044 15.0888C142.767 15.0888 141.731 15.4864 140.935 16.2817C140.14 17.077 139.742 18.1494 139.742 19.499C139.742 20.8486 140.14 21.921 140.935 22.7163Z" fill="white"/>
<path d="M163.169 13.679C163.506 12.5222 164.181 11.6426 165.193 11.0401C166.229 10.4135 167.362 10.1002 168.591 10.1002V16.2456C167.266 16.0287 166.025 16.2576 164.868 16.9324C163.735 17.5831 163.169 18.7278 163.169 20.3666V28.5363H157.746V10.4617H163.169V13.679Z" fill="white"/>
<path d="M182.866 10.4617H188.65L182.468 27.9941C181.456 30.8378 180.119 32.8742 178.456 34.1033C176.817 35.3324 174.72 35.8867 172.166 35.7662V30.7053C173.419 30.7053 174.383 30.4763 175.058 30.0184C175.732 29.5847 176.275 28.8135 176.684 27.7049L169.491 10.4617H175.455L179.468 21.5234L182.866 10.4617Z" fill="white"/>
<path d="M201.456 9.95561C203.842 9.95561 205.879 10.8834 207.566 12.7391C209.253 14.5707 210.096 16.824 210.096 19.499C210.096 22.1741 209.253 24.4394 207.566 26.2951C205.879 28.1266 203.842 29.0424 201.456 29.0424C199.143 29.0424 197.348 28.3074 196.07 26.8373V28.5363H190.648V3.23184H196.07V12.1607C197.348 10.6906 199.143 9.95561 201.456 9.95561ZM197.263 22.7163C198.083 23.5116 199.119 23.9092 200.372 23.9092C201.625 23.9092 202.649 23.5116 203.445 22.7163C204.264 21.921 204.674 20.8486 204.674 19.499C204.674 18.1494 204.264 17.077 203.445 16.2817C202.649 15.4864 201.625 15.0888 200.372 15.0888C199.119 15.0888 198.083 15.4864 197.263 16.2817C196.468 17.077 196.07 18.1494 196.07 19.499C196.07 20.8486 196.468 21.921 197.263 22.7163Z" fill="white"/>
<path d="M218.159 7.93124C217.533 8.55783 216.773 8.87113 215.882 8.87113C214.99 8.87113 214.219 8.55783 213.568 7.93124C212.942 7.28056 212.628 6.50937 212.628 5.61769C212.628 4.72601 212.942 3.96688 213.568 3.34029C214.219 2.6896 214.99 2.36426 215.882 2.36426C216.773 2.36426 217.533 2.6896 218.159 3.34029C218.81 3.96688 219.135 4.72601 219.135 5.61769C219.135 6.50937 218.81 7.28056 218.159 7.93124ZM213.171 28.5363V10.4617H218.593V28.5363H213.171Z" fill="white"/>
<path d="M233.153 9.95561C235.081 9.95561 236.683 10.6183 237.96 11.9438C239.262 13.2693 239.913 15.1008 239.913 17.4385V28.5363H234.49V18.2338C234.49 17.1734 234.189 16.3661 233.586 15.8118C233.008 15.2334 232.261 14.9442 231.345 14.9442C230.309 14.9442 229.489 15.2575 228.887 15.8841C228.285 16.5107 227.983 17.4385 227.983 18.6676V28.5363H222.561V10.4617H227.983V12.1607C229.068 10.6906 230.791 9.95561 233.153 9.95561Z" fill="white"/>
</svg>
