<svg width="376" height="193" viewBox="0 0 376 193" fill="none" xmlns="http://www.w3.org/2000/svg">
<g clip-path="url(#clip0_35553_899)">
<path opacity="0.24" d="M346.495 56.7911C334.545 56.7911 324.327 64.0211 319.965 74.3583C315.305 71.0719 309.628 69.1598 303.474 69.1598C291.703 69.1598 281.605 76.2106 277.123 86.3087C269.893 74.7168 256.987 67.0088 242.347 67.0088C222.271 67.0088 205.6 81.409 202.015 100.41C195.8 90.5511 184.806 83.9784 172.258 83.9784C164.729 83.9784 157.798 86.3685 152.062 90.3719C144.055 65.3357 120.572 47.2308 92.9072 47.2308C74.6827 47.2308 58.3106 55.0583 46.9577 67.5465C43.3726 52.728 29.9881 41.6738 14.0343 41.6738C-4.66816 41.6738 -19.8452 56.8509 -19.8452 75.5533C-19.8452 91.1486 -9.32883 104.234 4.95194 108.178C4.47392 110.269 4.17516 112.42 4.17516 114.691C4.17516 130.167 16.7231 142.655 32.1392 142.655C34.7683 142.655 37.3376 142.297 39.7277 141.579C50.6026 159.505 70.3208 171.456 92.8474 171.456C115.135 171.456 134.674 159.744 145.668 142.117C152.122 149.527 161.622 154.247 172.258 154.247C188.69 154.247 202.493 143.014 206.317 127.777C213.308 140.504 226.812 149.108 242.347 149.108C261.767 149.108 278.019 135.604 282.322 117.499C287.58 123.236 295.168 126.821 303.534 126.821C315.484 126.821 325.702 119.591 330.064 109.254C334.724 112.54 340.401 114.452 346.555 114.452C362.449 114.452 375.356 101.546 375.356 85.6514C375.356 69.6976 362.449 56.7911 346.495 56.7911Z" fill="#0DCFFC"/>
<path opacity="0.42" d="M-43.3279 39.7622C-28.5692 39.7622 -15.9017 48.725 -10.524 61.4522C-4.72803 57.4488 2.26297 55.0587 9.85149 55.0587C24.3713 55.0587 36.8595 63.7826 42.4164 76.2708C51.3793 61.9302 67.3331 52.3699 85.4978 52.3699C110.295 52.3699 130.969 70.176 135.391 93.6587C143.099 81.4095 156.663 73.2832 172.198 73.2832C181.52 73.2832 190.124 76.211 197.175 81.1704C207.093 50.2188 236.133 27.8117 270.371 27.8117C292.898 27.8117 313.154 37.4916 327.195 52.9077C331.677 34.6235 348.228 21 367.946 21C391.07 21 409.833 39.7622 409.833 62.8863C409.833 82.1265 396.866 98.3791 379.12 103.279C379.718 105.848 380.076 108.537 380.076 111.345C380.076 130.466 364.6 145.942 345.48 145.942C342.193 145.942 339.026 145.464 336.039 144.627C322.535 166.795 298.156 181.614 270.311 181.614C242.766 181.614 218.566 167.094 205.002 145.285C197.055 154.486 185.284 160.282 172.138 160.282C151.823 160.282 134.793 146.36 130.013 127.538C121.409 143.253 104.678 153.949 85.438 153.949C61.4176 153.949 41.2811 137.278 36.023 114.871C29.51 121.981 20.1886 126.403 9.79175 126.403C-4.96704 126.403 -17.6345 117.44 -23.0122 104.713C-28.8082 108.776 -35.7992 111.106 -43.3877 111.106C-63.0462 111.106 -79 95.0927 -79 75.4342C-79 55.716 -63.0462 39.7622 -43.3279 39.7622Z" fill="#0DCFFC"/>
<path d="M460.861 134.47C460.861 134.47 341.715 64.6798 234.161 112.422L90.3378 174.923L61.4775 190.637C61.4775 190.637 68.2893 195.896 75.6388 197.987C82.9883 200.078 121.827 197.449 135.451 199.54C149.074 201.632 203.15 197.987 236.731 205.814C270.311 213.702 318.053 209.997 342.193 213.164C366.333 216.331 437.737 208.981 439.291 207.906C440.844 206.83 460.264 190.04 460.801 183.228C461.339 176.416 460.861 134.47 460.861 134.47Z" fill="#00B6EB"/>
<path d="M-36.2176 138.712C-36.2176 138.712 85.9756 67.1285 196.398 116.125L343.926 180.18L373.563 196.313C373.563 196.313 366.572 201.69 359.043 203.841C351.514 205.993 311.66 203.304 297.678 205.455C283.696 207.606 228.246 203.841 193.769 211.908C159.292 219.975 110.295 216.21 85.5573 219.437C60.8199 222.663 -12.4363 215.135 -14.0496 214.059C-15.6629 212.984 -35.5604 195.775 -36.0981 188.724C-36.7554 181.793 -36.2176 138.712 -36.2176 138.712Z" fill="#00ADE2"/>
<path d="M43.4919 38.8059C41.9981 37.0731 38.3532 35.4598 38.174 35.4001C37.8752 35.2806 37.5764 35.4001 37.4569 35.6988C37.4569 35.7586 37.4569 35.7586 37.3972 35.8183C37.2777 36.5353 35.5449 37.1926 33.7523 36.8341C31.9597 36.4756 30.5854 35.2806 30.7647 34.5635C30.8244 34.3843 30.7647 34.205 30.6452 34.0855C30.5257 33.966 30.3464 33.9062 30.2269 33.9062C30.0477 33.9062 26.104 34.0855 24.0127 35.1013C21.9214 36.1768 20.0093 43.1081 19.83 43.8849C19.7703 44.1239 19.83 44.3629 20.0093 44.4824C21.2043 45.3189 22.5189 45.9762 23.8932 46.3945L21.6823 58.0461C21.6226 58.2254 21.7421 58.4644 21.8616 58.5839C21.9214 58.6437 23.8932 60.1972 29.0916 61.213C34.2901 62.2288 36.6801 61.5118 36.7399 61.452C36.9192 61.3923 37.0984 61.213 37.0984 61.0337L39.3092 49.3821C40.7433 49.5016 42.2371 49.3821 43.6114 49.0236C43.8504 48.9638 43.9699 48.7845 44.0297 48.5455C44.2089 47.7688 45.0455 40.6582 43.4919 38.8059Z" fill="#00B6EB"/>
<path d="M38.4128 35.58C38.2933 35.4605 38.1738 35.4007 37.9946 35.4007C36.68 35.4007 35.4252 35.341 34.1107 35.2215C32.8559 34.863 31.6608 34.4447 30.4658 33.9667C30.2865 33.9069 30.1073 33.9069 29.9878 33.9667C29.8683 34.0264 29.7488 34.2057 29.689 34.3252C29.3902 35.9983 31.4218 37.5518 33.5729 37.9701C35.724 38.3884 38.2336 37.7311 38.5323 36.058C38.5323 35.8788 38.4726 35.6995 38.4128 35.58Z" fill="#0296C9"/>
<path d="M58.1908 42.2109C58.1908 42.2109 55.1434 44.9595 52.4546 52.3091C54.7849 53.8626 57.7128 54.4004 60.4614 53.8626L58.1908 42.2109Z" fill="#00B6EB"/>
<path d="M81.2552 43.4062C81.2552 43.4062 84.0038 46.4536 85.9158 54.0421C83.4063 55.3567 80.4784 55.5957 77.7896 54.7592L81.2552 43.4062Z" fill="#00B6EB"/>
<path d="M85.8563 54.0421C83.3467 55.3566 80.4188 55.5956 77.73 54.7591L78.3873 52.6678C80.7176 53.1458 83.1077 52.7873 85.2588 51.7715C85.438 52.4885 85.677 53.2653 85.8563 54.0421Z" fill="#0296C9"/>
<path d="M60.4614 53.8628C57.7128 54.4006 54.8447 53.8628 52.4546 52.3093C52.7534 51.5325 53.0521 50.8155 53.2911 50.1582C55.3227 51.413 57.653 51.9508 60.0431 51.7715L60.4614 53.8628Z" fill="#0296C9"/>
<path d="M76.3553 41.1963C78.0283 41.7939 79.6416 42.5706 81.1952 43.4072C80.4184 46.813 77.7296 54.7601 77.7296 54.7601L77.4308 70.8932C75.0407 71.909 72.7104 72.387 68.1095 72.148C63.5086 71.909 61.238 71.1919 58.9674 69.9371L60.4014 53.8638C60.4014 53.8638 58.5491 45.6777 58.1309 42.2121C59.7442 41.4951 61.477 40.9573 63.2098 40.5391L76.3553 41.1963Z" fill="#00B6EB"/>
<path d="M69.2448 51.4124C68.946 51.4124 68.707 51.1136 68.707 50.8149L69.0656 44.4811C69.0656 44.1824 69.3643 43.9434 69.6631 43.9434C69.9618 43.9434 70.2009 44.2421 70.2009 44.5409L69.8423 50.8746C69.8423 51.2331 69.6033 51.4721 69.2448 51.4124Z" fill="#0296C9"/>
<path d="M77.4908 70.9512C75.1007 71.967 72.7704 72.445 68.1694 72.206C63.5685 71.967 61.2979 71.25 59.0273 69.9952L59.2066 67.7246C61.4174 68.9794 63.688 69.6367 68.2292 69.8757C72.7703 70.1147 75.1007 69.6367 77.431 68.6806L77.4908 70.9512Z" fill="#00B6EB"/>
<path d="M73.3679 42.152C72.1728 43.7653 69.6035 44.4824 69.6035 44.4824C69.6035 44.4824 67.0939 43.5263 66.0781 41.7338C68.528 41.435 71.0376 41.6143 73.3679 42.152Z" fill="#00B6EB"/>
<path d="M77.2515 42.6296C77.2515 42.6296 75.8772 46.5732 71.8141 47.5292C71.8141 47.5292 71.9336 45.7964 69.663 44.5416C69.663 44.5416 72.2323 43.8246 73.4274 42.2113C71.0373 41.6138 68.5875 41.4943 66.1974 41.8528C66.0779 41.8528 67.3327 43.6453 69.663 44.6014C67.2729 45.6172 67.2132 47.35 67.2132 47.35C63.2695 45.9757 62.3135 41.9125 62.3135 41.9125L64.4048 39.0444C64.6438 38.7457 65.0023 38.5664 65.3608 38.5664L74.5029 39.0444C74.8614 39.0444 75.22 39.2834 75.459 39.5822L77.2515 42.6296Z" fill="#0296C9"/>
<path d="M96.6711 51.5941C96.6711 51.5941 96.9101 53.5659 96.9698 55.1792C97.2088 55.1792 97.5076 55.2987 97.6869 55.5377C97.9856 55.7767 99.0612 56.0157 99.3002 56.0157C99.4197 56.0157 100.017 56.1352 101.033 56.195C103.363 56.3145 105.634 55.956 106.231 55.5377C106.411 55.3584 106.709 55.2389 106.948 55.1792C107.008 53.5659 107.247 51.5941 107.247 51.5941C107.665 50.5783 107.785 49.3235 107.785 48.1882C107.785 43.1093 107.904 42.93 107.367 42.5117C106.769 42.0337 105.813 42.213 105.514 42.9897C105.335 43.3483 105.455 43.5275 105.395 45.3201C105.395 46.1566 104.917 46.4554 104.797 46.5151C102.706 47.2919 102.826 48.9052 101.87 48.7857C101.093 48.6662 101.093 47.2322 99.1209 46.5151C99.0014 46.4554 98.5234 46.1566 98.5234 45.3201C98.5234 43.5275 98.5831 43.3483 98.4039 42.9897C97.9856 42.0337 96.6113 42.0337 96.2528 42.9897C96.1333 43.2885 96.1333 43.0495 96.1333 48.2479C96.1333 49.3235 96.3126 50.5783 96.6711 51.5941Z" fill="#00B6EB"/>
<path d="M117.883 76.8677L107.785 56.791C107.666 56.9105 107.427 57.0898 107.247 57.2093C105.096 58.4641 97.9858 58.5836 96.0738 56.791L85.9159 76.8677C85.6171 77.525 85.7964 78.242 86.3342 78.7201C90.0388 81.5284 93.6837 79.2578 96.1933 81.6479C99.3601 84.755 104.499 84.755 107.725 81.5882C109.996 79.3176 113.76 81.4687 117.465 78.7201C118.063 78.242 118.242 77.4653 117.883 76.8677Z" fill="#00B6EB"/>
<g opacity="0.4">
<path opacity="0.4" d="M95.6553 81.1714L99.1807 63.2458C99.2404 62.8873 99.0014 62.5885 98.7027 62.5287C98.3442 62.469 98.0454 62.708 97.9857 63.0068L94.52 80.6337C94.8785 80.7532 95.2968 80.9324 95.6553 81.1714Z" fill="#1976D2"/>
<path opacity="0.4" d="M26.7015 46.4545L28.1355 40.4792C28.1355 40.3597 28.0758 40.2402 27.9563 40.2402C27.8368 40.2402 27.6575 40.3 27.6575 40.4195L26.2832 46.2752C26.4027 46.2752 26.582 46.335 26.7015 46.4545Z" fill="#1976D2"/>
<path opacity="0.4" d="M105.096 62.4681C104.738 62.5279 104.559 62.8864 104.618 63.1852L108.144 81.1706C108.502 80.9316 108.92 80.7523 109.339 80.6328L105.873 63.0059C105.813 62.6474 105.455 62.4084 105.096 62.4681Z" fill="#1976D2"/>
</g>
<path d="M101.93 58.3445C100.316 58.3445 97.1494 58.1055 96.0141 56.9105C95.5361 56.4325 95.5959 55.7154 96.0739 55.2374C96.5519 54.7594 97.2689 54.8192 97.7469 55.2374C98.0457 55.4764 99.1212 55.7154 99.3602 55.7154C99.4797 55.7154 100.077 55.8349 101.093 55.8947C103.423 56.0142 105.694 55.6557 106.291 55.2374C106.77 54.7594 107.487 54.7594 107.965 55.2374C108.562 55.8349 108.443 56.8507 107.367 57.3885C105.634 58.4043 101.87 58.3445 101.93 58.3445Z" fill="#0296C9"/>
<path d="M99.0017 57.8056C98.5237 57.3276 98.5835 56.6106 99.0615 56.1325C99.2407 55.9533 99.42 55.8935 99.659 55.8338C99.4797 55.8338 99.42 55.774 99.3602 55.774C99.181 55.7143 98.0457 55.535 97.7469 55.296C97.2689 54.818 96.5519 54.818 96.0739 55.296C95.5959 55.774 95.5959 56.4911 96.0141 56.9691C96.7311 57.6861 98.1054 58.0446 99.5395 58.2239C99.3005 58.1044 99.1212 57.9849 99.0017 57.8056Z" fill="#0296C9"/>
<path d="M107.307 42.5099C106.53 41.9124 105.395 42.3904 105.395 43.4062C105.335 44.9598 105.515 45.4976 105.216 45.9756H107.725C107.725 43.4062 107.905 42.988 107.307 42.5099Z" fill="#00B6EB"/>
<path d="M96.1932 42.9877C96.014 43.3462 96.1335 43.4657 96.0737 46.035H98.5833C98.3443 45.4973 98.4638 45.0192 98.4041 43.4657C98.4638 42.1511 96.731 41.7926 96.1932 42.9877Z" fill="#00B6EB"/>
<path opacity="0.18" d="M39.6079 49.4412L40.3847 43.3464C40.3847 43.2269 40.3249 43.1074 40.1457 43.1074C40.0262 43.1074 39.9067 43.1672 39.8469 43.2867L39.1299 49.2619C39.2494 49.3216 39.4286 49.3814 39.6079 49.4412Z" fill="#1976D2"/>
<path d="M24.5503 102.204C24.5503 106.326 26.8806 109.732 29.8085 109.732C32.7363 109.732 35.0667 106.386 35.0667 102.204C35.0667 98.0209 32.7363 81.5293 29.8085 81.5293C26.8806 81.5293 24.5503 98.0209 24.5503 102.204Z" fill="#00ADE2"/>
<path d="M29.0913 114.871H30.5851L30.1071 109.314H29.6291L29.0913 114.871Z" fill="#66CEEE"/>
<path d="M30.1074 109.314L29.9879 85.3535L29.6294 109.314H30.1074Z" fill="#66CEEE"/>
<path d="M29.6889 107.163L25.8647 101.785L29.8681 106.804L29.6889 107.163Z" fill="#66CEEE"/>
<path d="M30.0474 103.936L33.8118 99.2754L30.0474 104.354V103.936Z" fill="#66CEEE"/>
<path d="M29.928 99.4553L27.4185 93.3008L30.0475 99.1565L29.928 99.4553Z" fill="#66CEEE"/>
<path d="M29.9282 95.0926L31.9 90.0137L29.9282 94.6146V95.0926Z" fill="#66CEEE"/>
<path d="M18.874 105.668C18.874 108.656 20.6068 111.105 22.6982 111.105C24.7895 111.105 26.5223 108.656 26.5223 105.668C26.5223 102.68 24.7895 90.6701 22.6982 90.6701C20.6068 90.6104 18.874 102.621 18.874 105.668Z" fill="#00B6EB"/>
<path d="M22.1602 114.87H23.2357L22.9369 110.807H22.5784L22.1602 114.87Z" fill="#66CEEE"/>
<path d="M22.9371 110.806L22.8176 93.418L22.5786 110.806H22.9371Z" fill="#66CEEE"/>
<path d="M22.5787 109.252L19.8301 105.309L22.7579 108.953L22.5787 109.252Z" fill="#66CEEE"/>
<path d="M22.8774 106.923L25.6261 103.518L22.8774 107.222V106.923Z" fill="#66CEEE"/>
<path d="M22.7579 103.637L20.9653 99.2148L22.8774 103.397L22.7579 103.637Z" fill="#66CEEE"/>
<path d="M22.8179 100.469L24.1922 96.8242L22.8179 100.111V100.469Z" fill="#66CEEE"/>
<path d="M333.589 79.7354C333.589 86.1289 329.944 91.2676 325.463 91.2676C320.981 91.2676 317.336 86.0692 317.336 79.7354C317.336 73.4017 320.981 47.9473 325.463 47.9473C329.944 47.9473 333.589 73.3419 333.589 79.7354Z" fill="#00ADE2"/>
<path d="M326.538 99.2145H324.328L324.985 90.6699H325.762L326.538 99.2145Z" fill="#66CEEE"/>
<path d="M324.985 90.6698L325.224 53.8027L325.762 90.6698H324.985Z" fill="#66CEEE"/>
<path d="M325.642 87.3239L331.557 79.0781L325.343 86.7862L325.642 87.3239Z" fill="#66CEEE"/>
<path d="M325.104 82.4234L319.308 75.1934L325.104 83.0807V82.4234Z" fill="#66CEEE"/>
<path d="M325.343 75.5533L329.167 66.0527L325.164 75.0156L325.343 75.5533Z" fill="#66CEEE"/>
<path d="M325.284 68.801L322.296 61.0332L325.284 68.0242V68.801Z" fill="#66CEEE"/>
<path d="M342.312 85.0539C342.312 89.7146 339.683 93.479 336.397 93.479C333.17 93.479 330.481 89.7146 330.481 85.0539C330.481 80.3933 333.111 61.9298 336.397 61.9298C339.683 61.8701 342.312 80.3933 342.312 85.0539Z" fill="#00B6EB"/>
<path d="M337.233 99.2142H335.62L336.098 93H336.636L337.233 99.2142Z" fill="#66CEEE"/>
<path d="M336.098 93.0006L336.277 66.1719L336.636 93.0006H336.098Z" fill="#66CEEE"/>
<path d="M336.576 90.6103L340.878 84.5156L336.337 90.1921L336.576 90.6103Z" fill="#66CEEE"/>
<path d="M336.158 87.0258L331.975 81.7676L336.158 87.444V87.0258Z" fill="#66CEEE"/>
<path d="M336.337 82.0074L339.146 75.0762L336.218 81.5892L336.337 82.0074Z" fill="#66CEEE"/>
<path d="M336.277 77.1061L334.126 71.4297L336.277 76.5086V77.1061Z" fill="#66CEEE"/>
<path d="M312.257 83.7402H295.407V96.5272H312.257V83.7402Z" fill="#00ADE2"/>
<path d="M313.99 80.9316H293.734V83.74H313.99V80.9316Z" fill="#00ADE2"/>
<path d="M312.257 68.2637H295.407V81.0506H312.257V68.2637Z" fill="#00ADE2"/>
<path d="M313.99 65.4551H293.734V68.2634H313.99V65.4551Z" fill="#00ADE2"/>
<path d="M312.257 52.8477H295.407V65.6346H312.257V52.8477Z" fill="#00ADE2"/>
<path d="M313.99 50.0391H293.734V52.8474H313.99V50.0391Z" fill="#00ADE2"/>
<path opacity="0.53" d="M302.219 85.7109H300.008V89.1766H302.219V85.7109Z" fill="#0DCFFC"/>
<path opacity="0.53" d="M307.298 85.7109H305.087V89.1766H307.298V85.7109Z" fill="#0DCFFC"/>
<path opacity="0.53" d="M302.219 91.0293H300.008V94.4949H302.219V91.0293Z" fill="#0DCFFC"/>
<path opacity="0.53" d="M307.298 91.0293H305.087V94.4949H307.298V91.0293Z" fill="#0DCFFC"/>
<path opacity="0.53" d="M302.219 70.1758H300.008V73.6414H302.219V70.1758Z" fill="#0DCFFC"/>
<path opacity="0.53" d="M307.298 70.1758H305.087V73.6414H307.298V70.1758Z" fill="#0DCFFC"/>
<path opacity="0.53" d="M302.219 75.4941H300.008V78.9598H302.219V75.4941Z" fill="#0DCFFC"/>
<path opacity="0.53" d="M307.298 75.4941H305.087V78.9598H307.298V75.4941Z" fill="#0DCFFC"/>
<path opacity="0.53" d="M302.219 54.998H300.008V58.4637H302.219V54.998Z" fill="#0DCFFC"/>
<path opacity="0.53" d="M307.298 54.998H305.087V58.4637H307.298V54.998Z" fill="#0DCFFC"/>
<path opacity="0.53" d="M302.219 60.2578H300.008V63.7234H302.219V60.2578Z" fill="#0DCFFC"/>
<path opacity="0.53" d="M307.298 60.2578H305.087V63.7234H307.298V60.2578Z" fill="#0DCFFC"/>
<path d="M286.683 95.5102L277.422 97.1235C276.585 97.3027 275.748 96.7052 275.569 95.8687L274.374 89.1167C274.195 88.2801 274.792 87.4436 275.629 87.2644L284.891 85.651C285.727 85.4718 286.564 86.0693 286.743 86.9058L287.938 93.6578C288.117 94.4944 287.52 95.3309 286.683 95.5102Z" fill="#00ADE2"/>
<path d="M274.793 97.781L271.028 98.4383C270.67 98.498 270.311 98.259 270.192 97.9005L270.072 97.2432C269.714 95.0922 271.148 93.0008 273.299 92.6423L273.837 92.5228C274.195 92.4631 274.554 92.7021 274.673 93.0606L275.39 96.9445C275.39 97.3627 275.151 97.7213 274.793 97.781Z" fill="#00ADE2"/>
<path d="M273.06 100.172C273.918 100.172 274.613 99.476 274.613 98.618C274.613 97.76 273.918 97.0645 273.06 97.0645C272.202 97.0645 271.506 97.76 271.506 98.618C271.506 99.476 272.202 100.172 273.06 100.172Z" fill="#00ADE2"/>
<path d="M279.095 98.9763C279.953 98.9763 280.648 98.2807 280.648 97.4227C280.648 96.5647 279.953 95.8691 279.095 95.8691C278.237 95.8691 277.541 96.5647 277.541 97.4227C277.541 98.2807 278.237 98.9763 279.095 98.9763Z" fill="#00ADE2"/>
<path d="M285.01 97.9606C285.868 97.9606 286.564 97.2651 286.564 96.4071C286.564 95.5491 285.868 94.8535 285.01 94.8535C284.152 94.8535 283.457 95.5491 283.457 96.4071C283.457 97.2651 284.152 97.9606 285.01 97.9606Z" fill="#00ADE2"/>
<path d="M273.478 93.0621L274.972 90.0147L274.793 89.3574L272.821 93.3011L273.478 93.0621Z" fill="#00ADE2"/>
<path d="M187.136 131.84L190.662 28.1702L188.929 27.752L185.702 131.84H187.136Z" fill="white"/>
<path d="M96.7908 41.6737C66.5562 41.6737 31.1232 38.2081 -0.366211 26.1979L-0.127206 25.6602C42.4761 41.9127 92.4289 42.3908 126.786 39.9409C164.012 37.3118 191.498 30.6793 191.797 30.6196L191.916 31.2171C191.618 31.2769 164.072 37.9094 126.786 40.5384C117.764 41.1957 107.606 41.6737 96.7908 41.6737Z" fill="white"/>
<path d="M141.127 55.2383C138.438 47.7095 136.407 44.3037 136.407 44.3037L135.809 41.4355L131.268 42.1526C130.611 42.2721 129.894 42.3318 129.236 42.3916L124.636 42.6306V45.6182C124.636 45.6182 123.381 49.3228 122.305 57.2699C121.23 65.2169 121.17 66.8302 121.17 66.8302C121.17 66.8302 121.648 67.7863 122.723 67.7863C123.202 67.7863 123.799 67.6668 124.576 67.1887L124.636 69.1008C124.636 69.1008 125.592 69.5191 127.205 68.9215C127.265 68.9215 127.324 68.8618 127.324 68.8618L128.938 68.4435L128.997 69.9971C128.997 69.9971 130.491 70.5349 131.447 69.4593C131.567 69.3398 131.686 69.2203 131.746 69.1008C132.344 68.4435 132.523 68.324 132.822 68.324C132.881 68.324 132.941 68.324 133.061 68.324C133.359 68.2643 133.539 68.3838 134.256 68.8618C134.375 68.9216 134.495 69.0411 134.614 69.1606C135.749 70.0568 137.124 69.2203 137.124 69.2203L136.885 67.6668L138.558 67.7265C138.618 67.7265 138.677 67.7265 138.677 67.7265C140.41 67.9655 141.247 67.368 141.247 67.368L140.888 65.4559C141.725 65.7547 142.322 65.7547 142.8 65.6352C143.876 65.3962 144.115 64.3804 144.115 64.3804C144.115 64.3804 143.816 62.7671 141.127 55.2383Z" fill="#00B6EB"/>
<g opacity="0.4">
<path opacity="0.4" d="M142.86 65.5752C142.382 65.6947 141.784 65.6947 140.948 65.3959L138.139 48.9043L142.86 65.5752Z" fill="#0296C9"/>
<path opacity="0.4" d="M138.737 67.6665C138.677 67.6665 138.617 67.6665 138.617 67.6665L136.944 67.6067L134.196 48.9043L138.737 67.6665Z" fill="#0296C9"/>
<path opacity="0.4" d="M122.843 67.7266C123.321 67.7266 123.918 67.6071 124.695 67.129L123.978 50.3984L122.843 67.7266Z" fill="#0296C9"/>
<path opacity="0.4" d="M127.265 68.8617C127.324 68.8617 127.384 68.8019 127.384 68.8019L128.997 68.3836L127.802 49.502L127.265 68.8617Z" fill="#0296C9"/>
<path opacity="0.4" d="M131.208 49.1426L131.865 68.9803C132.463 68.323 132.642 68.2035 132.941 68.2035C133.001 68.2035 133.06 68.2035 133.18 68.2035C133.479 68.1438 133.658 68.2633 134.375 68.7413L131.208 49.1426Z" fill="#0296C9"/>
</g>
<path d="M45.4002 36.5362L44.2612 36.0098L42.7322 39.3182L43.8712 39.8446L45.4002 36.5362Z" fill="white"/>
<path d="M80.6103 39.4531L79.3682 39.2754L78.852 42.8835L80.0942 43.0611L80.6103 39.4531Z" fill="white"/>
<path d="M25.3271 32.4121H24.0723V36.057H25.3271V32.4121Z" fill="white"/>
<path d="M60.9394 38.5664H59.6846V42.2113H60.9394V38.5664Z" fill="white"/>
<path d="M107.308 40.0605H106.053V43.7054H107.308V40.0605Z" fill="white"/>
<path d="M97.9858 40.3008H96.731V43.9457H97.9858V40.3008Z" fill="white"/>
<path d="M134.451 38.7472L133.253 39.123L134.345 42.6006L135.542 42.2248L134.451 38.7472Z" fill="white"/>
<path d="M126.488 40.3008H125.233V43.9457H126.488V40.3008Z" fill="white"/>
<path d="M154.512 40.8985L154.452 41.6752L154.392 42.5118C153.735 42.6313 153.078 42.5715 152.42 42.3325C152.062 42.213 151.763 42.0338 151.524 41.7947C151.166 41.496 151.166 40.8985 151.584 40.6595L153.376 39.4644L153.556 39.3449C153.615 39.3449 153.615 39.2852 153.675 39.2852L154.512 40.8985Z" fill="#00B6EB"/>
<path opacity="0.24" d="M154.512 40.8979L154.452 41.6747L154.392 42.5112C153.735 42.6307 153.078 42.571 152.42 42.332C152.062 42.2125 151.763 42.0332 151.524 41.7942C151.285 41.5552 151.225 41.2565 151.345 40.9577C151.584 41.1967 151.942 41.376 152.241 41.4955C152.839 41.7345 153.556 41.7942 154.213 41.6747L154.273 40.8382V40.4199L154.512 40.8979Z" fill="#1976D2"/>
<path d="M164.67 38.6279C164.729 38.8072 164.67 38.9267 164.61 39.1059C164.431 39.4047 164.251 39.7034 164.012 40.0022C163.534 40.4802 162.937 40.8387 162.28 40.9582L161.563 40.2412L161.204 39.8827L161.563 37.6719C161.622 37.6719 161.682 37.6719 161.742 37.6719H161.802L162.16 37.7316L164.012 38.0304C164.251 38.0901 164.371 38.2096 164.49 38.3291C164.49 38.3889 164.55 38.4487 164.55 38.4487C164.61 38.5682 164.61 38.5682 164.67 38.6279C164.61 38.5682 164.61 38.5682 164.67 38.6279C164.61 38.5682 164.61 38.5682 164.67 38.6279Z" fill="#00B6EB"/>
<path opacity="0.24" d="M164.67 38.6273C164.729 38.8065 164.67 38.926 164.61 39.1053C164.431 39.404 164.251 39.7028 164.012 40.0015C163.534 40.4796 162.937 40.8381 162.28 40.9576L161.563 40.2406L161.204 39.882L161.324 39.2845L161.383 39.3443L162.1 40.0613C162.758 39.9418 163.355 39.5833 163.833 39.1053C164.072 38.8663 164.311 38.5675 164.431 38.209C164.49 38.2687 164.55 38.3285 164.55 38.3882C164.55 38.448 164.61 38.5077 164.61 38.5077C164.61 38.5675 164.61 38.5675 164.67 38.6273C164.61 38.5675 164.61 38.5675 164.67 38.6273C164.61 38.5675 164.61 38.5675 164.67 38.6273Z" fill="#1976D2"/>
<path d="M161.562 37.6113L162.638 42.6903V44.7218L155.886 45.4986H155.647L154.81 44.3036L153.735 39.2246C153.795 39.2246 153.854 39.1649 153.974 39.1649L155.229 38.9259C155.408 38.8661 155.527 38.9259 155.707 38.9856C155.826 39.0454 155.946 39.2246 155.946 39.3441C156.065 39.8222 156.364 40.2404 156.722 40.5392C157.141 40.7782 157.619 40.8977 158.157 40.8379C158.635 40.7184 159.053 40.4197 159.352 40.0612C159.591 39.6429 159.71 39.1649 159.65 38.6271C159.591 38.3284 159.77 37.9698 160.128 37.9101L161.383 37.6711C161.383 37.6113 161.503 37.6113 161.562 37.6113Z" fill="#0296C9"/>
<path d="M154.512 39.0449L156.006 46.2749L155.348 45.7969L154.751 44.3031L153.675 39.2242C153.735 39.2242 153.795 39.1644 153.914 39.1644L154.512 39.0449Z" fill="#0296C9"/>
<path d="M162.638 42.6895L163.056 44.8405L155.228 46.4538L155.707 45.2588L154.75 44.3028L162.638 42.6895Z" fill="#0296C9"/>
<path d="M155.826 45.3193L155.587 44.1242L154.811 44.3035L155.229 46.4545L156.006 46.2753L163.056 44.8412L162.877 44.0645L156.006 45.4985C155.946 45.4985 155.886 45.4388 155.826 45.3193Z" fill="#0296C9"/>
<path d="M155.229 46.4551L152.719 57.2703C152.6 57.8678 153.018 58.3458 153.675 58.4653C155.527 58.8238 158.396 59.0628 161.742 58.3458C165.148 57.6288 167.657 56.2545 169.211 55.2387C169.808 54.8802 169.928 54.2229 169.629 53.7449L163.056 44.8418L155.229 46.4551Z" fill="#00B6EB"/>
<g opacity="0.4">
<path opacity="0.4" d="M153.854 58.5234C153.795 58.5234 153.735 58.5234 153.675 58.5234C153.018 58.4039 152.6 57.8662 152.719 57.3284L155.229 46.5132L156.005 46.334L153.615 57.6869C153.556 57.9857 153.675 58.2844 153.854 58.5234Z" fill="#0296C9"/>
<path opacity="0.4" d="M156.902 46.1547L157.559 46.0352L156.364 58.8221C156.125 58.8221 155.946 58.8221 155.767 58.7624L156.902 46.1547Z" fill="#0296C9"/>
<path opacity="0.4" d="M158.814 45.7367L159.411 45.6172L162.041 58.3444C161.921 58.3444 161.861 58.4042 161.742 58.4042C161.622 58.4042 161.563 58.4639 161.443 58.4639L158.814 45.7367Z" fill="#0296C9"/>
<path opacity="0.4" d="M167.478 56.3131C167.299 56.4326 167.119 56.4924 166.94 56.6119L160.786 45.3187L161.443 45.1992L167.478 56.3131Z" fill="#0296C9"/>
</g>
<path d="M160.829 35.3769L159.609 35.6719L160.466 39.2147L161.685 38.9197L160.829 35.3769Z" fill="white"/>
<path d="M154.246 36.2714L153.026 36.5664L153.883 40.1092L155.103 39.8142L154.246 36.2714Z" fill="white"/>
</g>
<defs>
<clipPath id="clip0_35553_899">
<rect width="376" height="193" fill="white"/>
</clipPath>
</defs>
</svg>
