<svg width="333" height="295" viewBox="0 0 333 295" fill="none" xmlns="http://www.w3.org/2000/svg">
<g filter="url(#filter0_d_35575_9429)">
<rect x="93" y="37" width="81" height="81" rx="40.5" fill="white"/>
</g>
<g filter="url(#filter1_d_35575_9429)">
<rect x="212" y="72" width="101" height="101" rx="50.5" fill="white"/>
</g>
<path d="M253.038 102.287C254.366 102.287 255.695 102.273 257.022 102.293C258.211 102.31 258.653 102.767 258.695 103.95C258.799 106.929 258.661 107.072 255.678 107.072C253.508 107.072 251.337 107.08 249.168 107.072C247.984 107.066 247.53 106.602 247.501 105.427C247.424 102.386 247.514 102.293 250.512 102.291L253.038 102.287Z" fill="#B9F3EF"/>
<path d="M244.192 110.323H279.639C279.659 110.679 279.696 111.019 279.696 111.358C279.696 120.043 279.701 131.163 279.696 139.848C279.696 142.81 278.159 144.35 275.202 144.351C266.322 144.357 257.442 144.357 248.562 144.351C245.616 144.351 244.087 142.805 244.081 139.836C244.074 135.104 244.062 130.372 244.081 125.64C244.091 122.888 244.162 120.136 244.191 117.385C244.203 115.87 244.192 111.923 244.192 110.323ZM271.922 128.771C271.967 126.795 271.428 124.849 270.371 123.179C269.315 121.508 267.788 120.186 265.984 119.38C264.179 118.573 262.176 118.318 260.226 118.645C258.277 118.973 256.468 119.869 255.026 121.221C253.583 122.573 252.573 124.321 252.12 126.245C251.668 128.17 251.794 130.185 252.483 132.038C253.171 133.891 254.392 135.499 255.991 136.661C257.591 137.823 259.497 138.486 261.473 138.568C262.805 138.623 264.135 138.412 265.384 137.947C266.634 137.482 267.779 136.773 268.751 135.861C269.724 134.949 270.505 133.852 271.049 132.635C271.593 131.418 271.889 130.104 271.92 128.771H271.922Z" fill="url(#paint0_linear_35575_9429)"/>
<g filter="url(#filter2_d_35575_9429)">
<path d="M261.88 138.596C267.454 138.596 271.972 134.077 271.972 128.504C271.972 122.93 267.454 118.411 261.88 118.411C256.306 118.411 251.788 122.93 251.788 128.504C251.788 134.077 256.306 138.596 261.88 138.596Z" fill="white"/>
</g>
<path d="M244.175 110.324C244.175 109.032 244.175 107.778 244.175 106.524C244.175 105.39 244.162 104.256 244.184 103.122C244.153 102.585 244.235 102.047 244.423 101.542C244.612 101.038 244.903 100.579 245.279 100.193C245.654 99.8078 246.106 99.5047 246.605 99.3033C247.105 99.1019 247.64 99.0066 248.178 99.0235C257.354 98.9922 266.529 98.9922 275.704 99.0235C276.21 99.0018 276.715 99.0815 277.189 99.2579C277.664 99.4343 278.098 99.7039 278.466 100.051C278.835 100.398 279.13 100.815 279.335 101.278C279.54 101.74 279.65 102.239 279.659 102.745C279.744 105.136 279.684 107.539 279.68 109.936C279.662 110.069 279.627 110.198 279.577 110.322L244.175 110.324ZM253.108 102.288H250.589C247.6 102.288 247.51 102.384 247.587 105.424C247.616 106.599 248.069 107.063 249.249 107.069C251.413 107.081 253.577 107.069 255.738 107.069C258.712 107.069 258.85 106.927 258.746 103.947C258.704 102.764 258.263 102.307 257.078 102.289C255.76 102.273 254.435 102.289 253.111 102.287L253.108 102.288ZM265.052 106.103C265.333 106.111 265.61 106.035 265.848 105.886C266.087 105.736 266.275 105.519 266.389 105.262C266.504 105.005 266.54 104.72 266.492 104.443C266.444 104.166 266.315 103.909 266.121 103.706C265.927 103.502 265.677 103.361 265.403 103.299C265.128 103.238 264.842 103.26 264.58 103.361C264.317 103.463 264.091 103.641 263.93 103.871C263.769 104.102 263.68 104.375 263.675 104.656C263.671 105.03 263.813 105.39 264.071 105.66C264.329 105.93 264.682 106.089 265.055 106.102L265.052 106.103ZM271.341 104.715C271.345 104.437 271.267 104.164 271.116 103.93C270.966 103.697 270.749 103.513 270.494 103.402C270.239 103.292 269.956 103.259 269.683 103.309C269.409 103.358 269.156 103.488 268.956 103.681C268.756 103.874 268.617 104.122 268.558 104.393C268.499 104.665 268.521 104.948 268.622 105.207C268.724 105.466 268.899 105.689 269.127 105.849C269.355 106.008 269.625 106.096 269.903 106.102C270.276 106.101 270.634 105.956 270.903 105.698C271.171 105.439 271.329 105.087 271.344 104.714L271.341 104.715ZM276.188 104.731C276.194 104.453 276.119 104.18 275.97 103.945C275.822 103.711 275.607 103.525 275.354 103.412C275.1 103.299 274.819 103.264 274.545 103.311C274.271 103.358 274.018 103.484 273.816 103.675C273.614 103.866 273.473 104.112 273.411 104.383C273.349 104.653 273.369 104.936 273.467 105.196C273.565 105.455 273.738 105.68 273.964 105.841C274.19 106.003 274.459 106.094 274.736 106.103C275.11 106.109 275.472 105.968 275.744 105.712C276.016 105.455 276.178 105.103 276.194 104.729L276.188 104.731Z" fill="url(#paint1_linear_35575_9429)"/>
<g filter="url(#filter3_d_35575_9429)">
<path d="M261.813 136.37C266.515 136.37 270.327 132.718 270.327 128.212C270.327 123.707 266.515 120.055 261.813 120.055C257.111 120.055 253.299 123.707 253.299 128.212C253.299 132.718 257.111 136.37 261.813 136.37Z" fill="#D1D3D4"/>
</g>
<path d="M270.241 129.195C270.111 131.265 269.219 133.213 267.737 134.664C266.255 136.114 264.287 136.965 262.215 137.05C258.305 137.321 254.237 134.286 253.579 130.571C253.527 130.207 253.6 129.836 253.785 129.518C254.104 128.959 254.532 128.47 255.044 128.08C255.556 127.691 256.142 127.409 256.765 127.251C257.389 127.093 258.038 127.062 258.674 127.161C259.309 127.26 259.919 127.486 260.465 127.826C261.303 128.303 262.081 128.888 262.88 129.435C265.754 131.407 267.482 131.365 270.241 129.195Z" fill="url(#paint2_radial_35575_9429)"/>
<path d="M269.976 105.554C270.439 105.554 270.814 105.179 270.814 104.715C270.814 104.252 270.439 103.877 269.976 103.877C269.513 103.877 269.137 104.252 269.137 104.715C269.137 105.179 269.513 105.554 269.976 105.554Z" fill="white"/>
<path d="M274.805 105.554C275.268 105.554 275.643 105.179 275.643 104.715C275.643 104.252 275.268 103.877 274.805 103.877C274.342 103.877 273.966 104.252 273.966 104.715C273.966 105.179 274.342 105.554 274.805 105.554Z" fill="white"/>
<g filter="url(#filter4_d_35575_9429)">
<rect x="242" y="209" width="17" height="17" rx="8.5" fill="#34D5E5"/>
</g>
<g filter="url(#filter5_d_35575_9429)">
<rect x="260" y="8" width="17" height="17" rx="8.5" fill="#34D5E5"/>
</g>
<g filter="url(#filter6_d_35575_9429)">
<rect x="20" y="106" width="17" height="17" rx="8.5" fill="#34D5E5"/>
</g>
<g filter="url(#filter7_d_35575_9429)">
<rect x="73" y="162" width="101" height="101" rx="50.5" fill="white"/>
</g>
<path d="M134.369 235.606C135.386 235.447 136.312 234.928 136.978 234.143C137.645 233.359 138.007 232.361 138 231.332V222.636C138.033 215.882 136.043 209.273 132.284 203.661C128.526 198.049 123.172 193.693 116.913 191.153V230.209H117.071C117.818 230.226 118.529 230.532 119.055 231.063C119.58 231.594 119.879 232.308 119.888 233.055L119.899 233.929C119.905 234.391 120.093 234.831 120.422 235.155C120.751 235.479 121.195 235.659 121.656 235.657L134.369 235.606ZM126.678 229.344C126.495 229.343 126.315 229.306 126.147 229.235C125.978 229.165 125.826 229.061 125.698 228.931C125.569 228.802 125.468 228.648 125.399 228.479C125.33 228.31 125.295 228.129 125.296 227.946V207.542C125.296 207.482 125.311 207.423 125.341 207.37C125.37 207.318 125.413 207.274 125.465 207.244C125.517 207.213 125.576 207.197 125.636 207.196C125.696 207.196 125.756 207.211 125.808 207.241C127.838 208.347 129.528 209.986 130.695 211.981C131.862 213.977 132.463 216.253 132.431 218.564V227.9C132.435 228.279 132.288 228.645 132.022 228.916C131.756 229.187 131.394 229.341 131.014 229.345L126.678 229.344Z" fill="url(#paint3_linear_35575_9429)"/>
<path d="M111.71 235.06V189.656C111.71 189.545 111.739 189.436 111.793 189.339C111.846 189.242 111.924 189.16 112.018 189.101C112.112 189.042 112.22 189.009 112.331 189.003C112.441 188.997 112.552 189.02 112.652 189.068L116.912 191.155V232.192C116.912 232.953 116.61 233.682 116.072 234.22C115.534 234.758 114.805 235.06 114.044 235.06H111.71Z" fill="url(#paint4_linear_35575_9429)"/>
<g filter="url(#filter8_d_35575_9429)">
<path d="M123.171 227.876C123.625 227.641 123.803 227.083 123.568 226.629C123.333 226.175 122.774 225.997 122.32 226.232C121.866 226.467 121.689 227.026 121.924 227.48C122.159 227.934 122.717 228.111 123.171 227.876Z" fill="white"/>
</g>
<g filter="url(#filter9_d_35575_9429)">
<path d="M123.171 230.818C123.625 230.583 123.803 230.024 123.568 229.57C123.333 229.116 122.774 228.939 122.32 229.174C121.866 229.409 121.689 229.967 121.924 230.421C122.159 230.875 122.717 231.053 123.171 230.818Z" fill="white"/>
</g>
<path d="M127.336 215.507V221.513C127.336 222.056 127.121 222.577 126.737 222.961C126.353 223.344 125.833 223.56 125.29 223.56V213.46C125.833 213.46 126.353 213.676 126.737 214.059C127.121 214.443 127.336 214.964 127.336 215.507V215.507Z" fill="#D1D3D4"/>
<g filter="url(#filter10_d_35575_9429)">
<path d="M127.375 214.427V222.404C127.375 222.665 127.271 222.915 127.086 223.1C126.902 223.284 126.651 223.388 126.39 223.388V213.443C126.651 213.443 126.902 213.547 127.086 213.732C127.271 213.916 127.375 214.166 127.375 214.427V214.427Z" fill="url(#paint5_linear_35575_9429)"/>
</g>
<path fill-rule="evenodd" clip-rule="evenodd" d="M143.428 92.007H124.056C123.586 92.007 123.134 91.8201 122.802 91.4874C122.469 91.1548 122.282 90.7036 122.282 90.2331V65.9526C122.282 65.4822 122.469 65.031 122.802 64.6983C123.134 64.3656 123.586 64.1787 124.056 64.1787H143.429C143.899 64.1787 144.35 64.3656 144.683 64.6983C145.016 65.031 145.203 65.4822 145.203 65.9526V90.2355C145.202 90.7056 145.015 91.1563 144.682 91.4885C144.349 91.8207 143.898 92.0072 143.428 92.007Z" fill="url(#paint6_linear_35575_9429)"/>
<path d="M133.952 66.999V91.4758C133.952 91.7762 133.834 92.0198 133.69 92.0198C133.546 92.0198 133.428 91.7762 133.428 91.4758V66.999" fill="url(#paint7_linear_35575_9429)"/>
<path d="M133.676 67.7286L140.158 62H127.195L133.676 67.7286Z" fill="url(#paint8_linear_35575_9429)"/>
<path d="M128.635 62.5469L133.676 67.0018L138.716 62.5469H128.635Z" fill="url(#paint9_linear_35575_9429)"/>
<g filter="url(#filter11_d_35575_9429)">
<path d="M132.816 66.3417L130.695 69.5183L125.219 64.9131L127.213 62.0068L132.816 66.3417Z" fill="url(#paint10_linear_35575_9429)"/>
</g>
<g filter="url(#filter12_d_35575_9429)">
<path d="M134.333 75.7886C134.156 75.4459 133.734 75.312 133.391 75.4894C133.049 75.6667 132.915 76.0883 133.092 76.431C133.27 76.7736 133.691 76.9076 134.034 76.7302C134.376 76.5528 134.51 76.1312 134.333 75.7886Z" fill="white"/>
</g>
<g filter="url(#filter13_d_35575_9429)">
<path d="M134.333 80.4361C134.156 80.0934 133.734 79.9594 133.391 80.1368C133.049 80.3142 132.915 80.7358 133.092 81.0784C133.27 81.4211 133.691 81.5551 134.034 81.3777C134.376 81.2003 134.51 80.7787 134.333 80.4361Z" fill="white"/>
</g>
<g filter="url(#filter14_d_35575_9429)">
<path d="M134.333 85.9595C134.156 85.6168 133.734 85.4829 133.391 85.6603C133.049 85.8376 132.915 86.2592 133.092 86.6019C133.27 86.9445 133.691 87.0785 134.034 86.9011C134.376 86.7237 134.51 86.3021 134.333 85.9595Z" fill="white"/>
</g>
<g filter="url(#filter15_d_35575_9429)">
<path d="M134.268 70.0532C134.091 69.7106 133.669 69.5766 133.326 69.754C132.984 69.9314 132.85 70.353 133.027 70.6956C133.205 71.0383 133.626 71.1723 133.969 70.9949C134.312 70.8175 134.445 70.3959 134.268 70.0532Z" fill="white"/>
</g>
<g filter="url(#filter16_d_35575_9429)">
<path d="M140.145 62.0049L142.2 64.8692L136.819 69.5873L134.631 66.4533L140.145 62.0049Z" fill="url(#paint11_linear_35575_9429)"/>
</g>
<g filter="url(#filter17_d_35575_9429)">
<path d="M126.382 70.4547H126.365C125.907 70.4547 125.468 70.273 125.145 69.9495C124.821 69.626 124.64 69.1873 124.64 68.7299C124.64 68.2724 124.821 67.8337 125.145 67.5102C125.468 67.1867 125.907 67.005 126.365 67.005C126.42 67.005 126.474 67.0076 126.528 67.0127C126.662 66.7313 126.869 66.491 127.127 66.3168C127.385 66.1427 127.686 66.0411 127.997 66.0226C128.308 66.0041 128.618 66.0694 128.896 66.2118C129.173 66.3541 129.407 66.5682 129.573 66.8318C129.948 66.5681 130.412 66.4643 130.864 66.5431C131.316 66.6219 131.717 66.8768 131.981 67.2519C132.245 67.6269 132.349 68.0913 132.27 68.5429C132.191 68.9946 131.936 69.3964 131.561 69.66C131.512 70.083 131.309 70.4732 130.991 70.7561C130.673 71.0391 130.262 71.1949 129.836 71.1939C129.737 71.1939 129.638 71.1856 129.54 71.169C129.344 71.4583 129.065 71.6817 128.74 71.8101C128.415 71.9384 128.059 71.9659 127.718 71.8888C127.377 71.8116 127.067 71.6336 126.829 71.3778C126.591 71.122 126.435 70.8003 126.382 70.4547Z" fill="white"/>
</g>
<g filter="url(#filter18_d_35575_9429)">
<path d="M144.715 76.9263L144.731 76.9203C145.161 76.7638 145.636 76.7845 146.05 76.9779C146.465 77.1712 146.786 77.5213 146.942 77.9512C147.099 78.381 147.078 78.8555 146.885 79.2701C146.691 79.6847 146.341 80.0055 145.911 80.1619C145.859 80.1808 145.807 80.197 145.755 80.2105C145.726 80.5207 145.613 80.8173 145.43 81.0694C145.247 81.3214 144.999 81.5196 144.713 81.6434C144.427 81.7672 144.113 81.8119 143.804 81.773C143.495 81.7341 143.202 81.6129 142.956 81.4221C142.693 81.7981 142.292 82.0545 141.841 82.1349C141.39 82.2154 140.925 82.1132 140.549 81.8509C140.173 81.5887 139.917 81.1878 139.836 80.7365C139.756 80.2851 139.858 79.8204 140.12 79.4444C140.021 79.0302 140.078 78.5942 140.281 78.2195C140.483 77.8448 140.816 77.5577 141.216 77.4131C141.309 77.3791 141.405 77.3531 141.503 77.3353C141.588 76.9963 141.774 76.691 142.035 76.4592C142.297 76.2273 142.622 76.0797 142.969 76.0356C143.316 75.9914 143.668 76.0528 143.979 76.2117C144.291 76.3706 144.547 76.6196 144.715 76.9263Z" fill="white"/>
</g>
<g filter="url(#filter19_d_35575_9429)">
<path d="M126.258 80.4453L126.274 80.4533C126.681 80.6591 126.99 81.0183 127.132 81.4517C127.275 81.8852 127.239 82.3574 127.033 82.7646C126.827 83.1717 126.468 83.4804 126.035 83.6227C125.601 83.765 125.129 83.7294 124.722 83.5235C124.673 83.4987 124.625 83.4719 124.58 83.4432C124.334 83.6334 124.042 83.7541 123.734 83.7928C123.425 83.8316 123.112 83.7868 122.827 83.6633C122.542 83.5397 122.295 83.3419 122.112 83.0905C121.93 82.8391 121.818 82.5433 121.788 82.2339C121.336 82.2997 120.876 82.1832 120.509 81.9098C120.143 81.6365 119.9 81.2287 119.834 80.7763C119.768 80.3239 119.885 79.8638 120.158 79.4974C120.432 79.1309 120.839 78.888 121.292 78.8222C121.525 78.4676 121.881 78.2116 122.292 78.1029C122.702 77.9943 123.139 78.0407 123.517 78.2332C123.605 78.2777 123.69 78.3296 123.769 78.3883C124.074 78.2192 124.423 78.1459 124.77 78.178C125.117 78.21 125.446 78.3459 125.715 78.568C125.984 78.79 126.179 79.0879 126.276 79.4228C126.373 79.7577 126.367 80.114 126.258 80.4453Z" fill="white"/>
</g>
<defs>
<filter id="filter0_d_35575_9429" x="73" y="29" width="121" height="121" filterUnits="userSpaceOnUse" color-interpolation-filters="sRGB">
<feFlood flood-opacity="0" result="BackgroundImageFix"/>
<feColorMatrix in="SourceAlpha" type="matrix" values="0 0 0 0 0 0 0 0 0 0 0 0 0 0 0 0 0 0 127 0" result="hardAlpha"/>
<feOffset dy="12"/>
<feGaussianBlur stdDeviation="10"/>
<feColorMatrix type="matrix" values="0 0 0 0 0.000711799 0 0 0 0 0.127234 0 0 0 0 0.170833 0 0 0 0.01 0"/>
<feBlend mode="normal" in2="BackgroundImageFix" result="effect1_dropShadow_35575_9429"/>
<feBlend mode="normal" in="SourceGraphic" in2="effect1_dropShadow_35575_9429" result="shape"/>
</filter>
<filter id="filter1_d_35575_9429" x="192" y="64" width="141" height="141" filterUnits="userSpaceOnUse" color-interpolation-filters="sRGB">
<feFlood flood-opacity="0" result="BackgroundImageFix"/>
<feColorMatrix in="SourceAlpha" type="matrix" values="0 0 0 0 0 0 0 0 0 0 0 0 0 0 0 0 0 0 127 0" result="hardAlpha"/>
<feOffset dy="12"/>
<feGaussianBlur stdDeviation="10"/>
<feColorMatrix type="matrix" values="0 0 0 0 0.000711799 0 0 0 0 0.127234 0 0 0 0 0.170833 0 0 0 0.01 0"/>
<feBlend mode="normal" in2="BackgroundImageFix" result="effect1_dropShadow_35575_9429"/>
<feBlend mode="normal" in="SourceGraphic" in2="effect1_dropShadow_35575_9429" result="shape"/>
</filter>
<filter id="filter2_d_35575_9429" x="250.101" y="118.411" width="26.932" height="26.9316" filterUnits="userSpaceOnUse" color-interpolation-filters="sRGB">
<feFlood flood-opacity="0" result="BackgroundImageFix"/>
<feColorMatrix in="SourceAlpha" type="matrix" values="0 0 0 0 0 0 0 0 0 0 0 0 0 0 0 0 0 0 127 0" result="hardAlpha"/>
<feOffset dx="1.68675" dy="3.37349"/>
<feGaussianBlur stdDeviation="1.68675"/>
<feColorMatrix type="matrix" values="0 0 0 0 0.00392157 0 0 0 0 0.133333 0 0 0 0 0.239216 0 0 0 0.212 0"/>
<feBlend mode="normal" in2="BackgroundImageFix" result="effect1_dropShadow_35575_9429"/>
<feBlend mode="normal" in="SourceGraphic" in2="effect1_dropShadow_35575_9429" result="shape"/>
</filter>
<filter id="filter3_d_35575_9429" x="252.456" y="120.055" width="22.0876" height="22.219" filterUnits="userSpaceOnUse" color-interpolation-filters="sRGB">
<feFlood flood-opacity="0" result="BackgroundImageFix"/>
<feColorMatrix in="SourceAlpha" type="matrix" values="0 0 0 0 0 0 0 0 0 0 0 0 0 0 0 0 0 0 127 0" result="hardAlpha"/>
<feOffset dx="1.68675" dy="3.37349"/>
<feGaussianBlur stdDeviation="1.26506"/>
<feColorMatrix type="matrix" values="0 0 0 0 0 0 0 0 0 0.305882 0 0 0 0 0.556863 0 0 0 0.561 0"/>
<feBlend mode="normal" in2="BackgroundImageFix" result="effect1_dropShadow_35575_9429"/>
<feBlend mode="normal" in="SourceGraphic" in2="effect1_dropShadow_35575_9429" result="shape"/>
</filter>
<filter id="filter4_d_35575_9429" x="222" y="201" width="57" height="57" filterUnits="userSpaceOnUse" color-interpolation-filters="sRGB">
<feFlood flood-opacity="0" result="BackgroundImageFix"/>
<feColorMatrix in="SourceAlpha" type="matrix" values="0 0 0 0 0 0 0 0 0 0 0 0 0 0 0 0 0 0 127 0" result="hardAlpha"/>
<feOffset dy="12"/>
<feGaussianBlur stdDeviation="10"/>
<feColorMatrix type="matrix" values="0 0 0 0 0.000711799 0 0 0 0 0.127234 0 0 0 0 0.170833 0 0 0 0.01 0"/>
<feBlend mode="normal" in2="BackgroundImageFix" result="effect1_dropShadow_35575_9429"/>
<feBlend mode="normal" in="SourceGraphic" in2="effect1_dropShadow_35575_9429" result="shape"/>
</filter>
<filter id="filter5_d_35575_9429" x="240" y="0" width="57" height="57" filterUnits="userSpaceOnUse" color-interpolation-filters="sRGB">
<feFlood flood-opacity="0" result="BackgroundImageFix"/>
<feColorMatrix in="SourceAlpha" type="matrix" values="0 0 0 0 0 0 0 0 0 0 0 0 0 0 0 0 0 0 127 0" result="hardAlpha"/>
<feOffset dy="12"/>
<feGaussianBlur stdDeviation="10"/>
<feColorMatrix type="matrix" values="0 0 0 0 0.000711799 0 0 0 0 0.127234 0 0 0 0 0.170833 0 0 0 0.01 0"/>
<feBlend mode="normal" in2="BackgroundImageFix" result="effect1_dropShadow_35575_9429"/>
<feBlend mode="normal" in="SourceGraphic" in2="effect1_dropShadow_35575_9429" result="shape"/>
</filter>
<filter id="filter6_d_35575_9429" x="0" y="98" width="57" height="57" filterUnits="userSpaceOnUse" color-interpolation-filters="sRGB">
<feFlood flood-opacity="0" result="BackgroundImageFix"/>
<feColorMatrix in="SourceAlpha" type="matrix" values="0 0 0 0 0 0 0 0 0 0 0 0 0 0 0 0 0 0 127 0" result="hardAlpha"/>
<feOffset dy="12"/>
<feGaussianBlur stdDeviation="10"/>
<feColorMatrix type="matrix" values="0 0 0 0 0.000711799 0 0 0 0 0.127234 0 0 0 0 0.170833 0 0 0 0.01 0"/>
<feBlend mode="normal" in2="BackgroundImageFix" result="effect1_dropShadow_35575_9429"/>
<feBlend mode="normal" in="SourceGraphic" in2="effect1_dropShadow_35575_9429" result="shape"/>
</filter>
<filter id="filter7_d_35575_9429" x="53" y="154" width="141" height="141" filterUnits="userSpaceOnUse" color-interpolation-filters="sRGB">
<feFlood flood-opacity="0" result="BackgroundImageFix"/>
<feColorMatrix in="SourceAlpha" type="matrix" values="0 0 0 0 0 0 0 0 0 0 0 0 0 0 0 0 0 0 127 0" result="hardAlpha"/>
<feOffset dy="12"/>
<feGaussianBlur stdDeviation="10"/>
<feColorMatrix type="matrix" values="0 0 0 0 0.000711799 0 0 0 0 0.127234 0 0 0 0 0.170833 0 0 0 0.01 0"/>
<feBlend mode="normal" in2="BackgroundImageFix" result="effect1_dropShadow_35575_9429"/>
<feBlend mode="normal" in="SourceGraphic" in2="effect1_dropShadow_35575_9429" result="shape"/>
</filter>
<filter id="filter8_d_35575_9429" x="120.976" y="225.285" width="5.22506" height="5.22506" filterUnits="userSpaceOnUse" color-interpolation-filters="sRGB">
<feFlood flood-opacity="0" result="BackgroundImageFix"/>
<feColorMatrix in="SourceAlpha" type="matrix" values="0 0 0 0 0 0 0 0 0 0 0 0 0 0 0 0 0 0 127 0" result="hardAlpha"/>
<feOffset dx="0.843373" dy="0.843373"/>
<feGaussianBlur stdDeviation="0.843373"/>
<feColorMatrix type="matrix" values="0 0 0 0 0.00784314 0 0 0 0 0.227451 0 0 0 0 0.376471 0 0 0 0.341 0"/>
<feBlend mode="normal" in2="BackgroundImageFix" result="effect1_dropShadow_35575_9429"/>
<feBlend mode="normal" in="SourceGraphic" in2="effect1_dropShadow_35575_9429" result="shape"/>
</filter>
<filter id="filter9_d_35575_9429" x="120.976" y="228.226" width="5.22506" height="5.22506" filterUnits="userSpaceOnUse" color-interpolation-filters="sRGB">
<feFlood flood-opacity="0" result="BackgroundImageFix"/>
<feColorMatrix in="SourceAlpha" type="matrix" values="0 0 0 0 0 0 0 0 0 0 0 0 0 0 0 0 0 0 127 0" result="hardAlpha"/>
<feOffset dx="0.843373" dy="0.843373"/>
<feGaussianBlur stdDeviation="0.843373"/>
<feColorMatrix type="matrix" values="0 0 0 0 0.00784314 0 0 0 0 0.227451 0 0 0 0 0.376471 0 0 0 0.341 0"/>
<feBlend mode="normal" in2="BackgroundImageFix" result="effect1_dropShadow_35575_9429"/>
<feBlend mode="normal" in="SourceGraphic" in2="effect1_dropShadow_35575_9429" result="shape"/>
</filter>
<filter id="filter10_d_35575_9429" x="125.547" y="211.757" width="4.35738" height="13.3178" filterUnits="userSpaceOnUse" color-interpolation-filters="sRGB">
<feFlood flood-opacity="0" result="BackgroundImageFix"/>
<feColorMatrix in="SourceAlpha" type="matrix" values="0 0 0 0 0 0 0 0 0 0 0 0 0 0 0 0 0 0 127 0" result="hardAlpha"/>
<feOffset dx="0.843373"/>
<feGaussianBlur stdDeviation="0.843373"/>
<feColorMatrix type="matrix" values="0 0 0 0 0.00392157 0 0 0 0 0.133333 0 0 0 0 0.239216 0 0 0 0.302 0"/>
<feBlend mode="normal" in2="BackgroundImageFix" result="effect1_dropShadow_35575_9429"/>
<feBlend mode="normal" in="SourceGraphic" in2="effect1_dropShadow_35575_9429" result="shape"/>
</filter>
<filter id="filter11_d_35575_9429" x="123.532" y="61.1635" width="12.6574" height="12.572" filterUnits="userSpaceOnUse" color-interpolation-filters="sRGB">
<feFlood flood-opacity="0" result="BackgroundImageFix"/>
<feColorMatrix in="SourceAlpha" type="matrix" values="0 0 0 0 0 0 0 0 0 0 0 0 0 0 0 0 0 0 127 0" result="hardAlpha"/>
<feOffset dx="0.843373" dy="1.68675"/>
<feGaussianBlur stdDeviation="1.26506"/>
<feColorMatrix type="matrix" values="0 0 0 0 0.00392157 0 0 0 0 0.133333 0 0 0 0 0.239216 0 0 0 0.271 0"/>
<feBlend mode="normal" in2="BackgroundImageFix" result="effect1_dropShadow_35575_9429"/>
<feBlend mode="normal" in="SourceGraphic" in2="effect1_dropShadow_35575_9429" result="shape"/>
</filter>
<filter id="filter12_d_35575_9429" x="132.592" y="74.9894" width="3.92807" height="3.92758" filterUnits="userSpaceOnUse" color-interpolation-filters="sRGB">
<feFlood flood-opacity="0" result="BackgroundImageFix"/>
<feColorMatrix in="SourceAlpha" type="matrix" values="0 0 0 0 0 0 0 0 0 0 0 0 0 0 0 0 0 0 127 0" result="hardAlpha"/>
<feOffset dx="0.843373" dy="0.843373"/>
<feGaussianBlur stdDeviation="0.63253"/>
<feColorMatrix type="matrix" values="0 0 0 0 0.00784314 0 0 0 0 0.141176 0 0 0 0 0.376471 0 0 0 0.271 0"/>
<feBlend mode="normal" in2="BackgroundImageFix" result="effect1_dropShadow_35575_9429"/>
<feBlend mode="normal" in="SourceGraphic" in2="effect1_dropShadow_35575_9429" result="shape"/>
</filter>
<filter id="filter13_d_35575_9429" x="132.592" y="79.6369" width="3.92807" height="3.92758" filterUnits="userSpaceOnUse" color-interpolation-filters="sRGB">
<feFlood flood-opacity="0" result="BackgroundImageFix"/>
<feColorMatrix in="SourceAlpha" type="matrix" values="0 0 0 0 0 0 0 0 0 0 0 0 0 0 0 0 0 0 127 0" result="hardAlpha"/>
<feOffset dx="0.843373" dy="0.843373"/>
<feGaussianBlur stdDeviation="0.63253"/>
<feColorMatrix type="matrix" values="0 0 0 0 0.00784314 0 0 0 0 0.141176 0 0 0 0 0.376471 0 0 0 0.271 0"/>
<feBlend mode="normal" in2="BackgroundImageFix" result="effect1_dropShadow_35575_9429"/>
<feBlend mode="normal" in="SourceGraphic" in2="effect1_dropShadow_35575_9429" result="shape"/>
</filter>
<filter id="filter14_d_35575_9429" x="132.592" y="85.1603" width="3.92807" height="3.92758" filterUnits="userSpaceOnUse" color-interpolation-filters="sRGB">
<feFlood flood-opacity="0" result="BackgroundImageFix"/>
<feColorMatrix in="SourceAlpha" type="matrix" values="0 0 0 0 0 0 0 0 0 0 0 0 0 0 0 0 0 0 127 0" result="hardAlpha"/>
<feOffset dx="0.843373" dy="0.843373"/>
<feGaussianBlur stdDeviation="0.63253"/>
<feColorMatrix type="matrix" values="0 0 0 0 0.00784314 0 0 0 0 0.141176 0 0 0 0 0.376471 0 0 0 0.271 0"/>
<feBlend mode="normal" in2="BackgroundImageFix" result="effect1_dropShadow_35575_9429"/>
<feBlend mode="normal" in="SourceGraphic" in2="effect1_dropShadow_35575_9429" result="shape"/>
</filter>
<filter id="filter15_d_35575_9429" x="132.527" y="69.2541" width="3.92807" height="3.92758" filterUnits="userSpaceOnUse" color-interpolation-filters="sRGB">
<feFlood flood-opacity="0" result="BackgroundImageFix"/>
<feColorMatrix in="SourceAlpha" type="matrix" values="0 0 0 0 0 0 0 0 0 0 0 0 0 0 0 0 0 0 127 0" result="hardAlpha"/>
<feOffset dx="0.843373" dy="0.843373"/>
<feGaussianBlur stdDeviation="0.63253"/>
<feColorMatrix type="matrix" values="0 0 0 0 0.00784314 0 0 0 0 0.141176 0 0 0 0 0.376471 0 0 0 0.271 0"/>
<feBlend mode="normal" in2="BackgroundImageFix" result="effect1_dropShadow_35575_9429"/>
<feBlend mode="normal" in="SourceGraphic" in2="effect1_dropShadow_35575_9429" result="shape"/>
</filter>
<filter id="filter16_d_35575_9429" x="132.944" y="61.1615" width="12.6291" height="12.6423" filterUnits="userSpaceOnUse" color-interpolation-filters="sRGB">
<feFlood flood-opacity="0" result="BackgroundImageFix"/>
<feColorMatrix in="SourceAlpha" type="matrix" values="0 0 0 0 0 0 0 0 0 0 0 0 0 0 0 0 0 0 127 0" result="hardAlpha"/>
<feOffset dx="0.843373" dy="1.68675"/>
<feGaussianBlur stdDeviation="1.26506"/>
<feColorMatrix type="matrix" values="0 0 0 0 0.00392157 0 0 0 0 0.133333 0 0 0 0 0.239216 0 0 0 0.271 0"/>
<feBlend mode="normal" in2="BackgroundImageFix" result="effect1_dropShadow_35575_9429"/>
<feBlend mode="normal" in="SourceGraphic" in2="effect1_dropShadow_35575_9429" result="shape"/>
</filter>
<filter id="filter17_d_35575_9429" x="120.423" y="60.1159" width="22.8365" height="21.0928" filterUnits="userSpaceOnUse" color-interpolation-filters="sRGB">
<feFlood flood-opacity="0" result="BackgroundImageFix"/>
<feColorMatrix in="SourceAlpha" type="matrix" values="0 0 0 0 0 0 0 0 0 0 0 0 0 0 0 0 0 0 127 0" result="hardAlpha"/>
<feOffset dx="3.37349" dy="1.68675"/>
<feGaussianBlur stdDeviation="3.79518"/>
<feColorMatrix type="matrix" values="0 0 0 0 0 0 0 0 0 0 0 0 0 0 0 0 0 0 0.412 0"/>
<feBlend mode="normal" in2="BackgroundImageFix" result="effect1_dropShadow_35575_9429"/>
<feBlend mode="normal" in="SourceGraphic" in2="effect1_dropShadow_35575_9429" result="shape"/>
</filter>
<filter id="filter18_d_35575_9429" x="130.532" y="71.8046" width="20.7313" height="19.6346" filterUnits="userSpaceOnUse" color-interpolation-filters="sRGB">
<feFlood flood-opacity="0" result="BackgroundImageFix"/>
<feColorMatrix in="SourceAlpha" type="matrix" values="0 0 0 0 0 0 0 0 0 0 0 0 0 0 0 0 0 0 127 0" result="hardAlpha"/>
<feOffset dx="-2.53012" dy="2.53012"/>
<feGaussianBlur stdDeviation="3.37349"/>
<feColorMatrix type="matrix" values="0 0 0 0 0 0 0 0 0 0 0 0 0 0 0 0 0 0 0.271 0"/>
<feBlend mode="normal" in2="BackgroundImageFix" result="effect1_dropShadow_35575_9429"/>
<feBlend mode="normal" in="SourceGraphic" in2="effect1_dropShadow_35575_9429" result="shape"/>
</filter>
<filter id="filter19_d_35575_9429" x="115.6" y="72.1423" width="22.5826" height="20.9415" filterUnits="userSpaceOnUse" color-interpolation-filters="sRGB">
<feFlood flood-opacity="0" result="BackgroundImageFix"/>
<feColorMatrix in="SourceAlpha" type="matrix" values="0 0 0 0 0 0 0 0 0 0 0 0 0 0 0 0 0 0 127 0" result="hardAlpha"/>
<feOffset dx="3.37349" dy="1.68675"/>
<feGaussianBlur stdDeviation="3.79518"/>
<feColorMatrix type="matrix" values="0 0 0 0 0 0 0 0 0 0 0 0 0 0 0 0 0 0 0.412 0"/>
<feBlend mode="normal" in2="BackgroundImageFix" result="effect1_dropShadow_35575_9429"/>
<feBlend mode="normal" in="SourceGraphic" in2="effect1_dropShadow_35575_9429" result="shape"/>
</filter>
<linearGradient id="paint0_linear_35575_9429" x1="261.885" y1="144.526" x2="261.885" y2="109.745" gradientUnits="userSpaceOnUse">
<stop stop-color="#019EED"/>
<stop offset="1" stop-color="#2EB3F5"/>
</linearGradient>
<linearGradient id="paint1_linear_35575_9429" x1="243.673" y1="98.2753" x2="249.369" y2="119.812" gradientUnits="userSpaceOnUse">
<stop stop-color="#2AD2FF"/>
<stop offset="1" stop-color="#72E3C6"/>
</linearGradient>
<radialGradient id="paint2_radial_35575_9429" cx="0" cy="0" r="1" gradientUnits="userSpaceOnUse" gradientTransform="translate(157.322 126.935) scale(11.1821 11.1879)">
<stop stop-color="#00D8FF"/>
<stop offset="1" stop-color="#0092FF"/>
</radialGradient>
<linearGradient id="paint3_linear_35575_9429" x1="139.118" y1="213.405" x2="113.982" y2="213.405" gradientUnits="userSpaceOnUse">
<stop stop-color="#019EED"/>
<stop offset="1" stop-color="#2EB3F5"/>
</linearGradient>
<linearGradient id="paint4_linear_35575_9429" x1="107.289" y1="188.772" x2="123.468" y2="189.486" gradientUnits="userSpaceOnUse">
<stop stop-color="#2AD2FF"/>
<stop offset="1" stop-color="#72E3C6"/>
</linearGradient>
<linearGradient id="paint5_linear_35575_9429" x1="129.661" y1="218.416" x2="126.146" y2="218.416" gradientUnits="userSpaceOnUse">
<stop stop-color="#019EED"/>
<stop offset="1" stop-color="#2EB3F5"/>
</linearGradient>
<linearGradient id="paint6_linear_35575_9429" x1="133.742" y1="93.3428" x2="133.742" y2="63.2882" gradientUnits="userSpaceOnUse">
<stop stop-color="#019EED"/>
<stop offset="1" stop-color="#2EB3F5"/>
</linearGradient>
<linearGradient id="paint7_linear_35575_9429" x1="133.428" y1="79.5094" x2="133.952" y2="79.5094" gradientUnits="userSpaceOnUse">
<stop stop-color="#019EED"/>
<stop offset="1" stop-color="#2EB3F5"/>
</linearGradient>
<linearGradient id="paint8_linear_35575_9429" x1="133.637" y1="58.5571" x2="133.665" y2="70.9999" gradientUnits="userSpaceOnUse">
<stop stop-color="#2AD2FF"/>
<stop offset="1" stop-color="#72E3C6"/>
</linearGradient>
<linearGradient id="paint9_linear_35575_9429" x1="128.635" y1="64.7743" x2="138.716" y2="64.7743" gradientUnits="userSpaceOnUse">
<stop stop-color="#019EED"/>
<stop offset="1" stop-color="#2EB3F5"/>
</linearGradient>
<linearGradient id="paint10_linear_35575_9429" x1="128.934" y1="58.6117" x2="129.075" y2="71.0506" gradientUnits="userSpaceOnUse">
<stop stop-color="#2AD2FF"/>
<stop offset="1" stop-color="#72E3C6"/>
</linearGradient>
<linearGradient id="paint11_linear_35575_9429" x1="119.667" y1="58.6459" x2="119.819" y2="71.0886" gradientUnits="userSpaceOnUse">
<stop stop-color="#2AD2FF"/>
<stop offset="1" stop-color="#72E3C6"/>
</linearGradient>
</defs>
</svg>
