<svg width="373" height="356" viewBox="0 0 373 356" fill="none" xmlns="http://www.w3.org/2000/svg">
<g filter="url(#filter0_d_35569_6448)">
<path fill-rule="evenodd" clip-rule="evenodd" d="M32 4C25.3726 4 20 9.37257 20 16V320H20.3336C20.6147 319.379 21.0641 318.836 21.645 318.442L29.5136 313.1C34.9386 309.418 42.0614 309.418 47.4864 313.1L48.0136 313.458C53.4386 317.141 60.5614 317.141 65.9864 313.458L66.5136 313.1C71.9386 309.418 79.0614 309.418 84.4864 313.1L85.0136 313.458C90.4386 317.141 97.5614 317.141 102.986 313.458L103.514 313.1C108.939 309.418 116.061 309.418 121.486 313.1L122.014 313.458C127.439 317.141 134.561 317.141 139.986 313.458L140.514 313.1C145.939 309.418 153.061 309.418 158.486 313.1L159.014 313.458C164.439 317.141 171.561 317.141 176.986 313.458L177.514 313.1C182.939 309.418 190.061 309.418 195.486 313.1L196.014 313.458C201.439 317.141 208.561 317.141 213.986 313.458L214.514 313.1C219.939 309.418 227.061 309.418 232.486 313.1L233.014 313.458C238.439 317.141 245.561 317.141 250.986 313.458L251.514 313.1C256.939 309.418 264.061 309.418 269.486 313.1L270.014 313.458C275.439 317.141 282.561 317.141 287.986 313.458L288.514 313.1C293.939 309.418 301.061 309.418 306.486 313.1L307.014 313.458C312.439 317.141 319.561 317.141 324.986 313.458L325.514 313.1C330.939 309.418 338.061 309.418 343.486 313.1L351.355 318.442C351.936 318.836 352.385 319.379 352.666 320H353V16C353 9.37258 347.627 4 341 4H32Z" fill="white"/>
</g>
<defs>
<filter id="filter0_d_35569_6448" x="0" y="0" width="373" height="356" filterUnits="userSpaceOnUse" color-interpolation-filters="sRGB">
<feFlood flood-opacity="0" result="BackgroundImageFix"/>
<feColorMatrix in="SourceAlpha" type="matrix" values="0 0 0 0 0 0 0 0 0 0 0 0 0 0 0 0 0 0 127 0" result="hardAlpha"/>
<feOffset dy="16"/>
<feGaussianBlur stdDeviation="10"/>
<feComposite in2="hardAlpha" operator="out"/>
<feColorMatrix type="matrix" values="0 0 0 0 0.574146 0 0 0 0 0.528646 0 0 0 0 0.625 0 0 0 0.05 0"/>
<feBlend mode="normal" in2="BackgroundImageFix" result="effect1_dropShadow_35569_6448"/>
<feBlend mode="normal" in="SourceGraphic" in2="effect1_dropShadow_35569_6448" result="shape"/>
</filter>
</defs>
</svg>
