<svg width="333" height="295" viewBox="0 0 333 295" fill="none" xmlns="http://www.w3.org/2000/svg">
<g filter="url(#filter0_d_35553_1891)">
<rect x="93" y="37" width="81" height="81" rx="40.5" fill="white"/>
</g>
<g filter="url(#filter1_d_35553_1891)">
<rect x="212" y="72" width="101" height="101" rx="50.5" fill="white"/>
</g>
<path d="M253.038 102.287C254.366 102.287 255.695 102.273 257.022 102.292C258.211 102.309 258.653 102.767 258.695 103.95C258.799 106.929 258.661 107.072 255.678 107.072C253.508 107.072 251.337 107.08 249.168 107.072C247.984 107.066 247.53 106.602 247.501 105.427C247.424 102.386 247.514 102.292 250.512 102.291L253.038 102.287Z" fill="#B9F3EF"/>
<path d="M244.192 110.323H279.639C279.659 110.679 279.696 111.019 279.696 111.358C279.696 120.043 279.701 131.163 279.696 139.848C279.696 142.81 278.159 144.349 275.202 144.351C266.322 144.357 257.442 144.357 248.562 144.351C245.616 144.351 244.087 142.805 244.081 139.835C244.074 135.103 244.062 130.372 244.081 125.64C244.091 122.888 244.162 120.136 244.191 117.384C244.203 115.869 244.192 111.923 244.192 110.323ZM271.922 128.771C271.967 126.795 271.428 124.849 270.371 123.178C269.315 121.507 267.788 120.186 265.984 119.379C264.179 118.573 262.176 118.317 260.226 118.645C258.277 118.972 256.468 119.868 255.026 121.221C253.583 122.573 252.573 124.32 252.12 126.245C251.668 128.169 251.794 130.184 252.483 132.037C253.171 133.89 254.392 135.499 255.991 136.66C257.591 137.822 259.497 138.486 261.473 138.568C262.805 138.623 264.135 138.412 265.384 137.947C266.634 137.482 267.779 136.773 268.751 135.861C269.724 134.949 270.505 133.852 271.049 132.635C271.593 131.417 271.889 130.104 271.92 128.771H271.922Z" fill="url(#paint0_linear_35553_1891)"/>
<g filter="url(#filter2_d_35553_1891)">
<path d="M261.88 138.596C267.454 138.596 271.972 134.077 271.972 128.503C271.972 122.929 267.454 118.411 261.88 118.411C256.306 118.411 251.788 122.929 251.788 128.503C251.788 134.077 256.306 138.596 261.88 138.596Z" fill="white"/>
</g>
<path d="M244.175 110.324C244.175 109.032 244.175 107.778 244.175 106.524C244.175 105.39 244.162 104.256 244.184 103.122C244.153 102.585 244.235 102.047 244.423 101.542C244.612 101.038 244.903 100.579 245.279 100.193C245.654 99.8078 246.106 99.5047 246.605 99.3033C247.105 99.1019 247.64 99.0066 248.178 99.0235C257.354 98.9922 266.529 98.9922 275.704 99.0235C276.21 99.0018 276.715 99.0815 277.189 99.2579C277.664 99.4343 278.098 99.7039 278.466 100.051C278.835 100.398 279.13 100.815 279.335 101.278C279.54 101.74 279.65 102.239 279.659 102.745C279.744 105.136 279.684 107.539 279.68 109.936C279.662 110.069 279.627 110.198 279.577 110.322L244.175 110.324ZM253.108 102.288H250.589C247.6 102.288 247.51 102.384 247.587 105.424C247.616 106.599 248.069 107.063 249.249 107.069C251.413 107.081 253.577 107.069 255.738 107.069C258.712 107.069 258.85 106.927 258.746 103.947C258.704 102.764 258.263 102.307 257.078 102.289C255.76 102.273 254.435 102.289 253.111 102.287L253.108 102.288ZM265.052 106.103C265.333 106.111 265.61 106.035 265.848 105.886C266.087 105.736 266.275 105.519 266.389 105.262C266.504 105.005 266.54 104.72 266.492 104.443C266.444 104.166 266.315 103.909 266.121 103.706C265.927 103.502 265.677 103.361 265.403 103.299C265.128 103.238 264.842 103.26 264.58 103.361C264.317 103.463 264.091 103.641 263.93 103.871C263.769 104.102 263.68 104.375 263.675 104.656C263.671 105.03 263.813 105.39 264.071 105.66C264.329 105.93 264.682 106.089 265.055 106.102L265.052 106.103ZM271.341 104.715C271.345 104.437 271.267 104.164 271.116 103.93C270.966 103.697 270.749 103.513 270.494 103.402C270.239 103.292 269.956 103.259 269.683 103.309C269.409 103.358 269.156 103.488 268.956 103.681C268.756 103.874 268.617 104.122 268.558 104.393C268.499 104.665 268.521 104.948 268.622 105.207C268.724 105.466 268.899 105.689 269.127 105.849C269.355 106.008 269.625 106.096 269.903 106.102C270.276 106.101 270.634 105.956 270.903 105.698C271.171 105.439 271.329 105.087 271.344 104.714L271.341 104.715ZM276.188 104.731C276.194 104.453 276.119 104.18 275.97 103.945C275.822 103.711 275.607 103.525 275.354 103.412C275.1 103.299 274.819 103.264 274.545 103.311C274.271 103.358 274.018 103.484 273.816 103.675C273.614 103.866 273.473 104.112 273.411 104.383C273.349 104.653 273.369 104.936 273.467 105.196C273.565 105.455 273.738 105.68 273.964 105.841C274.19 106.003 274.459 106.094 274.736 106.103C275.11 106.109 275.472 105.968 275.744 105.712C276.016 105.455 276.178 105.103 276.194 104.729L276.188 104.731Z" fill="url(#paint1_linear_35553_1891)"/>
<g filter="url(#filter3_d_35553_1891)">
<path d="M261.813 136.37C266.515 136.37 270.327 132.718 270.327 128.213C270.327 123.707 266.515 120.055 261.813 120.055C257.111 120.055 253.299 123.707 253.299 128.213C253.299 132.718 257.111 136.37 261.813 136.37Z" fill="#D1D3D4"/>
</g>
<path d="M270.241 129.195C270.111 131.264 269.219 133.213 267.737 134.663C266.255 136.114 264.287 136.964 262.215 137.05C258.305 137.321 254.237 134.286 253.579 130.571C253.527 130.207 253.6 129.835 253.785 129.517C254.104 128.958 254.532 128.47 255.044 128.08C255.556 127.691 256.142 127.408 256.765 127.251C257.389 127.093 258.038 127.062 258.674 127.161C259.309 127.26 259.919 127.486 260.465 127.826C261.303 128.303 262.081 128.888 262.88 129.435C265.754 131.407 267.482 131.365 270.241 129.195Z" fill="url(#paint2_radial_35553_1891)"/>
<path d="M269.976 105.554C270.439 105.554 270.814 105.179 270.814 104.715C270.814 104.252 270.439 103.877 269.976 103.877C269.513 103.877 269.137 104.252 269.137 104.715C269.137 105.179 269.513 105.554 269.976 105.554Z" fill="white"/>
<path d="M274.805 105.554C275.268 105.554 275.643 105.179 275.643 104.715C275.643 104.252 275.268 103.877 274.805 103.877C274.342 103.877 273.966 104.252 273.966 104.715C273.966 105.179 274.342 105.554 274.805 105.554Z" fill="white"/>
<g filter="url(#filter4_d_35553_1891)">
<rect x="242" y="209" width="17" height="17" rx="8.5" fill="#34D5E5"/>
</g>
<g filter="url(#filter5_d_35553_1891)">
<rect x="260" y="8" width="17" height="17" rx="8.5" fill="#34D5E5"/>
</g>
<g filter="url(#filter6_d_35553_1891)">
<rect x="20" y="106" width="17" height="17" rx="8.5" fill="#34D5E5"/>
</g>
<g filter="url(#filter7_d_35553_1891)">
<rect x="73" y="162" width="101" height="101" rx="50.5" fill="white"/>
</g>
<path d="M134.369 235.606C135.386 235.447 136.312 234.928 136.978 234.143C137.645 233.359 138.007 232.361 138 231.332V222.636C138.033 215.882 136.043 209.273 132.284 203.661C128.526 198.05 123.172 193.693 116.913 191.153V230.209H117.071C117.818 230.226 118.529 230.532 119.055 231.063C119.58 231.594 119.879 232.308 119.888 233.055L119.899 233.929C119.905 234.391 120.093 234.831 120.422 235.155C120.751 235.479 121.195 235.659 121.656 235.657L134.369 235.606ZM126.678 229.344C126.495 229.343 126.315 229.306 126.147 229.236C125.978 229.165 125.826 229.061 125.698 228.932C125.569 228.802 125.468 228.648 125.399 228.479C125.33 228.31 125.295 228.129 125.296 227.946V207.543C125.296 207.482 125.311 207.423 125.341 207.371C125.37 207.318 125.413 207.274 125.465 207.244C125.517 207.213 125.576 207.197 125.636 207.196C125.696 207.196 125.756 207.211 125.808 207.241C127.838 208.347 129.528 209.986 130.695 211.981C131.862 213.977 132.463 216.253 132.431 218.565V227.9C132.435 228.279 132.288 228.645 132.022 228.916C131.756 229.187 131.394 229.341 131.014 229.345L126.678 229.344Z" fill="url(#paint3_linear_35553_1891)"/>
<path d="M111.71 235.06V189.656C111.71 189.545 111.739 189.436 111.793 189.339C111.846 189.242 111.924 189.16 112.018 189.101C112.112 189.042 112.22 189.009 112.331 189.003C112.441 188.997 112.552 189.02 112.652 189.068L116.912 191.155V232.192C116.912 232.953 116.61 233.682 116.072 234.22C115.534 234.758 114.805 235.06 114.044 235.06H111.71Z" fill="url(#paint4_linear_35553_1891)"/>
<g filter="url(#filter8_d_35553_1891)">
<path d="M123.171 227.876C123.625 227.641 123.803 227.082 123.568 226.628C123.333 226.174 122.774 225.997 122.32 226.232C121.866 226.467 121.689 227.025 121.924 227.479C122.159 227.933 122.717 228.111 123.171 227.876Z" fill="white"/>
</g>
<g filter="url(#filter9_d_35553_1891)">
<path d="M123.171 230.817C123.625 230.582 123.803 230.023 123.568 229.57C123.333 229.116 122.774 228.938 122.32 229.173C121.866 229.408 121.689 229.967 121.924 230.421C122.159 230.875 122.717 231.052 123.171 230.817Z" fill="white"/>
</g>
<path d="M127.336 215.507V221.513C127.336 222.056 127.121 222.577 126.737 222.96C126.353 223.344 125.833 223.56 125.29 223.56V213.46C125.833 213.46 126.353 213.675 126.737 214.059C127.121 214.443 127.336 214.964 127.336 215.507V215.507Z" fill="#D1D3D4"/>
<g filter="url(#filter10_d_35553_1891)">
<path d="M127.375 214.428V222.404C127.375 222.665 127.271 222.915 127.086 223.1C126.902 223.285 126.651 223.388 126.39 223.388V213.443C126.651 213.443 126.902 213.547 127.086 213.732C127.271 213.916 127.375 214.167 127.375 214.428V214.428Z" fill="url(#paint5_linear_35553_1891)"/>
</g>
<path fill-rule="evenodd" clip-rule="evenodd" d="M143.428 92.0071H124.056C123.586 92.0071 123.134 91.8202 122.802 91.4876C122.469 91.1549 122.282 90.7037 122.282 90.2332V65.9528C122.282 65.4823 122.469 65.0311 122.802 64.6984C123.134 64.3657 123.586 64.1788 124.056 64.1788H143.429C143.899 64.1788 144.35 64.3657 144.683 64.6984C145.016 65.0311 145.203 65.4823 145.203 65.9528V90.2356C145.202 90.7057 145.015 91.1564 144.682 91.4886C144.349 91.8208 143.898 92.0073 143.428 92.0071Z" fill="url(#paint6_linear_35553_1891)"/>
<path d="M133.952 66.9987V91.4754C133.952 91.7758 133.834 92.0194 133.69 92.0194C133.546 92.0194 133.428 91.7758 133.428 91.4754V66.9987" fill="url(#paint7_linear_35553_1891)"/>
<path d="M133.676 67.7286L140.158 62H127.195L133.676 67.7286Z" fill="url(#paint8_linear_35553_1891)"/>
<path d="M128.635 62.5468L133.676 67.0017L138.716 62.5468H128.635Z" fill="url(#paint9_linear_35553_1891)"/>
<g filter="url(#filter11_d_35553_1891)">
<path d="M132.816 66.3417L130.695 69.5183L125.219 64.9131L127.213 62.0068L132.816 66.3417Z" fill="url(#paint10_linear_35553_1891)"/>
</g>
<g filter="url(#filter12_d_35553_1891)">
<path d="M134.333 75.788C134.156 75.4453 133.734 75.3114 133.391 75.4887C133.049 75.6661 132.915 76.0877 133.092 76.4304C133.27 76.773 133.691 76.907 134.034 76.7296C134.376 76.5522 134.51 76.1306 134.333 75.788Z" fill="white"/>
</g>
<g filter="url(#filter13_d_35553_1891)">
<path d="M134.333 80.4356C134.156 80.0929 133.734 79.9589 133.391 80.1363C133.049 80.3137 132.915 80.7353 133.092 81.0779C133.27 81.4206 133.691 81.5546 134.034 81.3772C134.376 81.1998 134.51 80.7782 134.333 80.4356Z" fill="white"/>
</g>
<g filter="url(#filter14_d_35553_1891)">
<path d="M134.333 85.9593C134.156 85.6166 133.734 85.4826 133.391 85.66C133.049 85.8374 132.915 86.259 133.092 86.6016C133.27 86.9443 133.691 87.0783 134.034 86.9009C134.376 86.7235 134.51 86.3019 134.333 85.9593Z" fill="white"/>
</g>
<g filter="url(#filter15_d_35553_1891)">
<path d="M134.268 70.0526C134.091 69.71 133.669 69.576 133.326 69.7534C132.984 69.9308 132.85 70.3524 133.027 70.695C133.205 71.0377 133.626 71.1716 133.969 70.9943C134.312 70.8169 134.445 70.3953 134.268 70.0526Z" fill="white"/>
</g>
<g filter="url(#filter16_d_35553_1891)">
<path d="M140.145 62.0052L142.2 64.8696L136.819 69.5876L134.631 66.4537L140.145 62.0052Z" fill="url(#paint11_linear_35553_1891)"/>
</g>
<g filter="url(#filter17_d_35553_1891)">
<path d="M126.382 70.455H126.365C125.907 70.455 125.468 70.2732 125.145 69.9498C124.821 69.6263 124.64 69.1876 124.64 68.7301C124.64 68.2726 124.821 67.8339 125.145 67.5104C125.468 67.187 125.907 67.0052 126.365 67.0052C126.42 67.0052 126.474 67.0078 126.528 67.0129C126.662 66.7315 126.869 66.4912 127.127 66.3171C127.385 66.1429 127.686 66.0413 127.997 66.0228C128.308 66.0044 128.618 66.0697 128.896 66.212C129.173 66.3543 129.407 66.5684 129.573 66.832C129.948 66.5684 130.412 66.4645 130.864 66.5433C131.316 66.6221 131.717 66.8771 131.981 67.2521C132.245 67.6272 132.349 68.0916 132.27 68.5432C132.191 68.9948 131.936 69.3966 131.561 69.6602C131.512 70.0832 131.309 70.4734 130.991 70.7564C130.673 71.0393 130.262 71.1952 129.836 71.1941C129.737 71.1942 129.638 71.1859 129.54 71.1693C129.344 71.4585 129.065 71.6819 128.74 71.8103C128.415 71.9387 128.059 71.9661 127.718 71.889C127.377 71.8119 127.067 71.6338 126.829 71.378C126.591 71.1222 126.435 70.8005 126.382 70.455Z" fill="white"/>
</g>
<g filter="url(#filter18_d_35553_1891)">
<path d="M144.715 76.9261L144.731 76.92C145.161 76.7636 145.636 76.7843 146.05 76.9776C146.465 77.1709 146.786 77.5211 146.942 77.9509C147.099 78.3808 147.078 78.8552 146.885 79.2698C146.691 79.6844 146.341 80.0052 145.911 80.1617C145.859 80.1806 145.807 80.1968 145.755 80.2103C145.726 80.5205 145.613 80.8171 145.43 81.0691C145.247 81.3212 144.999 81.5194 144.713 81.6432C144.427 81.7669 144.113 81.8117 143.804 81.7727C143.495 81.7338 143.202 81.6126 142.956 81.4219C142.693 81.7979 142.292 82.0543 141.841 82.1347C141.39 82.2151 140.925 82.113 140.549 81.8507C140.173 81.5884 139.917 81.1875 139.836 80.7362C139.756 80.2849 139.858 79.8201 140.12 79.4441C140.021 79.03 140.078 78.5939 140.281 78.2192C140.483 77.8445 140.816 77.5575 141.216 77.4128C141.309 77.3789 141.405 77.3528 141.503 77.335C141.588 76.9961 141.774 76.6908 142.035 76.4589C142.297 76.2271 142.622 76.0795 142.969 76.0353C143.316 75.9912 143.668 76.0526 143.979 76.2114C144.291 76.3703 144.547 76.6194 144.715 76.9261Z" fill="white"/>
</g>
<g filter="url(#filter19_d_35553_1891)">
<path d="M126.258 80.4456L126.274 80.4536C126.681 80.6595 126.99 81.0186 127.132 81.4521C127.275 81.8855 127.239 82.3578 127.033 82.7649C126.827 83.1721 126.468 83.4808 126.035 83.6231C125.601 83.7654 125.129 83.7297 124.722 83.5239C124.673 83.499 124.625 83.4723 124.58 83.4436C124.334 83.6338 124.042 83.7545 123.734 83.7932C123.425 83.8319 123.112 83.7872 122.827 83.6636C122.542 83.5401 122.295 83.3423 122.112 83.0909C121.93 82.8395 121.818 82.5436 121.788 82.2343C121.336 82.3001 120.876 82.1835 120.509 81.9102C120.143 81.6368 119.9 81.2291 119.834 80.7767C119.768 80.3243 119.885 79.8642 120.158 79.4977C120.432 79.1313 120.839 78.8884 121.292 78.8225C121.525 78.468 121.881 78.2119 122.292 78.1033C122.702 77.9947 123.139 78.041 123.517 78.2336C123.605 78.2781 123.69 78.33 123.769 78.3887C124.074 78.2196 124.423 78.1463 124.77 78.1783C125.117 78.2104 125.446 78.3463 125.715 78.5684C125.984 78.7904 126.179 79.0883 126.276 79.4232C126.373 79.7581 126.367 80.1144 126.258 80.4456Z" fill="white"/>
</g>
<defs>
<filter id="filter0_d_35553_1891" x="73" y="29" width="121" height="121" filterUnits="userSpaceOnUse" color-interpolation-filters="sRGB">
<feFlood flood-opacity="0" result="BackgroundImageFix"/>
<feColorMatrix in="SourceAlpha" type="matrix" values="0 0 0 0 0 0 0 0 0 0 0 0 0 0 0 0 0 0 127 0" result="hardAlpha"/>
<feOffset dy="12"/>
<feGaussianBlur stdDeviation="10"/>
<feColorMatrix type="matrix" values="0 0 0 0 0.000711799 0 0 0 0 0.127234 0 0 0 0 0.170833 0 0 0 0.01 0"/>
<feBlend mode="normal" in2="BackgroundImageFix" result="effect1_dropShadow_35553_1891"/>
<feBlend mode="normal" in="SourceGraphic" in2="effect1_dropShadow_35553_1891" result="shape"/>
</filter>
<filter id="filter1_d_35553_1891" x="192" y="64" width="141" height="141" filterUnits="userSpaceOnUse" color-interpolation-filters="sRGB">
<feFlood flood-opacity="0" result="BackgroundImageFix"/>
<feColorMatrix in="SourceAlpha" type="matrix" values="0 0 0 0 0 0 0 0 0 0 0 0 0 0 0 0 0 0 127 0" result="hardAlpha"/>
<feOffset dy="12"/>
<feGaussianBlur stdDeviation="10"/>
<feColorMatrix type="matrix" values="0 0 0 0 0.000711799 0 0 0 0 0.127234 0 0 0 0 0.170833 0 0 0 0.01 0"/>
<feBlend mode="normal" in2="BackgroundImageFix" result="effect1_dropShadow_35553_1891"/>
<feBlend mode="normal" in="SourceGraphic" in2="effect1_dropShadow_35553_1891" result="shape"/>
</filter>
<filter id="filter2_d_35553_1891" x="250.101" y="118.411" width="26.932" height="26.9318" filterUnits="userSpaceOnUse" color-interpolation-filters="sRGB">
<feFlood flood-opacity="0" result="BackgroundImageFix"/>
<feColorMatrix in="SourceAlpha" type="matrix" values="0 0 0 0 0 0 0 0 0 0 0 0 0 0 0 0 0 0 127 0" result="hardAlpha"/>
<feOffset dx="1.68675" dy="3.37349"/>
<feGaussianBlur stdDeviation="1.68675"/>
<feColorMatrix type="matrix" values="0 0 0 0 0.00392157 0 0 0 0 0.133333 0 0 0 0 0.239216 0 0 0 0.212 0"/>
<feBlend mode="normal" in2="BackgroundImageFix" result="effect1_dropShadow_35553_1891"/>
<feBlend mode="normal" in="SourceGraphic" in2="effect1_dropShadow_35553_1891" result="shape"/>
</filter>
<filter id="filter3_d_35553_1891" x="252.456" y="120.055" width="22.0876" height="22.2188" filterUnits="userSpaceOnUse" color-interpolation-filters="sRGB">
<feFlood flood-opacity="0" result="BackgroundImageFix"/>
<feColorMatrix in="SourceAlpha" type="matrix" values="0 0 0 0 0 0 0 0 0 0 0 0 0 0 0 0 0 0 127 0" result="hardAlpha"/>
<feOffset dx="1.68675" dy="3.37349"/>
<feGaussianBlur stdDeviation="1.26506"/>
<feColorMatrix type="matrix" values="0 0 0 0 0 0 0 0 0 0.305882 0 0 0 0 0.556863 0 0 0 0.561 0"/>
<feBlend mode="normal" in2="BackgroundImageFix" result="effect1_dropShadow_35553_1891"/>
<feBlend mode="normal" in="SourceGraphic" in2="effect1_dropShadow_35553_1891" result="shape"/>
</filter>
<filter id="filter4_d_35553_1891" x="222" y="201" width="57" height="57" filterUnits="userSpaceOnUse" color-interpolation-filters="sRGB">
<feFlood flood-opacity="0" result="BackgroundImageFix"/>
<feColorMatrix in="SourceAlpha" type="matrix" values="0 0 0 0 0 0 0 0 0 0 0 0 0 0 0 0 0 0 127 0" result="hardAlpha"/>
<feOffset dy="12"/>
<feGaussianBlur stdDeviation="10"/>
<feColorMatrix type="matrix" values="0 0 0 0 0.000711799 0 0 0 0 0.127234 0 0 0 0 0.170833 0 0 0 0.01 0"/>
<feBlend mode="normal" in2="BackgroundImageFix" result="effect1_dropShadow_35553_1891"/>
<feBlend mode="normal" in="SourceGraphic" in2="effect1_dropShadow_35553_1891" result="shape"/>
</filter>
<filter id="filter5_d_35553_1891" x="240" y="0" width="57" height="57" filterUnits="userSpaceOnUse" color-interpolation-filters="sRGB">
<feFlood flood-opacity="0" result="BackgroundImageFix"/>
<feColorMatrix in="SourceAlpha" type="matrix" values="0 0 0 0 0 0 0 0 0 0 0 0 0 0 0 0 0 0 127 0" result="hardAlpha"/>
<feOffset dy="12"/>
<feGaussianBlur stdDeviation="10"/>
<feColorMatrix type="matrix" values="0 0 0 0 0.000711799 0 0 0 0 0.127234 0 0 0 0 0.170833 0 0 0 0.01 0"/>
<feBlend mode="normal" in2="BackgroundImageFix" result="effect1_dropShadow_35553_1891"/>
<feBlend mode="normal" in="SourceGraphic" in2="effect1_dropShadow_35553_1891" result="shape"/>
</filter>
<filter id="filter6_d_35553_1891" x="0" y="98" width="57" height="57" filterUnits="userSpaceOnUse" color-interpolation-filters="sRGB">
<feFlood flood-opacity="0" result="BackgroundImageFix"/>
<feColorMatrix in="SourceAlpha" type="matrix" values="0 0 0 0 0 0 0 0 0 0 0 0 0 0 0 0 0 0 127 0" result="hardAlpha"/>
<feOffset dy="12"/>
<feGaussianBlur stdDeviation="10"/>
<feColorMatrix type="matrix" values="0 0 0 0 0.000711799 0 0 0 0 0.127234 0 0 0 0 0.170833 0 0 0 0.01 0"/>
<feBlend mode="normal" in2="BackgroundImageFix" result="effect1_dropShadow_35553_1891"/>
<feBlend mode="normal" in="SourceGraphic" in2="effect1_dropShadow_35553_1891" result="shape"/>
</filter>
<filter id="filter7_d_35553_1891" x="53" y="154" width="141" height="141" filterUnits="userSpaceOnUse" color-interpolation-filters="sRGB">
<feFlood flood-opacity="0" result="BackgroundImageFix"/>
<feColorMatrix in="SourceAlpha" type="matrix" values="0 0 0 0 0 0 0 0 0 0 0 0 0 0 0 0 0 0 127 0" result="hardAlpha"/>
<feOffset dy="12"/>
<feGaussianBlur stdDeviation="10"/>
<feColorMatrix type="matrix" values="0 0 0 0 0.000711799 0 0 0 0 0.127234 0 0 0 0 0.170833 0 0 0 0.01 0"/>
<feBlend mode="normal" in2="BackgroundImageFix" result="effect1_dropShadow_35553_1891"/>
<feBlend mode="normal" in="SourceGraphic" in2="effect1_dropShadow_35553_1891" result="shape"/>
</filter>
<filter id="filter8_d_35553_1891" x="120.976" y="225.285" width="5.22506" height="5.22493" filterUnits="userSpaceOnUse" color-interpolation-filters="sRGB">
<feFlood flood-opacity="0" result="BackgroundImageFix"/>
<feColorMatrix in="SourceAlpha" type="matrix" values="0 0 0 0 0 0 0 0 0 0 0 0 0 0 0 0 0 0 127 0" result="hardAlpha"/>
<feOffset dx="0.843373" dy="0.843373"/>
<feGaussianBlur stdDeviation="0.843373"/>
<feColorMatrix type="matrix" values="0 0 0 0 0.00784314 0 0 0 0 0.227451 0 0 0 0 0.376471 0 0 0 0.341 0"/>
<feBlend mode="normal" in2="BackgroundImageFix" result="effect1_dropShadow_35553_1891"/>
<feBlend mode="normal" in="SourceGraphic" in2="effect1_dropShadow_35553_1891" result="shape"/>
</filter>
<filter id="filter9_d_35553_1891" x="120.976" y="228.226" width="5.22506" height="5.22493" filterUnits="userSpaceOnUse" color-interpolation-filters="sRGB">
<feFlood flood-opacity="0" result="BackgroundImageFix"/>
<feColorMatrix in="SourceAlpha" type="matrix" values="0 0 0 0 0 0 0 0 0 0 0 0 0 0 0 0 0 0 127 0" result="hardAlpha"/>
<feOffset dx="0.843373" dy="0.843373"/>
<feGaussianBlur stdDeviation="0.843373"/>
<feColorMatrix type="matrix" values="0 0 0 0 0.00784314 0 0 0 0 0.227451 0 0 0 0 0.376471 0 0 0 0.341 0"/>
<feBlend mode="normal" in2="BackgroundImageFix" result="effect1_dropShadow_35553_1891"/>
<feBlend mode="normal" in="SourceGraphic" in2="effect1_dropShadow_35553_1891" result="shape"/>
</filter>
<filter id="filter10_d_35553_1891" x="125.547" y="211.757" width="4.35738" height="13.3182" filterUnits="userSpaceOnUse" color-interpolation-filters="sRGB">
<feFlood flood-opacity="0" result="BackgroundImageFix"/>
<feColorMatrix in="SourceAlpha" type="matrix" values="0 0 0 0 0 0 0 0 0 0 0 0 0 0 0 0 0 0 127 0" result="hardAlpha"/>
<feOffset dx="0.843373"/>
<feGaussianBlur stdDeviation="0.843373"/>
<feColorMatrix type="matrix" values="0 0 0 0 0.00392157 0 0 0 0 0.133333 0 0 0 0 0.239216 0 0 0 0.302 0"/>
<feBlend mode="normal" in2="BackgroundImageFix" result="effect1_dropShadow_35553_1891"/>
<feBlend mode="normal" in="SourceGraphic" in2="effect1_dropShadow_35553_1891" result="shape"/>
</filter>
<filter id="filter11_d_35553_1891" x="123.532" y="61.1635" width="12.6574" height="12.5717" filterUnits="userSpaceOnUse" color-interpolation-filters="sRGB">
<feFlood flood-opacity="0" result="BackgroundImageFix"/>
<feColorMatrix in="SourceAlpha" type="matrix" values="0 0 0 0 0 0 0 0 0 0 0 0 0 0 0 0 0 0 127 0" result="hardAlpha"/>
<feOffset dx="0.843373" dy="1.68675"/>
<feGaussianBlur stdDeviation="1.26506"/>
<feColorMatrix type="matrix" values="0 0 0 0 0.00392157 0 0 0 0 0.133333 0 0 0 0 0.239216 0 0 0 0.271 0"/>
<feBlend mode="normal" in2="BackgroundImageFix" result="effect1_dropShadow_35553_1891"/>
<feBlend mode="normal" in="SourceGraphic" in2="effect1_dropShadow_35553_1891" result="shape"/>
</filter>
<filter id="filter12_d_35553_1891" x="132.592" y="74.9887" width="3.92807" height="3.9277" filterUnits="userSpaceOnUse" color-interpolation-filters="sRGB">
<feFlood flood-opacity="0" result="BackgroundImageFix"/>
<feColorMatrix in="SourceAlpha" type="matrix" values="0 0 0 0 0 0 0 0 0 0 0 0 0 0 0 0 0 0 127 0" result="hardAlpha"/>
<feOffset dx="0.843373" dy="0.843373"/>
<feGaussianBlur stdDeviation="0.63253"/>
<feColorMatrix type="matrix" values="0 0 0 0 0.00784314 0 0 0 0 0.141176 0 0 0 0 0.376471 0 0 0 0.271 0"/>
<feBlend mode="normal" in2="BackgroundImageFix" result="effect1_dropShadow_35553_1891"/>
<feBlend mode="normal" in="SourceGraphic" in2="effect1_dropShadow_35553_1891" result="shape"/>
</filter>
<filter id="filter13_d_35553_1891" x="132.592" y="79.6363" width="3.92807" height="3.9277" filterUnits="userSpaceOnUse" color-interpolation-filters="sRGB">
<feFlood flood-opacity="0" result="BackgroundImageFix"/>
<feColorMatrix in="SourceAlpha" type="matrix" values="0 0 0 0 0 0 0 0 0 0 0 0 0 0 0 0 0 0 127 0" result="hardAlpha"/>
<feOffset dx="0.843373" dy="0.843373"/>
<feGaussianBlur stdDeviation="0.63253"/>
<feColorMatrix type="matrix" values="0 0 0 0 0.00784314 0 0 0 0 0.141176 0 0 0 0 0.376471 0 0 0 0.271 0"/>
<feBlend mode="normal" in2="BackgroundImageFix" result="effect1_dropShadow_35553_1891"/>
<feBlend mode="normal" in="SourceGraphic" in2="effect1_dropShadow_35553_1891" result="shape"/>
</filter>
<filter id="filter14_d_35553_1891" x="132.592" y="85.16" width="3.92807" height="3.9277" filterUnits="userSpaceOnUse" color-interpolation-filters="sRGB">
<feFlood flood-opacity="0" result="BackgroundImageFix"/>
<feColorMatrix in="SourceAlpha" type="matrix" values="0 0 0 0 0 0 0 0 0 0 0 0 0 0 0 0 0 0 127 0" result="hardAlpha"/>
<feOffset dx="0.843373" dy="0.843373"/>
<feGaussianBlur stdDeviation="0.63253"/>
<feColorMatrix type="matrix" values="0 0 0 0 0.00784314 0 0 0 0 0.141176 0 0 0 0 0.376471 0 0 0 0.271 0"/>
<feBlend mode="normal" in2="BackgroundImageFix" result="effect1_dropShadow_35553_1891"/>
<feBlend mode="normal" in="SourceGraphic" in2="effect1_dropShadow_35553_1891" result="shape"/>
</filter>
<filter id="filter15_d_35553_1891" x="132.527" y="69.2534" width="3.92807" height="3.9277" filterUnits="userSpaceOnUse" color-interpolation-filters="sRGB">
<feFlood flood-opacity="0" result="BackgroundImageFix"/>
<feColorMatrix in="SourceAlpha" type="matrix" values="0 0 0 0 0 0 0 0 0 0 0 0 0 0 0 0 0 0 127 0" result="hardAlpha"/>
<feOffset dx="0.843373" dy="0.843373"/>
<feGaussianBlur stdDeviation="0.63253"/>
<feColorMatrix type="matrix" values="0 0 0 0 0.00784314 0 0 0 0 0.141176 0 0 0 0 0.376471 0 0 0 0.271 0"/>
<feBlend mode="normal" in2="BackgroundImageFix" result="effect1_dropShadow_35553_1891"/>
<feBlend mode="normal" in="SourceGraphic" in2="effect1_dropShadow_35553_1891" result="shape"/>
</filter>
<filter id="filter16_d_35553_1891" x="132.944" y="61.1619" width="12.6291" height="12.6426" filterUnits="userSpaceOnUse" color-interpolation-filters="sRGB">
<feFlood flood-opacity="0" result="BackgroundImageFix"/>
<feColorMatrix in="SourceAlpha" type="matrix" values="0 0 0 0 0 0 0 0 0 0 0 0 0 0 0 0 0 0 127 0" result="hardAlpha"/>
<feOffset dx="0.843373" dy="1.68675"/>
<feGaussianBlur stdDeviation="1.26506"/>
<feColorMatrix type="matrix" values="0 0 0 0 0.00392157 0 0 0 0 0.133333 0 0 0 0 0.239216 0 0 0 0.271 0"/>
<feBlend mode="normal" in2="BackgroundImageFix" result="effect1_dropShadow_35553_1891"/>
<feBlend mode="normal" in="SourceGraphic" in2="effect1_dropShadow_35553_1891" result="shape"/>
</filter>
<filter id="filter17_d_35553_1891" x="120.423" y="60.1162" width="22.8365" height="21.0928" filterUnits="userSpaceOnUse" color-interpolation-filters="sRGB">
<feFlood flood-opacity="0" result="BackgroundImageFix"/>
<feColorMatrix in="SourceAlpha" type="matrix" values="0 0 0 0 0 0 0 0 0 0 0 0 0 0 0 0 0 0 127 0" result="hardAlpha"/>
<feOffset dx="3.37349" dy="1.68675"/>
<feGaussianBlur stdDeviation="3.79518"/>
<feColorMatrix type="matrix" values="0 0 0 0 0 0 0 0 0 0 0 0 0 0 0 0 0 0 0.412 0"/>
<feBlend mode="normal" in2="BackgroundImageFix" result="effect1_dropShadow_35553_1891"/>
<feBlend mode="normal" in="SourceGraphic" in2="effect1_dropShadow_35553_1891" result="shape"/>
</filter>
<filter id="filter18_d_35553_1891" x="130.532" y="71.8045" width="20.7313" height="19.6341" filterUnits="userSpaceOnUse" color-interpolation-filters="sRGB">
<feFlood flood-opacity="0" result="BackgroundImageFix"/>
<feColorMatrix in="SourceAlpha" type="matrix" values="0 0 0 0 0 0 0 0 0 0 0 0 0 0 0 0 0 0 127 0" result="hardAlpha"/>
<feOffset dx="-2.53012" dy="2.53012"/>
<feGaussianBlur stdDeviation="3.37349"/>
<feColorMatrix type="matrix" values="0 0 0 0 0 0 0 0 0 0 0 0 0 0 0 0 0 0 0.271 0"/>
<feBlend mode="normal" in2="BackgroundImageFix" result="effect1_dropShadow_35553_1891"/>
<feBlend mode="normal" in="SourceGraphic" in2="effect1_dropShadow_35553_1891" result="shape"/>
</filter>
<filter id="filter19_d_35553_1891" x="115.6" y="72.1422" width="22.5826" height="20.9417" filterUnits="userSpaceOnUse" color-interpolation-filters="sRGB">
<feFlood flood-opacity="0" result="BackgroundImageFix"/>
<feColorMatrix in="SourceAlpha" type="matrix" values="0 0 0 0 0 0 0 0 0 0 0 0 0 0 0 0 0 0 127 0" result="hardAlpha"/>
<feOffset dx="3.37349" dy="1.68675"/>
<feGaussianBlur stdDeviation="3.79518"/>
<feColorMatrix type="matrix" values="0 0 0 0 0 0 0 0 0 0 0 0 0 0 0 0 0 0 0.412 0"/>
<feBlend mode="normal" in2="BackgroundImageFix" result="effect1_dropShadow_35553_1891"/>
<feBlend mode="normal" in="SourceGraphic" in2="effect1_dropShadow_35553_1891" result="shape"/>
</filter>
<linearGradient id="paint0_linear_35553_1891" x1="261.885" y1="144.525" x2="261.885" y2="109.744" gradientUnits="userSpaceOnUse">
<stop stop-color="#019EED"/>
<stop offset="1" stop-color="#2EB3F5"/>
</linearGradient>
<linearGradient id="paint1_linear_35553_1891" x1="243.673" y1="98.2753" x2="249.369" y2="119.812" gradientUnits="userSpaceOnUse">
<stop stop-color="#2AD2FF"/>
<stop offset="1" stop-color="#72E3C6"/>
</linearGradient>
<radialGradient id="paint2_radial_35553_1891" cx="0" cy="0" r="1" gradientUnits="userSpaceOnUse" gradientTransform="translate(157.322 126.935) scale(11.1821 11.1879)">
<stop stop-color="#00D8FF"/>
<stop offset="1" stop-color="#0092FF"/>
</radialGradient>
<linearGradient id="paint3_linear_35553_1891" x1="139.118" y1="213.405" x2="113.982" y2="213.405" gradientUnits="userSpaceOnUse">
<stop stop-color="#019EED"/>
<stop offset="1" stop-color="#2EB3F5"/>
</linearGradient>
<linearGradient id="paint4_linear_35553_1891" x1="107.289" y1="188.772" x2="123.468" y2="189.486" gradientUnits="userSpaceOnUse">
<stop stop-color="#2AD2FF"/>
<stop offset="1" stop-color="#72E3C6"/>
</linearGradient>
<linearGradient id="paint5_linear_35553_1891" x1="129.661" y1="218.416" x2="126.146" y2="218.416" gradientUnits="userSpaceOnUse">
<stop stop-color="#019EED"/>
<stop offset="1" stop-color="#2EB3F5"/>
</linearGradient>
<linearGradient id="paint6_linear_35553_1891" x1="133.742" y1="93.3429" x2="133.742" y2="63.2883" gradientUnits="userSpaceOnUse">
<stop stop-color="#019EED"/>
<stop offset="1" stop-color="#2EB3F5"/>
</linearGradient>
<linearGradient id="paint7_linear_35553_1891" x1="133.428" y1="79.509" x2="133.952" y2="79.509" gradientUnits="userSpaceOnUse">
<stop stop-color="#019EED"/>
<stop offset="1" stop-color="#2EB3F5"/>
</linearGradient>
<linearGradient id="paint8_linear_35553_1891" x1="133.637" y1="58.5571" x2="133.665" y2="70.9999" gradientUnits="userSpaceOnUse">
<stop stop-color="#2AD2FF"/>
<stop offset="1" stop-color="#72E3C6"/>
</linearGradient>
<linearGradient id="paint9_linear_35553_1891" x1="128.635" y1="64.7742" x2="138.716" y2="64.7742" gradientUnits="userSpaceOnUse">
<stop stop-color="#019EED"/>
<stop offset="1" stop-color="#2EB3F5"/>
</linearGradient>
<linearGradient id="paint10_linear_35553_1891" x1="128.934" y1="58.6117" x2="129.075" y2="71.0506" gradientUnits="userSpaceOnUse">
<stop stop-color="#2AD2FF"/>
<stop offset="1" stop-color="#72E3C6"/>
</linearGradient>
<linearGradient id="paint11_linear_35553_1891" x1="119.667" y1="58.6463" x2="119.819" y2="71.0889" gradientUnits="userSpaceOnUse">
<stop stop-color="#2AD2FF"/>
<stop offset="1" stop-color="#72E3C6"/>
</linearGradient>
</defs>
</svg>
