<svg width="187" height="34" viewBox="0 0 187 34" fill="none" xmlns="http://www.w3.org/2000/svg">
<path d="M6.32294 20.9693H15.3603V26.5363H0.539062V1.23184H6.32294V20.9693Z" fill="#567177"/>
<path d="M30.6726 8.46169H36.095V26.5363H30.6726V24.8373C29.3953 26.3074 27.5999 27.0424 25.2863 27.0424C22.9005 27.0424 20.8641 26.1266 19.1771 24.2951C17.4901 22.4394 16.6467 20.1741 16.6467 17.499C16.6467 14.824 17.4901 12.5707 19.1771 10.7391C20.8641 8.88343 22.9005 7.95561 25.2863 7.95561C27.5999 7.95561 29.3953 8.69064 30.6726 10.1607V8.46169ZM23.262 20.7163C24.0573 21.5116 25.0935 21.9092 26.3708 21.9092C27.6481 21.9092 28.6844 21.5116 29.4797 20.7163C30.2749 19.921 30.6726 18.8486 30.6726 17.499C30.6726 16.1494 30.2749 15.077 29.4797 14.2817C28.6844 13.4864 27.6481 13.0888 26.3708 13.0888C25.0935 13.0888 24.0573 13.4864 23.262 14.2817C22.4667 15.077 22.0691 16.1494 22.0691 17.499C22.0691 18.8486 22.4667 19.921 23.262 20.7163Z" fill="#567177"/>
<path d="M51.7493 8.46169H57.1717V26.5363H51.7493V24.8373C50.6648 26.3074 48.9417 27.0424 46.5799 27.0424C44.652 27.0424 43.0373 26.3797 41.7359 25.0542C40.4587 23.7287 39.82 21.8972 39.82 19.5595V8.46169H45.2424V18.7642C45.2424 19.8246 45.5316 20.644 46.11 21.2224C46.7125 21.7767 47.4716 22.0538 48.3874 22.0538C49.4237 22.0538 50.2431 21.7405 50.8456 21.1139C51.4481 20.4873 51.7493 19.5595 51.7493 18.3304V8.46169Z" fill="#567177"/>
<path d="M71.7401 7.95561C73.6681 7.95561 75.2707 8.61834 76.548 9.94381C77.8493 11.2693 78.5 13.1008 78.5 15.4385V26.5363H73.0776V16.2338C73.0776 15.1734 72.7764 14.3661 72.1739 13.8118C71.5955 13.2334 70.8484 12.9442 69.9326 12.9442C68.8964 12.9442 68.077 13.2575 67.4745 13.8841C66.872 14.5107 66.5708 15.4385 66.5708 16.6676V26.5363H61.1484V8.46169H66.5708V10.1607C67.6553 8.69064 69.3784 7.95561 71.7401 7.95561Z" fill="#567177"/>
<path d="M95.3459 1.23184H100.768V26.5363H95.3459V24.8373C94.0686 26.3074 92.2732 27.0424 89.9596 27.0424C87.5738 27.0424 85.5374 26.1266 83.8504 24.2951C82.1634 22.4394 81.32 20.1741 81.32 17.499C81.32 14.824 82.1634 12.5707 83.8504 10.7391C85.5374 8.88343 87.5738 7.95561 89.9596 7.95561C92.2732 7.95561 94.0686 8.69064 95.3459 10.1607V1.23184ZM87.9353 20.7163C88.7306 21.5116 89.7668 21.9092 91.0441 21.9092C92.3214 21.9092 93.3577 21.5116 94.1529 20.7163C94.9482 19.921 95.3459 18.8486 95.3459 17.499C95.3459 16.1494 94.9482 15.077 94.1529 14.2817C93.3577 13.4864 92.3214 13.0888 91.0441 13.0888C89.7668 13.0888 88.7306 13.4864 87.9353 14.2817C87.14 15.077 86.7423 16.1494 86.7423 17.499C86.7423 18.8486 87.14 19.921 87.9353 20.7163Z" fill="#567177"/>
<path d="M110.169 11.679C110.506 10.5222 111.181 9.64257 112.193 9.04008C113.229 8.41349 114.362 8.1002 115.591 8.1002V14.2456C114.266 14.0287 113.025 14.2576 111.868 14.9324C110.735 15.5831 110.169 16.7278 110.169 18.3666V26.5363H104.746V8.46169H110.169V11.679Z" fill="#567177"/>
<path d="M129.866 8.46169H135.65L129.468 25.9941C128.456 28.8378 127.119 30.8742 125.456 32.1033C123.817 33.3324 121.72 33.8867 119.166 33.7662V28.7053C120.419 28.7053 121.383 28.4763 122.058 28.0184C122.732 27.5847 123.275 26.8135 123.684 25.7049L116.491 8.46169H122.455L126.468 19.5234L129.866 8.46169Z" fill="#567177"/>
<path d="M148.456 7.95561C150.842 7.95561 152.879 8.88343 154.566 10.7391C156.253 12.5707 157.096 14.824 157.096 17.499C157.096 20.1741 156.253 22.4394 154.566 24.2951C152.879 26.1266 150.842 27.0424 148.456 27.0424C146.143 27.0424 144.347 26.3074 143.07 24.8373V26.5363H137.648V1.23184H143.07V10.1607C144.347 8.69064 146.143 7.95561 148.456 7.95561ZM144.263 20.7163C145.083 21.5116 146.119 21.9092 147.372 21.9092C148.625 21.9092 149.649 21.5116 150.445 20.7163C151.264 19.921 151.674 18.8486 151.674 17.499C151.674 16.1494 151.264 15.077 150.445 14.2817C149.649 13.4864 148.625 13.0888 147.372 13.0888C146.119 13.0888 145.083 13.4864 144.263 14.2817C143.468 15.077 143.07 16.1494 143.07 17.499C143.07 18.8486 143.468 19.921 144.263 20.7163Z" fill="#567177"/>
<path d="M165.159 5.93124C164.533 6.55783 163.773 6.87113 162.882 6.87113C161.99 6.87113 161.219 6.55783 160.568 5.93124C159.942 5.28056 159.628 4.50937 159.628 3.61769C159.628 2.72601 159.942 1.96688 160.568 1.34029C161.219 0.689601 161.99 0.364258 162.882 0.364258C163.773 0.364258 164.533 0.689601 165.159 1.34029C165.81 1.96688 166.135 2.72601 166.135 3.61769C166.135 4.50937 165.81 5.28056 165.159 5.93124ZM160.171 26.5363V8.46169H165.593V26.5363H160.171Z" fill="#567177"/>
<path d="M180.153 7.95561C182.081 7.95561 183.683 8.61834 184.96 9.94381C186.262 11.2693 186.913 13.1008 186.913 15.4385V26.5363H181.49V16.2338C181.49 15.1734 181.189 14.3661 180.586 13.8118C180.008 13.2334 179.261 12.9442 178.345 12.9442C177.309 12.9442 176.489 13.2575 175.887 13.8841C175.285 14.5107 174.983 15.4385 174.983 16.6676V26.5363H169.561V8.46169H174.983V10.1607C176.068 8.69064 177.791 7.95561 180.153 7.95561Z" fill="#567177"/>
</svg>
