<svg width="317" height="399" viewBox="0 0 317 399" fill="none" xmlns="http://www.w3.org/2000/svg">
<g opacity="0.3" clip-path="url(#clip0_35575_9582)">
<g opacity="0.8">
<path d="M-191.274 52.6912C-187.875 52.8194 -184.539 53.9733 -181.718 55.9604L271.72 372.813C275.696 375.569 278.326 379.736 279.224 384.544C280.057 389.351 279.031 394.159 276.273 398.133L-40.0424 852.611C-43.634 857.739 -49.4704 860.624 -55.7556 860.367C-59.1548 860.239 -62.4898 859.085 -65.3118 857.098L-518.749 540.246C-522.725 537.489 -525.355 533.323 -526.253 528.515C-527.087 523.707 -526.06 518.9 -523.303 514.926L-206.987 60.5116C-203.395 55.3835 -197.559 52.4348 -191.274 52.6912ZM-55.6915 858.893C-49.9193 859.149 -44.5319 856.457 -41.261 851.778L275.055 397.3C277.62 393.646 278.582 389.223 277.813 384.8C277.043 380.377 274.606 376.595 270.95 374.031L-182.487 57.1783C-185.117 55.3835 -188.131 54.3579 -191.274 54.1656C-197.046 53.9092 -202.433 56.6014 -205.704 61.2808L-522.02 515.759C-524.585 519.413 -525.547 523.836 -524.778 528.259C-524.008 532.682 -521.571 536.464 -517.915 539.028L-64.478 855.88C-61.9126 857.739 -58.8341 858.765 -55.6915 858.893Z" fill="white"/>
<path d="M-173.764 50.3192C-170.365 50.4474 -167.03 51.6012 -164.272 53.6524L273.773 368.133C277.621 370.89 280.186 374.992 280.956 379.671C281.725 384.351 280.635 389.03 277.877 392.876L-36.0014 831.906C-39.5289 836.778 -45.1728 839.534 -51.2015 839.278C-54.6007 839.149 -57.9357 837.995 -60.6936 835.944L-498.738 521.463C-506.691 515.758 -508.487 504.669 -502.843 496.72L-188.9 57.6908C-185.437 52.8191 -179.793 50.0628 -173.764 50.3192ZM-51.1374 837.803C-45.6217 838.06 -40.4267 835.496 -37.22 831.008L276.723 391.979C279.224 388.453 280.25 384.159 279.545 379.864C278.839 375.569 276.53 371.787 273.003 369.287L-165.042 54.8063C-167.607 52.9473 -170.622 51.9217 -173.764 51.7935C-179.28 51.5371 -184.475 54.1012 -187.682 58.5882L-501.56 497.618C-506.755 504.925 -505.088 515.117 -497.84 520.31L-59.7956 834.79C-57.2944 836.649 -54.28 837.675 -51.1374 837.803Z" fill="white"/>
<path d="M-156.191 47.8824C-152.792 48.0106 -149.521 49.1644 -146.699 51.2157L275.953 363.325C283.585 368.966 285.253 379.863 279.609 387.491L-31.8964 811.136C-35.2956 815.815 -40.8113 818.444 -46.5835 818.187C-49.9827 818.059 -53.2535 816.905 -56.0755 814.854L-478.728 502.745C-482.447 499.989 -484.885 495.95 -485.526 491.399C-486.231 486.848 -485.077 482.297 -482.383 478.515L-170.878 54.8695C-167.479 50.2542 -161.963 47.626 -156.191 47.8824ZM-46.5193 816.713C-41.2602 816.969 -36.1935 814.533 -33.115 810.303L278.391 386.658C283.585 379.606 282.046 369.671 275.055 364.478L-147.597 52.3695C-150.162 50.5106 -153.112 49.4208 -156.255 49.2926C-161.514 49.0362 -166.581 51.4721 -169.659 55.7028L-481.165 479.348C-483.666 482.745 -484.692 486.912 -484.051 491.143C-483.409 495.309 -481.229 499.027 -477.83 501.527L-55.1776 813.636C-52.6763 815.495 -49.6619 816.585 -46.5193 816.713Z" fill="white"/>
<path d="M-138.682 45.4477C-135.283 45.5759 -132.012 46.7938 -129.254 48.845L278.006 358.518C281.597 361.21 283.906 365.185 284.483 369.672C285.125 374.159 283.906 378.582 281.213 382.172L-27.9199 790.368C-31.255 794.791 -36.5782 797.291 -42.0939 797.035C-45.493 796.907 -48.7639 795.689 -51.5218 793.638L-458.781 483.964C-466.157 478.323 -467.632 467.747 -461.988 460.311L-152.856 52.1142C-149.456 47.6912 -144.197 45.1913 -138.682 45.4477ZM-41.9656 795.625C-36.8989 795.817 -32.0887 793.573 -29.0102 789.535L280.122 381.338C282.624 378.069 283.65 374.031 283.137 369.928C282.559 365.826 280.443 362.236 277.172 359.736L-130.152 49.9989C-132.653 48.0758 -135.603 46.9861 -138.746 46.8579C-143.813 46.6656 -148.623 48.9091 -151.701 52.9475L-460.834 461.144C-465.965 467.939 -464.618 477.618 -457.883 482.746L-50.6239 792.42C-48.0585 794.407 -45.1082 795.432 -41.9656 795.625Z" fill="white"/>
<path d="M-121.109 43.0091C-117.71 43.1373 -114.439 44.3552 -111.746 46.4706L280.122 353.772C283.585 356.464 285.766 360.374 286.279 364.733C286.792 369.092 285.637 373.387 282.944 376.848L-23.816 769.661C-27.0869 773.828 -32.1536 776.199 -37.4768 775.943C-40.876 775.815 -44.1469 774.597 -46.8406 772.481L-438.708 465.18C-442.171 462.488 -444.352 458.578 -444.865 454.219C-445.378 449.86 -444.223 445.565 -441.53 442.104L-134.77 49.291C-131.499 45.1244 -126.433 42.7527 -121.109 43.0091ZM-37.4127 774.469C-32.6025 774.661 -27.9206 772.546 -24.9704 768.764L281.789 375.951C284.226 372.81 285.317 368.9 284.868 364.926C284.355 360.951 282.366 357.426 279.224 354.926L-112.644 47.6244C-115.081 45.7014 -118.095 44.6116 -121.174 44.4834C-125.984 44.2911 -130.666 46.4065 -133.616 50.1884L-440.375 443.001C-442.812 446.142 -443.903 450.052 -443.454 454.026C-442.941 458.001 -440.953 461.526 -437.81 464.026L-45.9427 771.328C-43.5056 773.251 -40.5553 774.34 -37.4127 774.469Z" fill="white"/>
<path d="M-103.601 40.5745C-100.201 40.7027 -96.9305 41.9207 -94.301 44.1001L282.174 349.03C289.036 354.607 290.062 364.67 284.547 371.529L-19.8398 748.893C-22.9824 752.804 -27.9208 755.047 -32.9875 754.855C-36.3867 754.727 -39.6576 753.509 -42.3513 751.329L-418.826 446.4C-422.161 443.707 -424.213 439.861 -424.662 435.631C-425.111 431.4 -423.893 427.233 -421.199 423.9L-116.748 46.4718C-113.542 42.5617 -108.667 40.3181 -103.601 40.5745ZM-32.8592 753.38C-28.2415 753.573 -23.8162 751.586 -20.9301 747.996L283.456 370.632C288.459 364.414 287.497 355.183 281.276 350.184L-95.1989 45.2539C-97.636 43.2668 -100.586 42.1771 -103.665 42.0489C-108.283 41.8566 -112.708 43.8437 -115.594 47.4334L-419.98 424.797C-422.418 427.81 -423.508 431.592 -423.123 435.502C-422.738 439.348 -420.814 442.874 -417.8 445.31L-41.3251 750.24C-38.888 752.163 -35.9378 753.252 -32.8592 753.38Z" fill="white"/>
<path d="M-86.0271 38.1387C-82.6279 38.2669 -79.357 39.5489 -76.7274 41.7283L284.355 344.286C287.562 346.979 289.486 350.696 289.871 354.863C290.255 359.03 288.973 363.068 286.279 366.273L-15.6705 728.189C-18.8132 731.971 -23.4309 733.958 -28.3052 733.766C-31.7685 733.637 -34.9753 732.355 -37.6049 730.176L-398.687 427.618C-405.293 422.105 -406.127 412.234 -400.611 405.695L-98.6617 43.7155C-95.5191 39.9335 -90.9655 37.8823 -86.0271 38.1387ZM-28.2411 732.291C-23.8157 732.484 -19.6469 730.625 -16.825 727.227L285.189 365.311C287.626 362.427 288.78 358.773 288.395 354.991C288.075 351.209 286.279 347.812 283.393 345.376L-77.6895 42.8181C-80.0625 40.8309 -83.0127 39.6771 -86.0912 39.5489C-90.5165 39.3566 -94.6853 41.2155 -97.5073 44.6129L-399.521 406.529C-404.523 412.49 -403.69 421.464 -397.725 426.4L-36.6428 728.958C-34.2698 731.009 -31.3837 732.163 -28.2411 732.291Z" fill="white"/>
<path d="M-68.5181 35.7024C-65.0548 35.8306 -61.9122 37.1127 -59.2826 39.4203L286.407 339.607C289.486 342.235 291.281 345.953 291.602 349.991C291.859 354.029 290.576 357.94 287.946 361.016L-11.63 707.548C-14.7085 711.073 -19.0697 712.996 -23.7516 712.74C-27.2149 712.612 -30.3575 711.33 -32.9871 709.022L-378.677 408.836C-381.755 406.208 -383.551 402.49 -383.872 398.452C-384.128 394.413 -382.846 390.503 -380.216 387.426L-80.6397 40.8946C-77.5612 37.3691 -73.1358 35.446 -68.5181 35.7024ZM-23.6875 711.202C-19.4545 711.394 -15.4781 709.663 -12.7203 706.458L286.856 359.991C289.229 357.234 290.448 353.709 290.191 350.055C289.935 346.401 288.267 343.068 285.509 340.696L-60.1805 40.51C-62.5535 38.4588 -65.4396 37.305 -68.5181 37.1768C-72.751 36.9845 -76.7274 38.7152 -79.4853 41.9203L-379.062 388.452C-381.435 391.208 -382.653 394.734 -382.397 398.387C-382.14 402.041 -380.473 405.374 -377.715 407.746L-32.025 707.932C-29.652 709.92 -26.766 711.073 -23.6875 711.202Z" fill="white"/>
<path d="M-50.9445 33.2015C-47.5453 33.3297 -44.2744 34.6759 -41.7731 36.9835L288.524 334.734C291.474 337.362 293.142 341.016 293.398 344.926C293.591 348.836 292.244 352.618 289.614 355.567L-7.58892 686.65C-10.5391 689.919 -14.7721 691.714 -19.1974 691.522C-22.5966 691.393 -25.8675 690.047 -28.3688 687.74L-358.666 389.989C-361.616 387.361 -363.284 383.707 -363.54 379.797C-363.733 375.887 -362.386 372.105 -359.756 369.156L-62.5529 38.0732C-59.6027 34.8041 -55.3698 33.0092 -50.9445 33.2015ZM-19.1333 690.111C-15.1569 690.304 -11.3729 688.701 -8.67919 685.688L288.588 354.605C290.961 351.977 292.18 348.58 291.987 344.99C291.795 341.464 290.256 338.195 287.626 335.824L-42.671 38.0732C-44.9798 36.022 -47.8659 34.8041 -50.9445 34.6758C-54.9208 34.4835 -58.7048 36.0861 -61.3985 39.0988L-358.602 370.182C-360.975 372.81 -362.193 376.207 -362.001 379.797C-361.809 383.323 -360.269 386.592 -357.64 388.964L-27.3426 686.714C-25.0979 688.765 -22.1476 689.983 -19.1333 690.111Z" fill="white"/>
<path d="M-33.4359 30.7669C-30.0368 30.8951 -26.7658 32.3054 -24.2646 34.613L290.64 329.992C293.462 332.62 295.065 336.145 295.194 339.991C295.322 343.838 293.975 347.491 291.346 350.248L-3.4847 665.946C-6.37081 669.023 -10.4113 670.626 -14.5801 670.498C-17.9793 670.369 -21.2502 668.959 -23.7515 666.652L-338.656 371.273C-344.428 365.888 -344.685 356.786 -339.298 351.017L-44.5314 35.3181C-41.6453 32.2413 -37.6048 30.5746 -33.4359 30.7669ZM-14.516 669.023C-10.732 669.216 -7.14043 667.677 -4.575 664.921L290.255 349.286C292.628 346.786 293.847 343.517 293.719 340.056C293.59 336.594 292.179 333.453 289.678 331.081L-25.2266 35.7027C-27.4713 33.5874 -30.3575 32.3695 -33.4359 32.2413C-37.2199 32.049 -40.8115 33.5874 -43.377 36.2796L-338.207 351.978C-343.082 357.171 -342.761 365.312 -337.63 370.183L-22.7253 665.562C-20.4806 667.677 -17.5945 668.895 -14.516 669.023Z" fill="white"/>
<path d="M-15.8635 28.3325C-12.4644 28.4607 -9.19345 29.8709 -6.75632 32.3068L292.756 325.314C298.272 330.698 298.336 339.544 293.013 345.057L0.555122 645.307C-2.20269 648.128 -6.0508 649.666 -10.0272 649.474C-13.4264 649.346 -16.6973 647.935 -19.1344 645.499L-318.647 352.493C-324.162 347.108 -324.226 338.262 -318.903 332.749L-26.4459 32.4991C-23.688 29.6786 -19.8399 28.1402 -15.8635 28.3325ZM-9.96307 647.935C-6.43563 648.063 -2.97231 646.717 -0.471031 644.153L291.986 343.967C296.796 339.031 296.668 331.147 291.794 326.275L-7.71832 33.2683C-9.89893 31.153 -12.785 29.8709 -15.8635 29.7427C-19.391 29.6145 -22.8543 30.9607 -25.3556 33.5247L-317.813 333.775C-322.623 338.711 -322.495 346.595 -317.621 351.403L-18.1083 644.41C-15.9277 646.589 -13.0416 647.807 -9.96307 647.935Z" fill="white"/>
<path d="M1.64548 25.8303C5.10876 25.9585 8.31555 27.4328 10.6886 29.8687L294.872 320.504C300.067 325.824 300.003 334.414 294.68 339.67L4.59571 624.472C1.90202 627.1 -1.75369 628.51 -5.47353 628.318C-8.93685 628.19 -12.1436 626.715 -14.5167 624.28L-298.636 333.645C-303.831 328.324 -303.767 319.735 -298.444 314.478L-8.35965 29.6764C-5.73007 27.1123 -2.07437 25.7021 1.64548 25.8303ZM-5.40942 626.908C-2.07436 627.036 1.19654 625.818 3.56953 623.446L293.654 338.644C298.4 333.965 298.464 326.337 293.846 321.529L9.66238 30.8943C7.48178 28.7149 4.65985 27.4328 1.58136 27.3046C-1.75369 27.1764 -5.0246 28.3944 -7.39761 30.7661L-297.482 315.568C-302.228 320.247 -302.292 327.875 -297.674 332.683L-13.5546 623.318C-11.3099 625.498 -8.42379 626.78 -5.40942 626.908Z" fill="white"/>
<path d="M19.2193 23.3939C22.6826 23.5221 25.8893 24.9964 28.2623 27.5605L296.99 315.76C299.363 318.324 300.645 321.657 300.517 325.183C300.389 328.708 298.914 331.977 296.348 334.349L8.63694 603.767C6.07151 606.203 2.67231 607.485 -0.919274 607.292C-4.38259 607.164 -7.58935 605.69 -9.96236 603.126L-278.626 314.862C-283.564 309.542 -283.307 301.209 -277.984 296.273L9.66306 26.9195C12.2926 24.4836 15.6277 23.2016 19.2193 23.3939ZM-0.790978 605.818C2.35166 605.946 5.366 604.857 7.6749 602.677L295.386 333.259C297.695 331.144 298.978 328.26 299.106 325.119C299.234 321.978 298.08 319.029 295.963 316.721L27.172 28.522C25.0556 26.2785 22.2336 24.9323 19.1551 24.8041C16.0125 24.6759 12.9981 25.7657 10.6892 27.9451L-277.022 297.363C-281.704 301.786 -281.961 309.157 -277.599 313.901L-8.80792 602.164C-6.75561 604.408 -3.8695 605.69 -0.790978 605.818Z" fill="white"/>
<path d="M36.7281 20.8929C40.1915 21.0211 43.3982 22.5596 45.7071 25.1877L299.106 311.015C303.788 316.272 303.275 324.348 298.016 329.028L12.6774 582.997C10.1761 585.24 6.96934 586.33 3.63428 586.202C0.170966 586.074 -3.03579 584.535 -5.34466 581.907L-258.68 296.08C-263.361 290.823 -262.848 282.747 -257.589 278.067L27.7492 24.098C30.1863 21.8545 33.3931 20.7647 36.7281 20.8929ZM3.76258 584.792C6.71281 584.92 9.53477 583.894 11.7795 581.971L297.054 327.938C301.736 323.771 302.12 316.656 298.016 311.977L44.6168 26.1492C42.5645 23.8416 39.7425 22.4955 36.664 22.3673C33.7138 22.2391 30.8918 23.2647 28.6471 25.1877L-256.691 279.157C-261.373 283.323 -261.758 290.439 -257.653 295.118L-4.25436 580.946C-2.1379 583.317 0.684058 584.664 3.76258 584.792Z" fill="white"/>
<path d="M54.301 18.3955C57.7643 18.5237 61.0352 20.1262 63.2158 22.8185L301.222 306.274C303.339 308.838 304.365 312.043 304.108 315.313C303.852 318.582 302.248 321.594 299.747 323.71L16.8459 562.295C14.4729 564.282 11.4586 565.307 8.31592 565.179C4.85261 565.051 1.5817 563.449 -0.598901 560.756L-238.669 277.301C-243.031 272.044 -242.389 264.224 -237.194 259.865L45.771 21.28C48.144 19.2929 51.1583 18.2673 54.301 18.3955ZM8.31592 563.705C11.0737 563.833 13.7033 562.936 15.8197 561.141L298.785 322.62C301.03 320.761 302.377 318.069 302.633 315.184C302.89 312.3 301.992 309.415 300.132 307.172L62.1255 23.7159C60.1373 21.4082 57.3153 19.9339 54.2368 19.8057C51.479 19.6775 48.8495 20.5749 46.733 22.3698L-236.168 260.955C-240.786 264.865 -241.363 271.788 -237.515 276.403L0.4914 559.859C2.41547 562.167 5.30155 563.577 8.31592 563.705Z" fill="white"/>
<path d="M71.8105 15.8949C75.2738 16.0231 78.5447 17.6897 80.7253 20.4461L303.339 301.53C305.327 304.03 306.225 307.171 305.84 310.376C305.456 313.581 303.916 316.402 301.351 318.453L20.8229 541.589C18.5782 543.384 15.7562 544.281 12.8701 544.217C9.40681 544.089 6.1359 542.423 3.9553 539.666L-218.659 258.518C-222.763 253.326 -221.93 245.762 -216.735 241.595L63.8577 18.4589C66.1025 16.6641 68.9244 15.7667 71.8105 15.8949ZM12.9342 542.679C15.4997 542.807 17.9368 541.974 19.925 540.371L300.453 317.299C302.634 315.568 304.045 313.004 304.365 310.248C304.686 307.427 303.916 304.671 302.121 302.492L79.5709 21.3435C77.6468 18.9717 74.8249 17.4974 71.7464 17.3692C69.2451 17.241 66.7438 18.0743 64.7556 19.6768L-215.773 242.813C-220.326 246.467 -221.096 253.134 -217.504 257.685L5.10975 538.769C7.03382 541.076 9.85575 542.551 12.9342 542.679Z" fill="white"/>
<path d="M89.3836 13.3937C92.9111 13.5219 96.1178 15.2527 98.2343 18.0731L305.456 296.785C309.304 301.978 308.214 309.285 303.083 313.131L24.9276 520.819C22.8111 522.422 20.1174 523.255 17.4879 523.127C13.9604 522.999 10.7536 521.268 8.63718 518.448L-198.648 239.735C-202.497 234.543 -201.406 227.236 -196.275 223.389L81.8798 15.7014C84.0604 14.0989 86.6899 13.2655 89.3836 13.3937ZM17.4879 521.653C19.7967 521.781 22.1697 521.012 24.0297 519.666L302.185 311.977C306.674 308.58 307.636 302.17 304.301 297.683L97.0799 18.9706C95.2199 16.4706 92.398 14.9963 89.3195 14.8681C87.0106 14.7399 84.6376 15.5091 82.7777 16.8552L-195.377 224.543C-199.867 227.941 -200.829 234.351 -197.494 238.838L9.72748 517.55C11.5874 520.05 14.4094 521.524 17.4879 521.653Z" fill="white"/>
<path d="M106.893 10.8321C110.42 10.9603 113.627 12.7552 115.679 15.7038L307.508 292.044C311.036 297.172 309.817 304.224 304.686 307.813L28.9041 500.117C26.8518 501.527 24.4787 502.232 21.9775 502.104C18.45 501.976 15.2432 500.181 13.1909 497.233L-178.638 220.956C-182.165 215.828 -180.947 208.777 -175.816 205.187L99.9661 12.8834C102.018 11.4732 104.456 10.768 106.893 10.8321ZM22.0416 500.63C24.2222 500.694 26.2745 500.117 28.0703 498.899L303.852 306.595C308.342 303.454 309.432 297.301 306.29 292.878L114.525 16.5372C112.729 13.9731 109.971 12.4347 106.829 12.3065C104.648 12.2424 102.596 12.8193 100.8 14.0372L-174.982 206.341C-179.472 209.482 -180.562 215.636 -177.419 220.123L14.4095 496.463C16.1411 498.963 18.9631 500.502 22.0416 500.63Z" fill="white"/>
<path d="M124.465 8.33059C127.993 8.4588 131.264 10.3818 133.188 13.3305L309.624 287.299C312.895 292.363 311.42 299.222 306.353 302.491L32.944 479.347C31.0199 480.565 28.7752 481.206 26.5305 481.077C23.003 480.949 19.7321 479.026 17.8081 476.077L-158.628 202.173C-161.899 197.109 -160.424 190.25 -155.357 186.981L118.052 10.0613C119.976 8.8434 122.22 8.20239 124.465 8.33059ZM26.5946 479.667C28.5828 479.731 30.5068 479.218 32.1744 478.129L305.584 301.273C310.009 298.389 311.292 292.491 308.405 288.068L131.969 14.1638C130.301 11.5998 127.48 9.93313 124.401 9.80492C122.413 9.74082 120.489 10.2536 118.821 11.3434L-154.588 188.199C-159.013 191.083 -160.296 196.981 -157.41 201.404L19.0266 475.308C20.6941 477.872 23.5161 479.539 26.5946 479.667Z" fill="white"/>
<path d="M142.038 5.76706C145.63 5.89527 148.9 7.8824 150.76 10.9593L311.74 282.556C314.755 287.62 313.087 294.159 308.02 297.171L36.9843 458.642C35.1885 459.732 33.1361 460.245 31.0838 460.117C27.4922 459.989 24.2213 458.001 22.3614 454.925L-138.618 183.328C-141.633 178.264 -139.965 171.725 -134.899 168.712L136.138 7.30549C137.933 6.21577 139.922 5.70296 142.038 5.76706ZM31.2121 458.642C33.0078 458.707 34.7395 458.258 36.2788 457.36L307.315 295.953C311.676 293.325 313.087 287.684 310.522 283.325L149.478 11.7285C147.874 9.03623 145.052 7.36959 141.974 7.24139C140.178 7.17729 138.446 7.626 136.907 8.52342L-134.129 169.994C-138.49 172.623 -139.901 178.264 -137.336 182.622L23.7082 454.155C25.2475 456.848 28.0694 458.514 31.2121 458.642Z" fill="white"/>
<path d="M159.547 3.20134C163.139 3.32954 166.474 5.44488 168.206 8.64995L313.857 277.811C316.551 282.811 314.691 289.157 309.688 291.849L41.0892 437.872C39.4217 438.769 37.5617 439.218 35.7018 439.09C32.1103 438.962 28.7752 436.846 27.0436 433.641L-118.608 164.544C-121.302 159.544 -119.442 153.198 -114.439 150.506L154.16 4.48336C155.827 3.58595 157.687 3.13724 159.547 3.20134ZM35.766 437.68C37.3694 437.744 38.9728 437.359 40.3837 436.59L308.983 290.567C313.28 288.195 314.883 282.811 312.574 278.452L166.923 9.35506C165.448 6.59871 162.626 4.80387 159.483 4.67567C157.88 4.61157 156.276 4.99617 154.865 5.76539L-113.734 151.788C-118.031 154.16 -119.634 159.544 -117.325 163.903L28.3263 433.064C29.8014 435.821 32.6233 437.551 35.766 437.68Z" fill="white"/>
<path d="M177.12 0.638837C180.776 0.831141 184.111 2.94648 185.715 6.27975L315.974 273.069C318.411 278.069 316.358 284.095 311.356 286.53L45.1299 417.105C43.5906 417.874 41.9231 418.194 40.2556 418.13C36.5358 417.938 33.2649 415.823 31.6615 412.489L-98.5975 145.764C-101.035 140.764 -98.9823 134.739 -93.9797 132.303L172.246 1.66446C173.785 0.895242 175.453 0.574736 177.12 0.638837ZM40.3197 416.72C41.7307 416.784 43.2058 416.464 44.4886 415.823L310.715 285.248C314.947 283.133 316.743 278.005 314.691 273.71L184.432 6.92076C183.021 4.1003 180.199 2.24137 177.056 2.11317C175.645 2.04906 174.17 2.36957 172.888 3.01058L-93.3384 133.585C-97.5713 135.7 -99.3671 140.828 -97.3148 145.123L32.9442 411.912C34.3552 414.733 37.1771 416.592 40.3197 416.72Z" fill="white"/>
</g>
</g>
<defs>
<clipPath id="clip0_35575_9582">
<rect width="399" height="317" fill="white" transform="translate(317) rotate(90)"/>
</clipPath>
</defs>
</svg>
