<svg width="50" height="64" viewBox="0 0 50 64" fill="none" xmlns="http://www.w3.org/2000/svg">
<path d="M12.526 4.89003C14.3806 4.89003 16.2365 4.86975 18.0911 4.89718C19.7514 4.92104 20.3692 5.56032 20.4276 7.21221C20.5731 11.3736 20.3799 11.5739 16.2138 11.5739C13.182 11.5739 10.1501 11.5847 7.11943 11.5739C5.46635 11.5656 4.83183 10.9168 4.79128 9.27559C4.68394 5.02837 4.80917 4.89718 8.99676 4.8948L12.526 4.89003Z" fill="#B9F3EF"/>
<path d="M0.168817 16.1172H49.6839C49.7126 16.6145 49.7639 17.0892 49.7639 17.5628C49.7639 29.6949 49.771 45.2275 49.7639 57.3597C49.7639 61.4972 47.617 63.6477 43.4867 63.6501C31.0825 63.658 18.6784 63.658 6.27426 63.6501C2.15823 63.6501 0.0220991 61.4901 0.0149428 57.3419C0.0042085 50.7319 -0.0124894 44.1231 0.0149428 37.5131C0.0280626 33.669 0.127064 29.825 0.167616 25.9809C0.184314 23.865 0.168817 18.3523 0.168817 16.1172ZM38.9043 41.8868C38.9674 39.1262 38.2139 36.4084 36.7381 34.0745C35.2624 31.7406 33.1302 29.8945 30.6091 28.7679C28.0881 27.6414 25.2904 27.2845 22.5673 27.742C19.8441 28.1996 17.3167 29.4513 15.3023 31.3399C13.2879 33.2286 11.8761 35.6701 11.2442 38.3582C10.6123 41.0462 10.7884 43.8611 11.7503 46.4494C12.7123 49.0378 14.4172 51.2844 16.6513 52.9073C18.8854 54.5302 21.549 55.4572 24.308 55.5719C26.1689 55.6484 28.0264 55.3534 29.7721 54.7042C31.5178 54.0549 33.1167 53.0643 34.4753 51.7903C35.8339 50.5163 36.9251 48.9844 37.6851 47.284C38.4451 45.5836 38.8588 43.7488 38.9019 41.8868H38.9043Z" fill="url(#paint0_linear_34716_3333)"/>
<g filter="url(#filter0_d_34716_3333)">
<path d="M24.8776 55.6116C32.6635 55.6116 38.9753 49.2998 38.9753 41.5138C38.9753 33.7278 32.6635 27.416 24.8776 27.416C17.0916 27.416 10.7798 33.7278 10.7798 41.5138C10.7798 49.2998 17.0916 55.6116 24.8776 55.6116Z" fill="white"/>
</g>
<path d="M0.14527 16.119C0.14527 14.3145 0.14527 12.5624 0.14527 10.8103C0.14527 9.22638 0.127381 7.64248 0.158392 6.05857C0.115486 5.30789 0.229296 4.55648 0.492566 3.85217C0.755836 3.14785 1.16281 2.50606 1.6876 1.96758C2.21239 1.4291 2.84351 1.00574 3.54081 0.724427C4.23811 0.443116 4.98632 0.310012 5.73786 0.333581C18.5547 0.289848 31.3715 0.289848 44.1883 0.333581C44.8945 0.303228 45.5997 0.414558 46.2623 0.661003C46.9249 0.907448 47.5314 1.28402 48.0461 1.76854C48.5609 2.25305 48.9734 2.83571 49.2595 3.48216C49.5456 4.12861 49.6993 4.82577 49.7117 5.53257C49.831 8.87215 49.7475 12.2284 49.7415 15.5775C49.7158 15.7625 49.6673 15.9436 49.5972 16.1166L0.14527 16.119ZM12.6246 4.89329H9.10486C4.93039 4.89329 4.80398 5.02807 4.91132 9.2741C4.95307 10.9153 5.58519 11.5641 7.23351 11.5724C10.257 11.5891 13.2793 11.5724 16.2981 11.5724C20.4523 11.5724 20.6455 11.3732 20.5 7.21071C20.4415 5.55881 19.8249 4.91953 18.1694 4.89567C16.3291 4.87301 14.478 4.89447 12.6281 4.89209L12.6246 4.89329ZM29.3081 10.2223C29.7008 10.2338 30.0881 10.1284 30.4207 9.91935C30.7534 9.71035 31.0164 9.40722 31.1765 9.04843C31.3365 8.68964 31.3864 8.29137 31.3196 7.90421C31.2529 7.51705 31.0726 7.15845 30.8017 6.87393C30.5308 6.58941 30.1815 6.39182 29.798 6.30622C29.4146 6.22063 29.0144 6.25089 28.6482 6.39318C28.282 6.53547 27.9664 6.78336 27.7413 7.10539C27.5163 7.42742 27.392 7.80906 27.3843 8.20185C27.3787 8.72354 27.5772 9.22675 27.9376 9.60403C28.2979 9.98131 28.7915 10.2028 29.3129 10.2211L29.3081 10.2223ZM38.0935 8.28415C38.0993 7.89574 37.99 7.5143 37.7793 7.18796C37.5686 6.86161 37.266 6.60498 36.9096 6.45042C36.5532 6.29585 36.1591 6.25027 35.7768 6.31944C35.3946 6.3886 35.0414 6.56943 34.7617 6.83908C34.4821 7.10873 34.2886 7.45514 34.2056 7.83463C34.1227 8.21412 34.1539 8.60968 34.2954 8.97143C34.437 9.33318 34.6825 9.6449 35.001 9.8673C35.3195 10.0897 35.6967 10.2128 36.085 10.2211C36.6058 10.2203 37.106 10.0181 37.481 9.65683C37.856 9.29558 38.0768 8.80327 38.0971 8.28295L38.0935 8.28415ZM44.8634 8.30563C44.8726 7.91795 44.7668 7.53619 44.5595 7.2085C44.3521 6.88081 44.0524 6.62183 43.6981 6.46419C43.3438 6.30655 42.9507 6.25731 42.5685 6.32266C42.1862 6.38801 41.8319 6.56502 41.5501 6.83142C41.2683 7.09781 41.0716 7.44165 40.9849 7.81962C40.8982 8.19758 40.9253 8.59277 41.0627 8.95538C41.2002 9.31798 41.4419 9.63177 41.7575 9.85722C42.073 10.0827 42.4482 10.2097 42.8358 10.2223C43.3582 10.2306 43.8632 10.0346 44.2435 9.67625C44.6237 9.31785 44.8491 8.82524 44.8717 8.30322L44.8634 8.30563Z" fill="url(#paint1_linear_34716_3333)"/>
<g filter="url(#filter1_d_34716_3333)">
<path d="M24.7836 52.5031C31.3516 52.5031 36.676 47.4013 36.676 41.108C36.676 34.8147 31.3516 29.7129 24.7836 29.7129C18.2155 29.7129 12.8911 34.8147 12.8911 41.108C12.8911 47.4013 18.2155 52.5031 24.7836 52.5031Z" fill="#D1D3D4"/>
</g>
<path d="M36.557 42.4785C36.3752 45.3699 35.1287 48.0914 33.0583 50.1178C30.9878 52.1442 28.2401 53.3318 25.3455 53.4514C19.8829 53.8295 14.2009 49.5906 13.2813 44.4011C13.2093 43.892 13.311 43.3735 13.57 42.9293C14.0151 42.1486 14.6132 41.4658 15.3285 40.9218C16.0437 40.3777 16.8614 39.9836 17.7326 39.7629C18.6037 39.5423 19.5105 39.4998 20.3985 39.6379C21.2865 39.776 22.1375 40.0919 22.9005 40.5666C24.0717 41.2333 25.1583 42.0503 26.2735 42.8137C30.2893 45.5688 32.7022 45.5103 36.557 42.4785Z" fill="url(#paint2_radial_34716_3333)"/>
<path d="M36.1856 9.45575C36.8325 9.45575 37.3569 8.93137 37.3569 8.28452C37.3569 7.63766 36.8325 7.11328 36.1856 7.11328C35.5388 7.11328 35.0144 7.63766 35.0144 8.28452C35.0144 8.93137 35.5388 9.45575 36.1856 9.45575Z" fill="white"/>
<path d="M42.9315 9.45575C43.5783 9.45575 44.1027 8.93137 44.1027 8.28452C44.1027 7.63766 43.5783 7.11328 42.9315 7.11328C42.2846 7.11328 41.7603 7.63766 41.7603 8.28452C41.7603 8.93137 42.2846 9.45575 42.9315 9.45575Z" fill="white"/>
<defs>
<filter id="filter0_d_34716_3333" x="9.09304" y="27.416" width="34.9425" height="34.9423" filterUnits="userSpaceOnUse" color-interpolation-filters="sRGB">
<feFlood flood-opacity="0" result="BackgroundImageFix"/>
<feColorMatrix in="SourceAlpha" type="matrix" values="0 0 0 0 0 0 0 0 0 0 0 0 0 0 0 0 0 0 127 0" result="hardAlpha"/>
<feOffset dx="1.68675" dy="3.37349"/>
<feGaussianBlur stdDeviation="1.68675"/>
<feColorMatrix type="matrix" values="0 0 0 0 0.00392157 0 0 0 0 0.133333 0 0 0 0 0.239216 0 0 0 0.212 0"/>
<feBlend mode="normal" in2="BackgroundImageFix" result="effect1_dropShadow_34716_3333"/>
<feBlend mode="normal" in="SourceGraphic" in2="effect1_dropShadow_34716_3333" result="shape"/>
</filter>
<filter id="filter1_d_34716_3333" x="12.0477" y="29.7129" width="28.8452" height="28.6946" filterUnits="userSpaceOnUse" color-interpolation-filters="sRGB">
<feFlood flood-opacity="0" result="BackgroundImageFix"/>
<feColorMatrix in="SourceAlpha" type="matrix" values="0 0 0 0 0 0 0 0 0 0 0 0 0 0 0 0 0 0 127 0" result="hardAlpha"/>
<feOffset dx="1.68675" dy="3.37349"/>
<feGaussianBlur stdDeviation="1.26506"/>
<feColorMatrix type="matrix" values="0 0 0 0 0 0 0 0 0 0.305882 0 0 0 0 0.556863 0 0 0 0.561 0"/>
<feBlend mode="normal" in2="BackgroundImageFix" result="effect1_dropShadow_34716_3333"/>
<feBlend mode="normal" in="SourceGraphic" in2="effect1_dropShadow_34716_3333" result="shape"/>
</filter>
<linearGradient id="paint0_linear_34716_3333" x1="24.8835" y1="63.8937" x2="24.8835" y2="15.309" gradientUnits="userSpaceOnUse">
<stop stop-color="#019EED"/>
<stop offset="1" stop-color="#2EB3F5"/>
</linearGradient>
<linearGradient id="paint1_linear_34716_3333" x1="-0.554759" y1="-0.711586" x2="7.40161" y2="29.3723" gradientUnits="userSpaceOnUse">
<stop stop-color="#2AD2FF"/>
<stop offset="1" stop-color="#72E3C6"/>
</linearGradient>
<radialGradient id="paint2_radial_34716_3333" cx="0" cy="0" r="1" gradientUnits="userSpaceOnUse" gradientTransform="translate(-121.176 39.322) scale(15.6198 15.628)">
<stop stop-color="#00D8FF"/>
<stop offset="1" stop-color="#0092FF"/>
</radialGradient>
</defs>
</svg>
