<svg width="26" height="26" viewBox="0 0 26 26" fill="none" xmlns="http://www.w3.org/2000/svg">
<path d="M10.9526 4.33301C10.8659 4.65801 10.8334 5.01551 10.8334 5.41634V8.66634H5.41675V6.49967C5.41675 5.30801 6.39175 4.33301 7.58341 4.33301H10.9526Z" fill="#34D5E5"/>
<path d="M10.8334 20.5837V8.66699H5.41675C3.25008 8.66699 2.16675 9.75033 2.16675 11.917V20.5837C2.16675 22.7503 3.25008 23.8337 5.41675 23.8337H14.0834C11.9167 23.8337 10.8334 22.7503 10.8334 20.5837ZM7.31258 18.417C7.31258 18.8612 6.94425 19.2295 6.50008 19.2295C6.05591 19.2295 5.68758 18.8612 5.68758 18.417V14.0837C5.68758 13.6395 6.05591 13.2712 6.50008 13.2712C6.94425 13.2712 7.31258 13.6395 7.31258 14.0837V18.417Z" fill="#1FACF3"/>
<path d="M15.1666 23.8337H14.0833C11.9166 23.8337 10.8333 22.7503 10.8333 20.5837V5.41699C10.8333 3.25033 11.9166 2.16699 14.0833 2.16699H20.5833C22.7499 2.16699 23.8333 3.25033 23.8333 5.41699V20.5837C23.8333 22.7503 22.7499 23.8337 20.5833 23.8337H19.4999" fill="#34D5E5"/>
<path d="M19.5001 19.5003V23.8337H15.1667V19.5003C15.1667 18.9045 15.6542 18.417 16.2501 18.417H18.4167C19.0126 18.417 19.5001 18.9045 19.5001 19.5003Z" fill="white"/>
<path d="M15.1667 14.8962C14.7226 14.8962 14.3542 14.5278 14.3542 14.0837V8.66699C14.3542 8.22283 14.7226 7.85449 15.1667 7.85449C15.6109 7.85449 15.9792 8.22283 15.9792 8.66699V14.0837C15.9792 14.5278 15.6109 14.8962 15.1667 14.8962Z" fill="white"/>
<path d="M19.5 14.8962C19.0558 14.8962 18.6875 14.5278 18.6875 14.0837V8.66699C18.6875 8.22283 19.0558 7.85449 19.5 7.85449C19.9442 7.85449 20.3125 8.22283 20.3125 8.66699V14.0837C20.3125 14.5278 19.9442 14.8962 19.5 14.8962Z" fill="white"/>
</svg>
