<svg width="20" height="20" viewBox="0 0 20 20" fill="none" xmlns="http://www.w3.org/2000/svg">
<path d="M10.8332 18.3337H4.1665C2.49984 18.3337 1.6665 17.5003 1.6665 15.8337V9.16699C1.6665 7.50033 2.49984 6.66699 4.1665 6.66699H8.33317V15.8337C8.33317 17.5003 9.1665 18.3337 10.8332 18.3337Z" stroke="#141521" stroke-width="1.5" stroke-miterlimit="10" stroke-linecap="round" stroke-linejoin="round"/>
<path d="M8.42482 3.33301C8.35816 3.58301 8.33317 3.85801 8.33317 4.16634V6.66634H4.1665V4.99967C4.1665 4.08301 4.9165 3.33301 5.83317 3.33301H8.42482Z" stroke="#141521" stroke-width="1.5" stroke-miterlimit="10" stroke-linecap="round" stroke-linejoin="round"/>
<path d="M11.6665 6.66699V10.8337" stroke="#141521" stroke-width="1.5" stroke-miterlimit="10" stroke-linecap="round" stroke-linejoin="round"/>
<path d="M15 6.66699V10.8337" stroke="#141521" stroke-width="1.5" stroke-miterlimit="10" stroke-linecap="round" stroke-linejoin="round"/>
<path d="M14.1665 14.167H12.4998C12.0415 14.167 11.6665 14.542 11.6665 15.0003V18.3337H14.9998V15.0003C14.9998 14.542 14.6248 14.167 14.1665 14.167Z" stroke="#141521" stroke-width="1.5" stroke-miterlimit="10" stroke-linecap="round" stroke-linejoin="round"/>
<path d="M5 10.833V14.1663" stroke="#141521" stroke-width="1.5" stroke-miterlimit="10" stroke-linecap="round" stroke-linejoin="round"/>
<path d="M8.3335 15.8337V4.16699C8.3335 2.50033 9.16683 1.66699 10.8335 1.66699H15.8335C17.5002 1.66699 18.3335 2.50033 18.3335 4.16699V15.8337C18.3335 17.5003 17.5002 18.3337 15.8335 18.3337H10.8335C9.16683 18.3337 8.3335 17.5003 8.3335 15.8337Z" stroke="#141521" stroke-width="1.5" stroke-miterlimit="10" stroke-linecap="round" stroke-linejoin="round"/>
</svg>
