<svg width="23" height="23" viewBox="0 0 23 23" fill="none" xmlns="http://www.w3.org/2000/svg">
<path d="M15.8542 3.76325V2.33325C15.8542 1.95742 15.5425 1.64575 15.1667 1.64575C14.7908 1.64575 14.4792 1.95742 14.4792 2.33325V3.70825H8.52082V2.33325C8.52082 1.95742 8.20915 1.64575 7.83332 1.64575C7.45749 1.64575 7.14582 1.95742 7.14582 2.33325V3.76325C4.67082 3.99242 3.46999 5.46825 3.28665 7.65908C3.26832 7.92492 3.48832 8.14492 3.74499 8.14492H19.255C19.5208 8.14492 19.7408 7.91575 19.7133 7.65908C19.53 5.46825 18.3292 3.99242 15.8542 3.76325Z" fill="#FE725C"/>
<path d="M18.8333 9.52002H4.16667C3.6625 9.52002 3.25 9.93252 3.25 10.4367V16.0834C3.25 18.8334 4.625 20.6667 7.83333 20.6667H15.1667C18.375 20.6667 19.75 18.8334 19.75 16.0834V10.4367C19.75 9.93252 19.3375 9.52002 18.8333 9.52002ZM8.9425 17.1925C8.89667 17.2292 8.85083 17.275 8.805 17.3025C8.75 17.3392 8.695 17.3667 8.64 17.385C8.585 17.4125 8.53 17.4309 8.475 17.44C8.41083 17.4492 8.35583 17.4584 8.29167 17.4584C8.1725 17.4584 8.05333 17.4309 7.94333 17.385C7.82417 17.3392 7.7325 17.275 7.64083 17.1925C7.47583 17.0184 7.375 16.78 7.375 16.5417C7.375 16.3034 7.47583 16.065 7.64083 15.8909C7.7325 15.8084 7.82417 15.7442 7.94333 15.6984C8.10833 15.625 8.29167 15.6067 8.475 15.6434C8.53 15.6525 8.585 15.6709 8.64 15.6984C8.695 15.7167 8.75 15.7442 8.805 15.7809C8.85083 15.8175 8.89667 15.8542 8.9425 15.8909C9.1075 16.065 9.20833 16.3034 9.20833 16.5417C9.20833 16.78 9.1075 17.0184 8.9425 17.1925ZM8.9425 13.9842C8.76833 14.1492 8.53 14.25 8.29167 14.25C8.05333 14.25 7.815 14.1492 7.64083 13.9842C7.47583 13.81 7.375 13.5717 7.375 13.3334C7.375 13.095 7.47583 12.8567 7.64083 12.6825C7.8975 12.4259 8.30083 12.3434 8.64 12.49C8.75917 12.5359 8.86 12.6 8.9425 12.6825C9.1075 12.8567 9.20833 13.095 9.20833 13.3334C9.20833 13.5717 9.1075 13.81 8.9425 13.9842ZM12.1508 17.1925C11.9767 17.3575 11.7383 17.4584 11.5 17.4584C11.2617 17.4584 11.0233 17.3575 10.8492 17.1925C10.6842 17.0184 10.5833 16.78 10.5833 16.5417C10.5833 16.3034 10.6842 16.065 10.8492 15.8909C11.1883 15.5517 11.8117 15.5517 12.1508 15.8909C12.3158 16.065 12.4167 16.3034 12.4167 16.5417C12.4167 16.78 12.3158 17.0184 12.1508 17.1925ZM12.1508 13.9842C12.105 14.0209 12.0592 14.0575 12.0133 14.0942C11.9583 14.1309 11.9033 14.1584 11.8483 14.1767C11.7933 14.2042 11.7383 14.2225 11.6833 14.2317C11.6192 14.2409 11.5642 14.25 11.5 14.25C11.2617 14.25 11.0233 14.1492 10.8492 13.9842C10.6842 13.81 10.5833 13.5717 10.5833 13.3334C10.5833 13.095 10.6842 12.8567 10.8492 12.6825C10.9317 12.6 11.0325 12.5359 11.1517 12.49C11.4908 12.3434 11.8942 12.4259 12.1508 12.6825C12.3158 12.8567 12.4167 13.095 12.4167 13.3334C12.4167 13.5717 12.3158 13.81 12.1508 13.9842ZM15.3592 17.1925C15.185 17.3575 14.9467 17.4584 14.7083 17.4584C14.47 17.4584 14.2317 17.3575 14.0575 17.1925C13.8925 17.0184 13.7917 16.78 13.7917 16.5417C13.7917 16.3034 13.8925 16.065 14.0575 15.8909C14.3967 15.5517 15.02 15.5517 15.3592 15.8909C15.5242 16.065 15.625 16.3034 15.625 16.5417C15.625 16.78 15.5242 17.0184 15.3592 17.1925ZM15.3592 13.9842C15.3133 14.0209 15.2675 14.0575 15.2217 14.0942C15.1667 14.1309 15.1117 14.1584 15.0567 14.1767C15.0017 14.2042 14.9467 14.2225 14.8917 14.2317C14.8275 14.2409 14.7633 14.25 14.7083 14.25C14.47 14.25 14.2317 14.1492 14.0575 13.9842C13.8925 13.81 13.7917 13.5717 13.7917 13.3334C13.7917 13.095 13.8925 12.8567 14.0575 12.6825C14.1492 12.6 14.2408 12.5359 14.36 12.49C14.525 12.4167 14.7083 12.3984 14.8917 12.435C14.9467 12.4442 15.0017 12.4625 15.0567 12.49C15.1117 12.5084 15.1667 12.5359 15.2217 12.5725C15.2675 12.6092 15.3133 12.6459 15.3592 12.6825C15.5242 12.8567 15.625 13.095 15.625 13.3334C15.625 13.5717 15.5242 13.81 15.3592 13.9842Z" fill="#FE725C"/>
</svg>
