<svg width="34" height="34" viewBox="0 0 34 34" fill="none" xmlns="http://www.w3.org/2000/svg">
<path d="M17.0003 10.8799C15.6554 10.8799 14.3407 11.2787 13.2224 12.0259C12.1041 12.7731 11.2325 13.8352 10.7178 15.0777C10.2031 16.3203 10.0685 17.6876 10.3309 19.0067C10.5932 20.3258 11.2409 21.5374 12.1919 22.4884C13.1429 23.4395 14.3546 24.0871 15.6737 24.3495C16.9928 24.6119 18.3601 24.4772 19.6026 23.9625C20.8452 23.4478 21.9072 22.5763 22.6545 21.458C23.4017 20.3397 23.8005 19.025 23.8005 17.68C23.8005 15.8765 23.084 14.1469 21.8088 12.8716C20.5335 11.5963 18.8038 10.8799 17.0003 10.8799ZM17.0003 23.1201C15.9244 23.1201 14.8726 22.8011 13.978 22.2033C13.0834 21.6055 12.3861 20.7559 11.9743 19.7619C11.5626 18.7678 11.4548 17.674 11.6648 16.6187C11.8747 15.5634 12.3928 14.5941 13.1536 13.8333C13.9144 13.0725 14.8837 12.5543 15.939 12.3444C16.9943 12.1345 18.0881 12.2423 19.0822 12.654C20.0762 13.0658 20.9259 13.763 21.5236 14.6577C22.1214 15.5523 22.4405 16.6041 22.4405 17.68C22.4405 19.1228 21.8673 20.5065 20.8471 21.5268C19.8269 22.547 18.4431 23.1201 17.0003 23.1201Z" fill="white"/>
<path d="M25.8409 8.16049H22.8624L22.298 7.03166C22.0393 6.56904 21.6668 6.18009 21.2158 5.90164C20.7648 5.62319 20.2502 5.46444 19.7207 5.44043H14.2806C13.7511 5.46444 13.2365 5.62319 12.7855 5.90164C12.3345 6.18009 11.962 6.56904 11.7034 7.03166L11.139 8.16049H8.16049C6.89803 8.16049 5.68728 8.662 4.79459 9.55469C3.9019 10.4474 3.40039 11.6581 3.40039 12.9206V23.8008C3.40039 25.0633 3.9019 26.274 4.79459 27.1667C5.68728 28.0594 6.89803 28.5609 8.16049 28.5609H25.8409C27.1033 28.5609 28.3141 28.0594 29.2068 27.1667C30.0994 26.274 30.601 25.0633 30.601 23.8008V12.9206C30.601 11.6581 30.0994 10.4474 29.2068 9.55469C28.3141 8.662 27.1033 8.16049 25.8409 8.16049ZM29.2409 23.8008C29.2409 24.7026 28.8827 25.5674 28.2451 26.205C27.6074 26.8427 26.7426 27.2009 25.8409 27.2009H8.16049C7.25873 27.2009 6.39391 26.8427 5.75628 26.205C5.11864 25.5674 4.76042 24.7026 4.76042 23.8008V12.9206C4.76042 12.0188 5.11864 11.154 5.75628 10.5164C6.39391 9.87874 7.25873 9.52051 8.16049 9.52051H11.5606C11.6861 9.52013 11.8092 9.48499 11.916 9.41897C12.0228 9.35296 12.1093 9.25865 12.1658 9.14651L12.9206 7.64368C13.0633 7.4046 13.2613 7.20326 13.498 7.05654C13.7346 6.90981 14.003 6.822 14.2806 6.80046H19.7207C19.9983 6.822 20.2667 6.90981 20.5034 7.05654C20.74 7.20326 20.938 7.4046 21.0808 7.64368L21.8356 9.14651C21.8921 9.25865 21.9785 9.35296 22.0854 9.41897C22.1922 9.48499 22.3152 9.52013 22.4408 9.52051H25.8409C26.7426 9.52051 27.6074 9.87874 28.2451 10.5164C28.8827 11.154 29.2409 12.0188 29.2409 12.9206V23.8008Z" fill="white"/>
</svg>
