<svg width="19" height="19" viewBox="0 0 19 19" fill="none" xmlns="http://www.w3.org/2000/svg">
<g clip-path="url(#clip0_35588_15529)">
<path d="M17.7367 9.74616C17.6603 9.58974 17.6603 9.41036 17.7367 9.25398L18.4454 7.80431C18.8399 6.99715 18.5273 6.03509 17.7337 5.61402L16.3083 4.85773C16.1545 4.77617 16.0491 4.631 16.019 4.45959L15.7403 2.87024C15.585 1.98534 14.7665 1.3907 13.8771 1.51654L12.2794 1.74253C12.107 1.76687 11.9365 1.71143 11.8114 1.59042L10.6517 0.468536C10.0059 -0.15616 8.99433 -0.156197 8.34863 0.468536L7.18889 1.59053C7.06376 1.71158 6.89325 1.76691 6.72084 1.74264L5.12318 1.51665C4.23348 1.39074 3.41523 1.98545 3.26 2.87035L2.98124 4.45963C2.95114 4.63107 2.84571 4.7762 2.69197 4.85781L1.26661 5.61409C0.47299 6.03513 0.160382 6.99726 0.554927 7.80442L1.26353 9.25406C1.33997 9.41047 1.33997 9.58986 1.26353 9.74623L0.55489 11.1959C0.160345 12.003 0.472953 12.9651 1.26657 13.3862L2.69193 14.1424C2.84571 14.224 2.95114 14.3692 2.98124 14.5406L3.26 16.1299C3.40131 16.9355 4.09206 17.5005 4.88594 17.5004C4.96413 17.5004 5.04347 17.4949 5.12321 17.4836L6.72087 17.2576C6.89317 17.2332 7.0638 17.2887 7.18893 17.4097L8.34863 18.5316C8.67155 18.844 9.08577 19.0001 9.50013 19.0001C9.91438 19.0001 10.3288 18.8439 10.6516 18.5316L11.8114 17.4097C11.9365 17.2887 12.107 17.2334 12.2794 17.2576L13.8771 17.4836C14.7669 17.6095 15.585 17.0148 15.7403 16.1299L16.0191 14.5406C16.0492 14.3692 16.1546 14.224 16.3083 14.1424L17.7337 13.3862C18.5273 12.9651 18.8399 12.003 18.4454 11.1958L17.7367 9.74616ZM7.30842 4.5688C8.41621 4.5688 9.31748 5.47007 9.31748 6.57785C9.31748 7.68564 8.41621 8.58691 7.30842 8.58691C6.20064 8.58691 5.29937 7.68564 5.29937 6.57785C5.29937 5.47007 6.20064 4.5688 7.30842 4.5688ZM6.27144 13.5036C6.16446 13.6106 6.02422 13.6641 5.88403 13.6641C5.74383 13.6641 5.60355 13.6106 5.49661 13.5036C5.28263 13.2896 5.28263 12.9427 5.49661 12.7287L12.7288 5.49653C12.9427 5.28256 13.2897 5.28256 13.5036 5.49653C13.7176 5.7105 13.7176 6.05743 13.5036 6.27141L6.27144 13.5036ZM11.6918 14.4314C10.584 14.4314 9.6827 13.5301 9.6827 12.4223C9.6827 11.3145 10.584 10.4133 11.6918 10.4133C12.7995 10.4133 13.7008 11.3145 13.7008 12.4223C13.7008 13.5301 12.7995 14.4314 11.6918 14.4314Z" fill="#1FACF3"/>
<path d="M11.6915 11.5088C11.188 11.5088 10.7783 11.9184 10.7783 12.422C10.7783 12.9255 11.188 13.3352 11.6915 13.3352C12.1951 13.3352 12.6047 12.9255 12.6047 12.422C12.6047 11.9184 12.1951 11.5088 11.6915 11.5088Z" fill="#1FACF3"/>
<path d="M7.3082 5.66504C6.80467 5.66504 6.39502 6.07469 6.39502 6.57822C6.39502 7.08176 6.80467 7.49144 7.3082 7.49144C7.81174 7.49144 8.22142 7.08179 8.22142 6.57822C8.22138 6.07472 7.81174 5.66504 7.3082 5.66504Z" fill="#1FACF3"/>
</g>
<defs>
<clipPath id="clip0_35588_15529">
<rect width="19" height="19" fill="white"/>
</clipPath>
</defs>
</svg>
