<svg width="26" height="26" viewBox="0 0 26 26" fill="none" xmlns="http://www.w3.org/2000/svg">
<path d="M13.0001 2.16663C7.03091 2.16663 2.16675 7.03079 2.16675 13C2.16675 18.9691 7.03091 23.8333 13.0001 23.8333C18.9692 23.8333 23.8334 18.9691 23.8334 13C23.8334 7.03079 18.9692 2.16663 13.0001 2.16663ZM16.6401 15.4916C16.9542 15.8058 16.9542 16.3258 16.6401 16.64C16.4776 16.8025 16.2717 16.8783 16.0659 16.8783C15.8601 16.8783 15.6542 16.8025 15.4917 16.64L13.0001 14.1483L10.5084 16.64C10.3459 16.8025 10.1401 16.8783 9.93425 16.8783C9.72842 16.8783 9.52258 16.8025 9.36008 16.64C9.04592 16.3258 9.04592 15.8058 9.36008 15.4916L11.8517 13L9.36008 10.5083C9.04592 10.1941 9.04592 9.67413 9.36008 9.35996C9.67425 9.04579 10.1942 9.04579 10.5084 9.35996L13.0001 11.8516L15.4917 9.35996C15.8059 9.04579 16.3259 9.04579 16.6401 9.35996C16.9542 9.67413 16.9542 10.1941 16.6401 10.5083L14.1484 13L16.6401 15.4916Z" fill="white"/>
</svg>
