<svg width="22" height="22" viewBox="0 0 22 22" fill="none" xmlns="http://www.w3.org/2000/svg">
<path d="M11.917 17.3327C11.917 16.136 12.8871 15.166 14.0837 15.166H19.5003C20.6969 15.166 21.667 16.136 21.667 17.3327V19.4993C21.667 20.696 20.6969 21.666 19.5003 21.666H14.0837C12.8871 21.666 11.917 20.696 11.917 19.4993V17.3327Z" fill="#1FACF3"/>
<path d="M11.917 2.16667C11.917 0.970049 12.8871 0 14.0837 0H19.5003C20.6969 0 21.667 0.970049 21.667 2.16667V10.8333C21.667 12.03 20.6969 13 19.5003 13H14.0837C12.8871 13 11.917 12.03 11.917 10.8333V2.16667Z" fill="#34D5E5"/>
<path d="M0 10.8327C0 9.63603 0.970136 8.66602 2.16667 8.66602H7.58333C8.77987 8.66602 9.75 9.63603 9.75 10.8327V19.4993C9.75 20.696 8.77987 21.666 7.58333 21.666H2.16667C0.970136 21.666 0 20.696 0 19.4993V10.8327Z" fill="#34D5E5"/>
<path d="M2.16667 0C0.970136 0 0 0.970049 0 2.16667V4.33333C0 5.52995 0.970136 6.5 2.16667 6.5H7.58333C8.77987 6.5 9.75 5.52995 9.75 4.33333V2.16667C9.75 0.970049 8.77987 0 7.58333 0H2.16667Z" fill="#1FACF3"/>
</svg>
