<svg width="27" height="27" viewBox="0 0 27 27" fill="none" xmlns="http://www.w3.org/2000/svg">
<path d="M4.21875 15.1875H2.53125V14.8162C2.53074 14.6583 2.57459 14.5033 2.65781 14.3691L5.56031 9.67781C5.63631 9.55622 5.74204 9.456 5.86753 9.38661C5.99301 9.31722 6.13411 9.28096 6.2775 9.28125H10.9687V7.59375C10.9687 7.36997 11.0576 7.15536 11.2159 6.99713C11.3741 6.8389 11.5887 6.75 11.8125 6.75H23.625C23.8488 6.75 24.0634 6.8389 24.2216 6.99713C24.3799 7.15536 24.4688 7.36997 24.4688 7.59375V18.5625C24.4688 18.7863 24.3799 19.0009 24.2216 19.1591C24.0634 19.3174 23.8488 19.4062 23.625 19.4062H20.8575C20.7081 19.6581 20.4957 19.8667 20.2413 20.0116C19.9868 20.1564 19.6991 20.2326 19.4062 20.2326C19.1134 20.2326 18.8257 20.1564 18.5712 20.0116C18.3168 19.8667 18.1044 19.6581 17.955 19.4062H9.045C8.89558 19.6581 8.68321 19.8667 8.42877 20.0116C8.17432 20.1564 7.88655 20.2326 7.59375 20.2326C7.30094 20.2326 7.01318 20.1564 6.75873 20.0116C6.50428 19.8667 6.29192 19.6581 6.1425 19.4062H3.375C3.15122 19.4062 2.93661 19.3174 2.77838 19.1591C2.62014 19.0009 2.53125 18.7863 2.53125 18.5625V16.875H4.21875C4.44253 16.875 4.65714 16.7861 4.81537 16.6279C4.9736 16.4696 5.0625 16.255 5.0625 16.0312C5.0625 15.8075 4.9736 15.5929 4.81537 15.4346C4.65714 15.2764 4.44253 15.1875 4.21875 15.1875ZM16.875 14.3438C16.875 14.5675 16.9639 14.7821 17.1221 14.9404C17.2804 15.0986 17.495 15.1875 17.7187 15.1875H21.0937C21.3175 15.1875 21.5321 15.0986 21.6904 14.9404C21.8486 14.7821 21.9375 14.5675 21.9375 14.3438V10.125C21.9375 9.90122 21.8486 9.68661 21.6904 9.52838C21.5321 9.37015 21.3175 9.28125 21.0937 9.28125H17.7187C17.495 9.28125 17.2804 9.37015 17.1221 9.52838C16.9639 9.68661 16.875 9.90122 16.875 10.125V14.3438Z" fill="#1FACF3"/>
</svg>
