<svg width="23" height="22" viewBox="0 0 23 22" fill="none" xmlns="http://www.w3.org/2000/svg">
<path d="M3.41417 12.8239C4.18817 9.09586 7.42378 6.44694 11.0634 6.44694C14.7019 6.44694 17.9375 9.09586 18.7127 12.8239C18.7434 12.9719 18.8314 13.1015 18.9574 13.1843C19.0834 13.2672 19.237 13.2964 19.3845 13.2656C19.532 13.2348 19.6613 13.1465 19.7438 13.0201C19.8264 12.8937 19.8556 12.7396 19.8249 12.5917C18.943 8.35138 15.2546 5.30859 11.0634 5.30859C6.87222 5.30859 3.18378 8.35138 2.30196 12.5917C2.27126 12.7396 2.30041 12.8937 2.38299 13.0201C2.46557 13.1465 2.59482 13.2348 2.7423 13.2656C2.88979 13.2964 3.04343 13.2672 3.16943 13.1843C3.29543 13.1015 3.38347 12.9719 3.41417 12.8239ZM11.0521 8.72362C12.1055 8.72362 13.1159 9.14338 13.8608 9.89056C14.6057 10.6377 15.0242 11.6511 15.0242 12.7078C15.0242 13.7645 14.6057 14.7779 13.8608 15.5251C13.1159 16.2723 12.1055 16.692 11.0521 16.692C9.99858 16.692 8.98825 16.2723 8.24332 15.5251C7.4984 14.7779 7.0799 13.7645 7.0799 12.7078C7.0799 11.6511 7.4984 10.6377 8.24332 9.89056C8.98825 9.14338 9.99858 8.72362 11.0521 8.72362Z" fill="#6A707C"/>
</svg>
