<svg width="26" height="26" viewBox="0 0 26 26" fill="none" xmlns="http://www.w3.org/2000/svg">
<path d="M18.4167 9.75033C18.4167 13.9428 14.7767 17.3337 10.2917 17.3337L9.28426 18.547L8.68842 19.262C8.17925 19.8687 7.20424 19.7386 6.86841 19.0128L5.41675 15.817C3.44508 14.4303 2.16675 12.2312 2.16675 9.75033C2.16675 5.55783 5.80675 2.16699 10.2917 2.16699C13.5634 2.16699 16.3909 3.97617 17.6584 6.57617C18.1459 7.54033 18.4167 8.61283 18.4167 9.75033Z" fill="#34D5E5"/>
<path d="M23.8333 13.932C23.8333 16.4128 22.555 18.612 20.5833 19.9987L19.1317 23.1945C18.7958 23.9203 17.8208 24.0612 17.3117 23.4437L15.7083 21.5153C13.0867 21.5153 10.7467 20.3562 9.28418 18.547L10.2917 17.3337C14.7767 17.3337 18.4167 13.9428 18.4167 9.75033C18.4167 8.61283 18.1458 7.54034 17.6583 6.57617C21.2008 7.38867 23.8333 10.3786 23.8333 13.932Z" fill="#1FACF3"/>
<path d="M12.9999 10.5625H7.58325C7.13909 10.5625 6.77075 10.1942 6.77075 9.75C6.77075 9.30583 7.13909 8.9375 7.58325 8.9375H12.9999C13.4441 8.9375 13.8124 9.30583 13.8124 9.75C13.8124 10.1942 13.4441 10.5625 12.9999 10.5625Z" fill="#34D5E5"/>
</svg>
