<svg width="36" height="36" viewBox="0 0 36 36" fill="none" xmlns="http://www.w3.org/2000/svg">
<path d="M32.6959 8.60183C29.1451 6.55212 24.6046 7.7701 22.5526 11.3209L17.3801 20.2812C15.8834 22.8686 17.8102 23.7727 19.9587 25.0609L24.9359 27.9336C26.6214 28.9058 28.7742 28.3286 29.7464 26.6454L35.0638 17.4371C36.8501 14.3428 35.7902 10.3882 32.6959 8.60183Z" fill="#EA4335"/>
<path d="M26.8431 12.3105L21.8659 9.43789C19.1184 7.91269 17.5624 7.81173 16.4344 9.60468L9.09368 22.3177C7.04394 25.8663 8.26412 30.4046 11.8127 32.45C14.907 34.2363 18.8616 33.1763 20.648 30.082L28.1292 17.1232C29.1057 15.4378 28.5286 13.2827 26.8431 12.3105Z" fill="#FBBC04"/>
<path d="M27.8011 5.77528L24.3052 3.7563C20.4384 1.52444 15.4941 2.84776 13.2623 6.71455L6.60619 18.2425C5.62303 19.9433 6.20678 22.1202 7.90758 23.1012L11.8227 25.3616C13.756 26.4787 16.227 25.8159 17.3441 23.8825L24.9482 10.713C26.5239 7.98519 30.011 7.05032 32.7388 8.626L27.8011 5.77528Z" fill="#34A853"/>
<path d="M14.2078 10.0128L10.4288 7.83583C8.74336 6.86584 6.59054 7.44081 5.61836 9.12184L1.08443 16.9564C-1.14743 20.8122 0.175882 25.7456 4.04267 27.9708L6.91973 29.6277L10.409 31.6379L11.9233 32.5091C9.23496 30.7096 8.38129 27.104 10.025 24.2642L11.1991 22.2364L15.4982 14.8079C16.4682 13.1313 15.891 10.9828 14.2078 10.0128Z" fill="#4285F4"/>
</svg>
