<svg width="32" height="36" viewBox="0 0 32 36" fill="none" xmlns="http://www.w3.org/2000/svg">
<path d="M24.6488 3.5484H23.8916L22.844 0.4044C22.8047 0.28657 22.7293 0.1841 22.6285 0.111516C22.5277 0.038932 22.4066 -8.36012e-05 22.2824 1.34504e-07H9.27199C9.14799 0.000168103 9.02717 0.0392998 8.92661 0.111866C8.82605 0.184432 8.75083 0.286764 8.71159 0.4044L7.66399 3.5484H6.90679C5.18198 3.55031 3.52834 4.23625 2.3086 5.45576C1.08886 6.67528 0.402614 8.32879 0.400391 10.0536V27.7968C0.400391 27.9537 0.462721 28.1042 0.573668 28.2151C0.684614 28.3261 0.835089 28.3884 0.991991 28.3884V29.5716C0.991991 29.8854 1.11665 30.1864 1.33854 30.4083C1.56043 30.6301 1.86139 30.7548 2.17519 30.7548H5.13199V31.938C5.13199 32.2518 5.25665 32.5528 5.47854 32.7747C5.70044 32.9965 6.00139 33.1212 6.31519 33.1212V34.3044C6.31519 34.6182 6.43985 34.9192 6.66174 35.1411C6.88364 35.3629 7.18459 35.4876 7.49839 35.4876H24.0584C24.3722 35.4876 24.6732 35.3629 24.895 35.1411C25.1169 34.9192 25.2416 34.6182 25.2416 34.3044V33.12C25.5554 33.12 25.8564 32.9953 26.0782 32.7735C26.3001 32.5516 26.4248 32.2506 26.4248 31.9368V30.7536H29.3804C29.6942 30.7536 29.9951 30.6289 30.217 30.4071C30.4389 30.1852 30.5636 29.8842 30.5636 29.5704V28.3872C30.6413 28.3872 30.7182 28.3719 30.79 28.3422C30.8618 28.3124 30.927 28.2689 30.9819 28.2139C31.0369 28.159 31.0804 28.0938 31.1102 28.022C31.1399 27.9502 31.1552 27.8733 31.1552 27.7956V10.0536C31.153 8.32879 30.4667 6.67528 29.247 5.45576C28.0272 4.23625 26.3736 3.55031 24.6488 3.5484ZM10.616 1.1832H20.936L15.776 6.8136L10.616 1.1832ZM22.04 1.7328L22.7384 3.8256L18.2024 5.9184L22.04 1.7328ZM9.51439 1.7328L13.3544 5.9172L8.81839 3.8244L9.51439 1.7328ZM2.17399 29.5728V28.3896H5.13079V29.5728H2.17399ZM24.056 34.3044H7.49599V33.12H24.056V34.3044ZM10.5524 31.9368L11.3216 26.9352C11.3842 26.5155 11.5961 26.1324 11.9183 25.8562C12.2406 25.58 12.6516 25.4293 13.076 25.4316H18.476C18.9002 25.4296 19.3109 25.5804 19.6329 25.8566C19.9549 26.1327 20.1666 26.5157 20.2292 26.9352L20.9984 31.9368H10.5524ZM25.2392 31.9368H22.1984L21.4004 26.76C21.2964 26.0602 20.9436 25.4213 20.4067 24.9607C19.8697 24.5 19.1847 24.2484 18.4772 24.252H13.0772C12.3697 24.2484 11.6847 24.5 11.1477 24.9607C10.6108 25.4213 10.2579 26.0602 10.154 26.76L9.35719 31.9404H6.31399V11.2368H5.13079V27.2052H1.58359V10.0536C1.58518 8.64229 2.14652 7.28923 3.14447 6.29129C4.14242 5.29334 5.49548 4.73199 6.90679 4.7304H7.96039L15.53 8.2248C15.6053 8.25916 15.6872 8.27695 15.77 8.27695C15.8528 8.27695 15.9346 8.25916 16.01 8.2248L23.5808 4.7304H24.6332C26.0445 4.73199 27.3976 5.29334 28.3955 6.29129C29.3935 7.28923 29.9548 8.64229 29.9564 10.0536V27.2052H26.4224V11.2368H25.2404L25.2392 31.9368ZM29.3792 29.5716H26.4224V28.3884H29.3804L29.3792 29.5716Z" fill="#00C2FF"/>
<path d="M17.5518 8.87207H18.7349V14.7857H17.5518V8.87207Z" fill="#00C2FF"/>
<path d="M17.5518 15.9688H18.7349V17.1519H17.5518V15.9688Z" fill="#00C2FF"/>
<path d="M12.8203 8.87207H14.0035V14.7857H12.8203V8.87207Z" fill="#00C2FF"/>
<path d="M12.8203 15.9688H14.0035V17.1519H12.8203V15.9688Z" fill="#00C2FF"/>
</svg>
