<svg width="512" height="400" viewBox="0 0 512 400" fill="none" xmlns="http://www.w3.org/2000/svg">
<path fill-rule="evenodd" clip-rule="evenodd" d="M48.183 1.85215C38.136 5.41615 31.983 14.0632 32.022 24.5662C32.061 35.0392 33.318 36.7042 65.751 69.2192C82.055 85.5652 95.193 99.1201 94.947 99.3401C94.701 99.5611 89.507 103.124 83.406 107.258C52.798 127.992 13.437 160.946 5.72202 172.297C-0.47698 181.418 -1.55198 194.197 2.99202 204.76C4.72002 208.778 7.89502 212.557 16.446 220.778C72.153 274.331 140.877 313.967 201.466 327.485C221.814 332.025 233.826 333.312 256 333.327C278.011 333.342 290.652 331.989 310.471 327.493L321.442 325.005L356.471 359.889C377.743 381.072 393.071 395.556 395.5 396.767C401.774 399.894 407.109 400.399 413.713 398.492C428.095 394.338 435.252 377.887 428.524 364.446C426.586 360.574 387.561 321.039 248.774 182.345C129.076 62.7292 70.167 4.52815 67.395 3.14915C61.195 0.06515 54.495 -0.386847 48.183 1.85215ZM231.761 49.0852C216.195 50.7312 183.082 57.5852 181.096 59.5712C180.82 59.8472 188.598 68.0872 198.382 77.8822L216.17 95.6902L222.495 93.3941C238.875 87.4481 264.336 86.3361 281.175 90.8311C311.749 98.9921 337.41 120.495 350.016 148.517C358.491 167.355 361.171 190.981 357.077 210.773C355.909 216.423 354.099 223.211 353.056 225.859L351.159 230.672L379.336 258.836C394.833 274.326 408 287 408.595 287C410.338 287 436.386 269.603 450.5 259.012C466.518 246.993 490.054 226.785 499.767 216.714C509.251 206.879 511.418 202.112 511.464 190.979C511.496 183.348 511.161 181.769 508.252 175.859C505.499 170.269 502.978 167.417 491.752 157.19C422.05 93.7002 351.997 57.5322 283.122 49.4752C269.759 47.9122 244.651 47.7212 231.761 49.0852ZM243.735 119.805C241.089 120.47 242.804 122.333 283.836 163.347L326.702 206.193L327.351 201.457C332.247 165.735 310.767 132.317 275.964 121.507C270.132 119.696 248.675 118.563 243.735 119.805ZM156.156 165.167C150.915 184.904 152.437 209.461 160.097 228.743C178.778 275.77 229.752 302.688 278.877 291.467L286.254 289.782L272.891 276.391C259.545 263.017 259.522 263 254.852 263C252.28 263 246.781 262.35 242.632 261.557C210.65 255.437 186.4 228.127 184.284 195.844L183.716 187.189L170.511 174.011L157.306 160.834L156.156 165.167Z" fill="black" fill-opacity="0.99"/>
</svg>
