<svg width="21" height="35" viewBox="0 0 21 35" fill="none" xmlns="http://www.w3.org/2000/svg">
<path d="M20.2654 0.200195H0.773791C0.621663 0.200195 0.475765 0.260628 0.368195 0.368199C0.260624 0.47577 0.200195 0.621668 0.200195 0.773796V34.0246C0.200195 34.1767 0.260624 34.3226 0.368195 34.4302C0.475765 34.5378 0.621663 34.5982 0.773791 34.5982H7.0798C7.22396 34.5987 7.36303 34.5449 7.46933 34.4475C7.57562 34.3501 7.64133 34.2163 7.65339 34.0726L9.3274 13.9606H11.7118L13.3858 34.0726C13.3979 34.2163 13.4636 34.3501 13.5699 34.4475C13.6762 34.5449 13.8152 34.5987 13.9594 34.5982H20.2654C20.3407 34.5982 20.4153 34.5834 20.4849 34.5545C20.5545 34.5257 20.6177 34.4835 20.671 34.4302C20.7242 34.3769 20.7665 34.3137 20.7953 34.2441C20.8242 34.1745 20.839 34.0999 20.839 34.0246V0.773796C20.839 0.621668 20.7786 0.47577 20.671 0.368199C20.5634 0.260628 20.4175 0.200195 20.2654 0.200195ZM18.5458 3.63939H19.6918V8.2258H19.1182C18.9661 8.2258 18.8202 8.16536 18.7126 8.05779C18.605 7.95022 18.5446 7.80432 18.5446 7.65219L18.5458 3.63939ZM19.6918 2.49339H12.2386V1.34739H19.6918V2.49339ZM9.9454 2.49339V1.34739H11.0914V2.49339H9.9454ZM8.7994 1.34739V2.49339H1.3462V1.34739H8.7994ZM1.3462 3.6406H2.4922V7.6534C2.4922 7.72872 2.47736 7.80331 2.44853 7.8729C2.4197 7.9425 2.37745 8.00573 2.32419 8.05899C2.27093 8.11226 2.20769 8.15451 2.1381 8.18333C2.06851 8.21216 1.99392 8.22699 1.91859 8.22699H1.345L1.3462 3.6406ZM1.3462 33.451V31.7314H6.6946L6.55179 33.451H1.3462ZM12.8122 13.339C12.8001 13.1953 12.7344 13.0615 12.6281 12.9641C12.5218 12.8667 12.3828 12.8129 12.2386 12.8134H8.7994C8.65523 12.8129 8.51616 12.8667 8.40987 12.9641C8.30357 13.0615 8.23786 13.1953 8.2258 13.339L6.793 30.5842H1.3474V9.37299H1.92099C2.37706 9.37299 2.81444 9.19182 3.13693 8.86934C3.45942 8.54685 3.64059 8.10946 3.64059 7.6534V3.63939H17.3998V7.65219C17.3998 8.10826 17.581 8.54565 17.9035 8.86814C18.2259 9.19062 18.6633 9.3718 19.1194 9.3718H19.693V30.5842H14.2402L12.8122 13.339ZM14.4862 33.451L14.3434 31.7314H19.6918V33.451H14.4862Z" fill="#00C2FF"/>
<path d="M7.65332 4.78613H8.79932V5.93214H7.65332V4.78613Z" fill="#00C2FF"/>
<path d="M7.65332 7.08008H8.79932V8.22608H7.65332V7.08008Z" fill="#00C2FF"/>
<path d="M12.2383 4.78613H13.3843V5.93214H12.2383V4.78613Z" fill="#00C2FF"/>
<path d="M12.2383 7.08008H13.3843V8.22608H12.2383V7.08008Z" fill="#00C2FF"/>
</svg>
