<svg width="25" height="30" viewBox="0 0 25 30" fill="none" xmlns="http://www.w3.org/2000/svg">
<path d="M19.6644 0.599609H5.28C3.87966 0.599609 2.53667 1.15589 1.54648 2.14609C0.556285 3.13628 0 4.47927 0 5.87961V25.0604C0 25.1877 0.0505709 25.3098 0.140588 25.3998C0.230606 25.4898 0.352698 25.5404 0.480002 25.5404H3.84V28.9004C3.84 29.0277 3.89057 29.1498 3.98059 29.2398C4.07061 29.3298 4.19269 29.3804 4.32 29.3804H20.6232C20.7505 29.3804 20.8726 29.3298 20.9626 29.2398C21.0526 29.1498 21.1032 29.0277 21.1032 28.9004V25.5404H24.4632C24.5905 25.5404 24.7126 25.4898 24.8026 25.3998C24.8926 25.3098 24.9432 25.1877 24.9432 25.0604V5.87961C24.9432 4.47947 24.3871 3.13667 23.3971 2.14651C22.4072 1.15635 21.0645 0.599928 19.6644 0.599609ZM16.3548 6.56961L17.1324 8.12961L13.512 10.7576L16.9428 1.99761L18.948 4.33761L16.5204 5.95641C16.4228 6.0209 16.3522 6.11879 16.3217 6.2317C16.2912 6.34461 16.303 6.46477 16.3548 6.56961ZM8.4168 5.95641L5.9916 4.33761L7.9968 1.99761L11.4252 10.7576L7.8 8.12481L8.58 6.56481C8.63184 6.45997 8.64362 6.33981 8.61313 6.2269C8.58264 6.11399 8.51197 6.0161 8.4144 5.95161L8.4168 5.95641ZM8.856 1.55961H16.08L12.4656 10.7996L8.856 1.55961ZM23.976 24.5816H20.9916L19.2 17.8484L21.0984 7.88841L20.1564 7.70961L18.2364 17.7812C18.2224 17.852 18.2249 17.9251 18.2436 17.9948L20.1456 25.1276V28.4216H4.8V25.1228L6.702 17.99C6.72042 17.9203 6.72288 17.8472 6.7092 17.7764L4.7892 7.70481L3.8472 7.88361L5.7456 17.8436L3.9456 24.5756H0.959999V5.87961C0.959999 5.3123 1.07174 4.75054 1.28884 4.22642C1.50594 3.70229 1.82415 3.22606 2.2253 2.82491C2.62645 2.42376 3.10268 2.10555 3.62681 1.88845C4.15093 1.67135 4.71269 1.55961 5.28 1.55961H7.1148L4.9152 4.12521C4.87093 4.17663 4.83806 4.23685 4.81876 4.30189C4.79946 4.36694 4.79417 4.43535 4.80325 4.50259C4.81232 4.56983 4.83554 4.63439 4.87138 4.692C4.90723 4.74961 4.95488 4.79896 5.0112 4.83681L7.5312 6.51681L6.7608 8.05641C6.71082 8.15779 6.69822 8.27356 6.72522 8.38332C6.75222 8.49308 6.81709 8.58979 6.9084 8.65641L11.9904 12.3596V15.9476H12.9504V12.3596L18.0288 8.66601C18.1201 8.59939 18.185 8.50268 18.212 8.39292C18.239 8.28316 18.2264 8.16739 18.1764 8.06601L17.4 6.51921L19.92 4.83921C20.0256 4.76823 20.0988 4.65819 20.1233 4.53329C20.1478 4.4084 20.1218 4.27888 20.0508 4.17321C20.0401 4.15731 20.0285 4.14208 20.016 4.12761L17.8296 1.55961H19.6644C20.8101 1.55961 21.9089 2.01475 22.7191 2.82491C23.5293 3.63507 23.9844 4.73387 23.9844 5.87961L23.976 24.5816Z" fill="#00C2FF"/>
<path d="M11.9902 16.9062H12.9502V17.8662H11.9902V16.9062Z" fill="#00C2FF"/>
<path d="M11.9902 18.8252H12.9502V19.7852H11.9902V18.8252Z" fill="#00C2FF"/>
<path d="M11.9902 20.7441H12.9502V21.7041H11.9902V20.7441Z" fill="#00C2FF"/>
<path d="M11.9902 22.6611H12.9502V23.6211H11.9902V22.6611Z" fill="#00C2FF"/>
<path d="M11.9902 24.5801H12.9502V25.5401H11.9902V24.5801Z" fill="#00C2FF"/>
<path d="M11.9902 26.499H12.9502V27.459H11.9902V26.499Z" fill="#00C2FF"/>
<path d="M14.3877 12.1104H18.2277V13.0704H14.3877V12.1104Z" fill="#00C2FF"/>
</svg>
