<svg width="55" height="34" viewBox="0 0 55 34" fill="none" xmlns="http://www.w3.org/2000/svg">
<g clip-path="url(#clip0_35563_5562)">
<path d="M54.4758 27.6385V26.9785H54.3039L54.1051 27.4314L53.9074 26.9785H53.735V27.6385H53.8571V27.1413L54.043 27.5703H54.1695L54.3554 27.1402V27.6385H54.4764H54.4758ZM53.3854 27.6385V27.0915H53.6054V26.9802H53.0433V27.0915H53.2633V27.6385H53.3843H53.3854Z" fill="#F79410"/>
<path d="M34.9407 30.4683H20.067V3.73828H34.9409L34.9407 30.4683Z" fill="#FF5F00"/>
<path d="M21.01 17.1052C21.01 11.683 23.5488 6.85289 27.5022 3.74016C24.5097 1.38052 20.8084 0.0998564 16.9975 0.105487C7.6098 0.105487 0 7.71639 0 17.1052C0 26.4939 7.6098 34.1048 16.9975 34.1048C20.8085 34.1105 24.5099 32.8299 27.5025 30.4702C23.5494 27.358 21.01 22.5276 21.01 17.1052Z" fill="#EB001B"/>
<path d="M55.0069 17.1052C55.0069 26.4939 47.3971 34.1048 38.0094 34.1048C34.198 34.1104 30.4962 32.8298 27.5031 30.4702C31.4576 27.3574 33.9964 22.5276 33.9964 17.1052C33.9964 11.6827 31.4576 6.85289 27.5031 3.74016C30.4961 1.38059 34.1978 0.0999551 38.0092 0.105487C47.3968 0.105487 55.0066 7.71639 55.0066 17.1052" fill="#F79E1B"/>
</g>
<defs>
<clipPath id="clip0_35563_5562">
<rect width="55" height="34" fill="white"/>
</clipPath>
</defs>
</svg>
