<svg width="26" height="26" viewBox="0 0 26 26" fill="none" xmlns="http://www.w3.org/2000/svg">
<path d="M19.8575 6.14282L7.13918 18.8611C6.66251 19.3378 5.86084 19.2728 5.47084 18.7095C4.1275 16.7486 3.33667 14.4303 3.33667 12.047V7.29115C3.33667 6.40282 4.00834 5.39532 4.83168 5.05949L10.8658 2.58949C12.2309 2.02616 13.7475 2.02616 15.1125 2.58949L19.4892 4.37699C20.215 4.66949 20.3992 5.60116 19.8575 6.14282Z" fill="#1FACF3"/>
<path d="M20.8759 7.62676C21.5801 7.03093 22.6526 7.54008 22.6526 8.46091V12.0467C22.6526 17.3442 18.8068 22.3059 13.5526 23.7576C13.1951 23.8551 12.8051 23.8551 12.4368 23.7576C10.8984 23.3242 9.46841 22.5984 8.24425 21.6451C7.72425 21.2443 7.6701 20.4859 8.1251 20.0201C10.4868 17.6043 17.3984 10.5626 20.8759 7.62676Z" fill="#34D5E5"/>
<circle cx="8" cy="9" r="2" fill="#34D5E5"/>
</svg>
