<svg width="34" height="34" viewBox="0 0 34 34" fill="none" xmlns="http://www.w3.org/2000/svg">
<g clip-path="url(#clip0_35565_5991)">
<path d="M20.9069 0.459312C17.6358 -0.313049 14.2091 -0.0980976 11.0601 1.07699C7.91118 2.25207 5.18136 4.33451 3.21588 7.06099C1.2504 9.78746 0.137518 13.0355 0.0179606 16.3945C-0.101597 19.7534 0.777539 23.0724 2.5442 25.9317C4.31087 28.791 6.88572 31.0623 9.94317 32.4583C13.0006 33.8543 16.4034 34.3123 19.7211 33.7745C23.0389 33.2366 26.1227 31.7271 28.5825 29.4367C31.0424 27.1463 32.7678 24.1779 33.5407 20.9069C34.054 18.7347 34.1343 16.4827 33.7771 14.2795C33.42 12.0763 32.6323 9.96504 31.4591 8.06627C30.286 6.16749 28.7502 4.51841 26.9397 3.2132C25.1291 1.90798 23.0792 0.97221 20.9069 0.459312Z" fill="#5F259F"/>
<path d="M24.7142 12.5647C24.705 12.2416 24.5716 11.9345 24.3417 11.7072C24.1119 11.4799 23.8033 11.35 23.4801 11.3444H21.2002L15.979 5.34851C15.7348 5.07409 15.4175 4.87479 15.0643 4.77386C14.711 4.67294 14.3364 4.67456 13.984 4.77852L12.1745 5.34851C12.1102 5.37031 12.0521 5.40736 12.0052 5.45648C11.9584 5.50561 11.9241 5.56535 11.9053 5.6306C11.8866 5.69586 11.8839 5.76469 11.8975 5.8312C11.9111 5.89772 11.9407 5.95995 11.9836 6.01257L17.6862 11.4247H9.04785C8.9851 11.4219 8.92247 11.4323 8.86396 11.4551C8.80545 11.4779 8.75235 11.5127 8.70807 11.5573C8.66379 11.6018 8.6293 11.6551 8.60681 11.7138C8.58432 11.7724 8.57433 11.8351 8.57747 11.8978V12.8469C8.58316 13.1724 8.715 13.483 8.94521 13.7132C9.17541 13.9434 9.48601 14.0752 9.81152 14.0809H11.1424V18.6408C11.1424 22.058 12.9464 24.0529 15.9845 24.0529C16.8943 24.0809 17.7999 23.9188 18.6435 23.577V26.6206C18.6409 26.8209 18.6785 27.0196 18.7539 27.205C18.8293 27.3905 18.9411 27.559 19.0827 27.7006C19.2242 27.8421 19.3927 27.9539 19.5782 28.0294C19.7637 28.1048 19.9624 28.1423 20.1626 28.1397H21.4907C21.6385 28.1294 21.7775 28.066 21.8823 27.9613C21.987 27.8565 22.0504 27.7175 22.0607 27.5697V13.9896H24.2383C24.3017 13.9932 24.3652 13.9834 24.4246 13.9608C24.484 13.9381 24.5379 13.9032 24.5828 13.8583C24.6278 13.8133 24.6627 13.7594 24.6853 13.7C24.708 13.6406 24.7178 13.5772 24.7142 13.5137V12.5647ZM18.6269 20.7299C18.0281 20.9918 17.3796 21.1211 16.7261 21.1089C15.207 21.1089 14.4489 20.3508 14.4489 18.6408V14.0837H18.6269V20.7243V20.7299Z" fill="white"/>
</g>
<defs>
<clipPath id="clip0_35565_5991">
<rect width="34" height="34" fill="white"/>
</clipPath>
</defs>
</svg>
