<svg width="26" height="26" viewBox="0 0 26 26" fill="none" xmlns="http://www.w3.org/2000/svg">
<path d="M15.7052 5.54314L17.2306 4.05626C17.3392 3.95045 17.4161 3.81634 17.4525 3.66911C17.4889 3.52187 17.4833 3.36739 17.4365 3.22314C17.3896 3.07889 17.3033 2.95064 17.1874 2.85289C17.0714 2.75515 16.9304 2.69181 16.7803 2.67006L14.6717 2.36383L13.7291 0.453071C13.6542 0.326366 13.5477 0.221363 13.4199 0.148418C13.2921 0.0754739 13.1474 0.0371094 13.0003 0.0371094C12.8531 0.0371094 12.7085 0.0754739 12.5807 0.148418C12.4529 0.221363 12.3463 0.326366 12.2715 0.453071L11.329 2.36375L9.22036 2.66998C9.07027 2.69173 8.92925 2.75507 8.81328 2.85281C8.69731 2.95056 8.61102 3.07881 8.56416 3.22306C8.5173 3.36731 8.51176 3.52179 8.54815 3.66903C8.58454 3.81626 8.66142 3.95037 8.77008 4.05618L10.2955 5.54306L9.9352 7.64329C9.90954 7.79274 9.92622 7.9464 9.98334 8.08687C10.0405 8.22733 10.1358 8.34901 10.2585 8.43814C10.3811 8.52726 10.5263 8.58027 10.6776 8.59117C10.8288 8.60208 10.9801 8.57043 11.1143 8.49983L13.0003 7.50809L14.8863 8.49991C15.0205 8.57052 15.1718 8.60216 15.3231 8.59126C15.4743 8.58035 15.6195 8.52734 15.7422 8.43822C15.8649 8.3491 15.9602 8.22742 16.0173 8.08695C16.0744 7.94648 16.0911 7.79282 16.0654 7.64337L15.7052 5.54314Z" fill="#1FACF3"/>
<path d="M25.9605 5.6247C25.9136 5.48048 25.8273 5.35226 25.7114 5.25452C25.5954 5.15679 25.4544 5.09343 25.3043 5.07163L23.1961 4.76532L22.2527 2.85472C22.1779 2.72795 22.0714 2.62287 21.9436 2.54987C21.8159 2.47687 21.6712 2.43848 21.5241 2.43848C21.3769 2.43848 21.2323 2.47687 21.1045 2.54987C20.9767 2.62287 20.8702 2.72795 20.7955 2.85472L19.853 4.76532L17.7448 5.07163C17.5947 5.09338 17.4538 5.15668 17.3378 5.25437C17.2219 5.35207 17.1356 5.48025 17.0887 5.62444C17.0418 5.76862 17.0362 5.92305 17.0725 6.07026C17.1088 6.21746 17.1855 6.35158 17.2941 6.45743L18.8199 7.9443L18.4596 10.0446C18.4339 10.194 18.4505 10.3477 18.5076 10.4882C18.5647 10.6286 18.6599 10.7503 18.7826 10.8395C18.9052 10.9287 19.0503 10.9817 19.2016 10.9927C19.3528 11.0037 19.5041 10.9721 19.6383 10.9016L21.524 9.91031L23.41 10.9016C23.5442 10.9722 23.6955 11.0038 23.8467 10.9929C23.998 10.982 24.1432 10.929 24.2659 10.8399C24.3885 10.7507 24.4838 10.6291 24.541 10.4886C24.5981 10.3481 24.6148 10.1945 24.5891 10.045L24.2289 7.94471L25.7544 6.45784C25.8631 6.35205 25.94 6.21794 25.9764 6.0707C26.0129 5.92346 26.0074 5.76897 25.9605 5.6247Z" fill="#1FACF3"/>
<path d="M8.25554 5.07219L6.14735 4.76588L5.20485 2.85528C5.13775 2.71932 5.03396 2.60485 4.9052 2.52481C4.77644 2.44476 4.62785 2.40234 4.47624 2.40234C4.32462 2.40234 4.17604 2.44476 4.04728 2.52481C3.91852 2.60485 3.81472 2.71932 3.74763 2.85528L2.80415 4.76588L0.695877 5.07219C0.545795 5.09396 0.404801 5.15729 0.288846 5.25503C0.172892 5.35277 0.0866061 5.48101 0.0397516 5.62524C-0.00710291 5.76948 -0.0126558 5.92394 0.0237211 6.07117C0.0600979 6.21839 0.136953 6.3525 0.245589 6.45831L1.7713 7.94527L1.41104 10.0456C1.38538 10.195 1.40206 10.3487 1.45918 10.4892C1.51631 10.6296 1.61161 10.7513 1.73429 10.8404C1.85698 10.9296 2.00216 10.9826 2.15341 10.9935C2.30466 11.0044 2.45594 10.9727 2.59014 10.9021L4.4762 9.91087L6.36185 10.9021C6.49605 10.9727 6.64733 11.0044 6.79858 10.9935C6.94982 10.9826 7.095 10.9296 7.21769 10.8404C7.34038 10.7513 7.43568 10.6296 7.4928 10.4892C7.54993 10.3487 7.56661 10.195 7.54095 10.0456L7.18068 7.94527L8.70648 6.45839C8.81503 6.35254 8.89179 6.21843 8.92809 6.07122C8.96439 5.92401 8.95878 5.76959 8.91189 5.6254C8.865 5.48122 8.7787 5.35303 8.66275 5.25534C8.5468 5.15765 8.40559 5.09394 8.25554 5.07219Z" fill="#1FACF3"/>
<path d="M21.125 12.1875H4.875C4.22875 12.1882 3.60918 12.4452 3.15221 12.9022C2.69524 13.3592 2.43821 13.9788 2.4375 14.625V21.125C2.43821 21.7712 2.69524 22.3908 3.15221 22.8478C3.60918 23.3048 4.22875 23.5618 4.875 23.5625H10.226L12.4256 25.7619C12.501 25.8374 12.5905 25.8973 12.6891 25.9381C12.7877 25.979 12.8933 26 13 26C13.1067 26 13.2123 25.979 13.3109 25.9381C13.4095 25.8973 13.499 25.8374 13.5744 25.7619L15.774 23.5625H21.125C21.7712 23.5618 22.3908 23.3048 22.8478 22.8478C23.3048 22.3908 23.5618 21.7712 23.5625 21.125V14.625C23.5618 13.9788 23.3048 13.3592 22.8478 12.9022C22.3908 12.4452 21.7712 12.1882 21.125 12.1875ZM19.5 20.3125H6.5C6.28451 20.3125 6.07785 20.2269 5.92548 20.0745C5.7731 19.9222 5.6875 19.7155 5.6875 19.5C5.6875 19.2845 5.7731 19.0778 5.92548 18.9255C6.07785 18.7731 6.28451 18.6875 6.5 18.6875H19.5C19.7155 18.6875 19.9222 18.7731 20.0745 18.9255C20.2269 19.0778 20.3125 19.2845 20.3125 19.5C20.3125 19.7155 20.2269 19.9222 20.0745 20.0745C19.9222 20.2269 19.7155 20.3125 19.5 20.3125ZM19.5 17.0625H6.5C6.28451 17.0625 6.07785 16.9769 5.92548 16.8245C5.7731 16.6722 5.6875 16.4655 5.6875 16.25C5.6875 16.0345 5.7731 15.8278 5.92548 15.6755C6.07785 15.5231 6.28451 15.4375 6.5 15.4375H19.5C19.7155 15.4375 19.9222 15.5231 20.0745 15.6755C20.2269 15.8278 20.3125 16.0345 20.3125 16.25C20.3125 16.4655 20.2269 16.6722 20.0745 16.8245C19.9222 16.9769 19.7155 17.0625 19.5 17.0625Z" fill="#34D5E5"/>
</svg>
