<svg width="30" height="30" viewBox="0 0 30 30" fill="none" xmlns="http://www.w3.org/2000/svg">
<path d="M28.6868 12.128L26.9552 4.85601V1.07961C26.9552 0.952305 26.9046 0.830215 26.8146 0.740198C26.7246 0.65018 26.6025 0.599609 26.4752 0.599609H3.47961C3.3523 0.599609 3.23021 0.65018 3.1402 0.740198C3.05018 0.830215 2.99961 0.952305 2.99961 1.07961V4.85721L1.26801 12.1292C0.82555 13.9831 0.60123 15.8824 0.599609 17.7884V28.8728C0.599609 29.0001 0.65018 29.1222 0.740198 29.2122C0.830215 29.3022 0.952305 29.3528 1.07961 29.3528H28.8728C29.0001 29.3528 29.1222 29.3022 29.2122 29.2122C29.3022 29.1222 29.3528 29.0001 29.3528 28.8728V17.7884C29.3521 15.8821 29.1285 13.9824 28.6868 12.128ZM4.91241 1.55961V3.47961H5.87241V1.55961H6.83241V3.47961H7.79241V1.55961H8.75241V3.47961H9.71241V1.55961H10.6724V3.47961H11.6324V1.55961H12.5924V3.47961H13.5524V1.55961H14.5124V3.47961H15.4724V1.55961H16.4324V3.47961H17.3924V1.55961H18.3524V3.47961H19.3124V1.55961H20.2724V3.47961H21.2324V1.55961H22.1924V3.47961H23.1524V1.55961H24.1124V3.47961H25.0724V1.55961H26.0324V4.43961H3.95961V1.55961H4.91241ZM28.394 28.394H1.55961V17.7884C1.55985 15.9569 1.77411 14.1318 2.19801 12.35L3.85521 5.39001H8.47161C8.17401 6.02241 7.75161 7.07001 7.10121 8.81841C6.15081 11.082 5.57411 13.4848 5.39361 15.9332V26.4752H6.35361V15.9344C6.35361 12.6236 8.95401 6.69441 9.54321 5.39241H12.5024C12.1892 7.41801 11.1452 14.3252 11.1452 16.4144V24.0812H12.1052V16.4132C12.1052 14.366 13.1972 7.17321 13.4744 5.39121H16.484C16.7564 7.23081 17.8556 14.7752 17.8556 16.4132V24.08H18.8156V16.4132C18.8156 14.7332 17.7608 7.47561 17.4548 5.39121H20.3996C20.984 6.76041 23.5976 13.058 23.5976 15.9332V26.4752H24.5576V15.9344C24.3431 13.5499 23.7681 11.2117 22.8524 8.99961C22.1816 7.13721 21.758 6.04161 21.4664 5.38761H26.0984L27.7556 12.3476C28.1795 14.1294 28.3938 15.9545 28.394 17.786V28.394Z" fill="#00C2FF"/>
</svg>
