<svg width="33" height="36" viewBox="0 0 33 36" fill="none" xmlns="http://www.w3.org/2000/svg">
<path d="M2.83516 4.34999L1.09375 32.004L6.38359 31.7364V35.4864L26.6061 35.2188V31.2012L32.1631 31.7364L30.1545 4.34999L20.043 0.466797H12.7434L2.83516 4.34999Z" fill="#BBEFFF"/>
<path d="M30.9176 4.14841C30.91 4.03349 30.8696 3.92317 30.8011 3.83061C30.7326 3.73805 30.6389 3.66716 30.5312 3.62641L20.96 0.0372087C20.8924 0.0122261 20.8208 -0.000375326 20.7488 8.5115e-06H12.374C12.3023 -0.000231519 12.2312 0.0123676 12.164 0.0372087L2.58916 3.62641C2.48122 3.66697 2.38727 3.73778 2.31853 3.83036C2.24979 3.92293 2.20918 4.03336 2.20156 4.14841L0.401558 31.6656C0.391678 31.8238 0.444816 31.9795 0.54937 32.0987C0.653923 32.2179 0.801393 32.2908 0.959558 32.3016H5.79316V35.292C5.79316 35.4511 5.85637 35.6037 5.96889 35.7163C6.08142 35.8288 6.23403 35.892 6.39316 35.892H26.7308C26.8899 35.892 27.0425 35.8288 27.155 35.7163C27.2675 35.6037 27.3308 35.4511 27.3308 35.292V32.3028H32.1092C32.2683 32.3028 32.4209 32.2396 32.5334 32.1271C32.6459 32.0145 32.7092 31.8619 32.7092 31.7028C32.7092 31.6896 32.7092 31.6764 32.7092 31.6632L30.9176 4.14841ZM22.25 1.80001L20.1968 6.24961C19.8029 5.78187 19.2445 5.4833 18.6368 5.41561L20.5376 1.20001H20.6396L22.25 1.80001ZM17.1956 5.70361C16.9587 5.82662 16.7445 5.98892 16.562 6.18361C16.3801 5.98522 16.1649 5.82031 15.926 5.69641L13.898 1.20001H19.226L17.1956 5.70361ZM12.4832 1.20001H12.5852L14.4848 5.41921C13.8771 5.4869 13.3186 5.78547 12.9248 6.25321L10.8692 1.80001L12.4832 1.20001ZM1.64716 31.11L1.72636 29.91H5.79436V31.11H1.64716ZM5.79316 10.1688V28.7136H1.80196L3.37395 4.61161L9.74836 2.22121L12.4292 8.02681C12.4876 8.14892 12.5856 8.24769 12.7072 8.30707C12.8288 8.36645 12.967 8.38295 13.0992 8.3539C13.2314 8.32484 13.3499 8.25194 13.4354 8.14702C13.521 8.04211 13.5685 7.91136 13.5704 7.77601C13.5719 7.57901 13.622 7.38544 13.7161 7.21238C13.8102 7.03931 13.9455 6.89208 14.11 6.78369C14.2745 6.67529 14.4632 6.60905 14.6593 6.59083C14.8555 6.57261 15.0531 6.60296 15.2348 6.67921C15.4518 6.76837 15.6372 6.92049 15.767 7.11598C15.8969 7.31146 15.9652 7.54135 15.9632 7.77601V34.6956H6.98956V10.1688H5.79316ZM26.132 10.1688V34.6956H17.1596V7.77601C17.1586 7.53845 17.2291 7.30609 17.3621 7.10919C17.495 6.91228 17.6841 6.75995 17.9048 6.67201C18.047 6.60983 18.2007 6.57834 18.356 6.57961C18.6742 6.57961 18.9794 6.70604 19.2045 6.93108C19.4295 7.15612 19.556 7.46135 19.556 7.77961C19.5562 7.91581 19.6028 8.04787 19.6881 8.15407C19.7734 8.26028 19.8922 8.33432 20.0252 8.36401C20.0673 8.37309 20.1104 8.37751 20.1536 8.37721C20.2679 8.37704 20.3798 8.34419 20.4761 8.28253C20.5724 8.22088 20.6491 8.13299 20.6972 8.02921L23.3768 2.22721L29.7512 4.61401L31.3232 28.716H27.3284V10.1688H26.132ZM27.332 31.1052V29.9052H31.4L31.478 31.1052H27.332Z" fill="#00C2FF"/>
<path d="M18.3564 9.57129H19.5564V10.7713H18.3564V9.57129Z" fill="#00C2FF"/>
<path d="M18.3564 13.1602H19.5564V14.3602H18.3564V13.1602Z" fill="#00C2FF"/>
<path d="M18.3564 16.75H19.5564V17.95H18.3564V16.75Z" fill="#00C2FF"/>
<path d="M18.3564 20.3389H19.5564V21.5389H18.3564V20.3389Z" fill="#00C2FF"/>
<path d="M18.3564 23.9277H19.5564V25.1277H18.3564V23.9277Z" fill="#00C2FF"/>
<path d="M18.3564 27.5176H19.5564V28.7176H18.3564V27.5176Z" fill="#00C2FF"/>
<path d="M18.3564 31.1064H19.5564V32.3065H18.3564V31.1064Z" fill="#00C2FF"/>
<path d="M9.38516 14.9546H12.9744C13.1335 14.9546 13.2861 14.8913 13.3986 14.7788C13.5111 14.6663 13.5744 14.5137 13.5744 14.3546V10.7689C13.5744 10.6098 13.5111 10.4572 13.3986 10.3447C13.2861 10.2322 13.1335 10.1689 12.9744 10.1689H9.38516C9.22603 10.1689 9.07342 10.2322 8.9609 10.3447C8.84838 10.4572 8.78516 10.6098 8.78516 10.7689V14.3581C8.78611 14.5166 8.84975 14.6683 8.96216 14.7801C9.07458 14.8918 9.22665 14.9546 9.38516 14.9546ZM9.98516 11.3689H12.378V13.7618H9.98516V11.3689Z" fill="#00C2FF"/>
</svg>
