<svg width="22" height="24" viewBox="0 0 22 24" fill="none" xmlns="http://www.w3.org/2000/svg">
<g opacity="0.4" clip-path="url(#clip0_41799_439)">
<path d="M15.8406 20.1263C15.7992 20.2738 15.7675 20.399 15.729 20.5214C15.259 22.0361 14.2873 23.0862 12.8332 23.6759C12.122 23.9638 11.3722 24.0612 10.6156 23.9638C8.83897 23.7357 7.54615 22.8024 6.75915 21.1737C6.642 20.9303 6.56757 20.6646 6.47799 20.4073C6.43802 20.2905 6.43526 20.2849 6.31259 20.3211C5.80263 20.4727 5.28165 20.5478 4.75101 20.5228C3.65666 20.4713 2.6836 20.0985 1.84148 19.3878C1.11375 18.7744 0.612056 18.0066 0.332267 17.0956C0.129661 16.4377 0.0745298 15.7631 0.158604 15.0774C0.260597 14.2414 0.556925 13.4834 1.05035 12.806C1.18817 12.6169 1.35081 12.4458 1.5038 12.2664C1.53274 12.2316 1.56582 12.201 1.60579 12.1565C1.56444 12.112 1.53412 12.0744 1.49829 12.041C0.818797 11.3887 0.366724 10.6015 0.142065 9.68486C-0.0150579 9.04921 -0.0453799 8.40244 0.0676385 7.75568C0.355698 6.10468 1.25433 4.90433 2.73322 4.15324C3.47197 3.7777 4.26724 3.63444 5.09558 3.68312C5.41258 3.7012 5.72545 3.74849 6.03143 3.83055C6.07415 3.84168 6.11964 3.84307 6.16925 3.84864C6.20647 3.71233 6.23955 3.58854 6.27676 3.46475C6.61857 2.33116 7.28014 1.43681 8.25872 0.784482C8.84035 0.39642 9.47987 0.153013 10.1704 0.0514769C12.3177 -0.267039 14.3217 0.856809 15.2259 2.76512C15.3499 3.02661 15.4312 3.30897 15.5264 3.58297C15.5649 3.69286 15.5705 3.70259 15.6807 3.6706C16.1865 3.52177 16.702 3.43832 17.2285 3.46475C18.7625 3.54264 20.0044 4.19219 20.9361 5.42731C21.3509 5.97671 21.6238 6.59566 21.7713 7.26886C21.8898 7.81549 21.916 8.36767 21.8444 8.92542C21.7396 9.75579 21.4447 10.5097 20.954 11.1815C20.8051 11.3859 20.6273 11.5681 20.4633 11.7615C20.4454 11.7823 20.4302 11.8046 20.4041 11.8394C21.4364 12.8172 21.9877 14.0147 22.0015 15.446C22.0097 16.3348 21.7851 17.1679 21.3316 17.9329C20.7693 18.8829 19.9768 19.5686 18.9583 19.9761C17.9425 20.3837 16.9046 20.4157 15.8406 20.1263ZM6.90525 11.9618C6.92041 12.1537 6.93006 12.3526 6.95487 12.5501C7.08718 13.6072 7.51858 14.521 8.28077 15.2582C9.27726 16.2221 10.4708 16.6185 11.8395 16.4015C12.8084 16.2485 13.6202 15.7784 14.2666 15.0384C15.1584 14.0189 15.5208 12.8186 15.394 11.4694C15.3169 10.6446 15.0357 9.8921 14.5478 9.22725C13.7897 8.19381 12.7795 7.58599 11.5045 7.47054C10.6045 7.38848 9.75828 7.59155 8.99747 8.0881C7.61368 8.99358 6.96727 10.3135 6.90525 11.9618Z" fill="#6E97AE"/>
</g>
<defs>
<clipPath id="clip0_41799_439">
<rect width="22" height="24" fill="white"/>
</clipPath>
</defs>
</svg>
