<svg width="30" height="30" viewBox="0 0 30 30" fill="none" xmlns="http://www.w3.org/2000/svg">
<path d="M27.8588 6.56481L26.978 4.79961V1.07961C26.978 0.952305 26.9274 0.830215 26.8374 0.740198C26.7474 0.65018 26.6253 0.599609 26.498 0.599609H3.47961C3.35231 0.599609 3.23022 0.65018 3.1402 0.740198C3.05018 0.830215 2.99961 0.952305 2.99961 1.07961V4.79961L2.11761 6.56241C1.12219 8.55889 0.602623 10.7587 0.599609 12.9896V28.8956C0.599609 29.0229 0.65018 29.145 0.740198 29.235C0.830215 29.325 0.952305 29.3756 1.07961 29.3756H13.5488C13.6761 29.3756 13.7982 29.325 13.8882 29.235C13.9782 29.145 14.0288 29.0229 14.0288 28.8956V16.9064C14.0288 16.6518 14.13 16.4076 14.31 16.2276C14.49 16.0476 14.7342 15.9464 14.9888 15.9464C15.2434 15.9464 15.4876 16.0476 15.6676 16.2276C15.8477 16.4076 15.9488 16.6518 15.9488 16.9064V28.8956C15.9488 29.0229 15.9994 29.145 16.0894 29.235C16.1794 29.325 16.3015 29.3756 16.4288 29.3756H28.8956C29.0229 29.3756 29.145 29.325 29.235 29.235C29.325 29.145 29.3756 29.0229 29.3756 28.8956V12.9896C29.3726 10.7597 28.8535 8.56066 27.8588 6.56481ZM28.3388 11.63H26.2292L23.6216 9.02241V5.39961H26.2028L26.9996 6.99441C27.7224 8.44627 28.1773 10.0166 28.3424 11.63H28.3388ZM26.0156 4.43001H17.8652V1.55961H26.018L26.0156 4.43001ZM13.0664 4.43001V1.55961H16.9064V4.43961L13.0664 4.43001ZM12.1064 1.55001V4.43001H3.95961V1.55961L12.1064 1.55001ZM2.97081 6.98601L3.77361 5.39961H6.35961V9.02721L3.75201 11.6348H1.63281C1.797 10.0199 2.2515 8.44783 2.97441 6.99441L2.97081 6.98601ZM28.4108 28.4084H16.9064V26.4884H24.1064V25.5284H16.9064V16.9064C16.9064 16.3972 16.7041 15.9088 16.3441 15.5488C15.984 15.1887 15.4956 14.9864 14.9864 14.9864C14.4772 14.9864 13.9888 15.1887 13.6288 15.5488C13.2687 15.9088 13.0664 16.3972 13.0664 16.9064V28.4168H1.55961V26.4968H8.75961V25.5368H1.55961V12.9896C1.55961 12.8564 1.56681 12.722 1.57161 12.5888H3.94641C4.00946 12.5889 4.07191 12.5765 4.13018 12.5524C4.18845 12.5283 4.2414 12.493 4.28601 12.4484L7.17441 9.56001C7.21897 9.5154 7.25431 9.46245 7.2784 9.40418C7.30249 9.34591 7.31486 9.28346 7.31481 9.22041V5.39961H22.6616V9.22521C22.6616 9.28826 22.6739 9.35071 22.698 9.40898C22.7221 9.46725 22.7575 9.5202 22.802 9.56481L25.6904 12.4532C25.735 12.4978 25.788 12.5331 25.8462 12.5572C25.9045 12.5813 25.967 12.5937 26.03 12.5936H28.4048C28.4048 12.7268 28.4168 12.8612 28.4168 12.9944L28.4108 28.4084Z" fill="#00C2FF"/>
</svg>
