<svg width="36" height="33" viewBox="0 0 36 33" fill="none" xmlns="http://www.w3.org/2000/svg">
<path d="M15.3662 1.82935C16.5032 -0.255469 19.4968 -0.255465 20.6338 1.82936L23.8602 7.74541C24.2917 8.53659 25.056 9.09189 25.9418 9.25777L32.5653 10.4981C34.8995 10.9352 35.8245 13.7823 34.1931 15.5079L29.5636 20.4045C28.9445 21.0594 28.6525 21.9579 28.7685 22.8516L29.6356 29.5342C29.9412 31.8892 27.5194 33.6488 25.3741 32.6304L19.2865 29.7407C18.4724 29.3542 17.5276 29.3542 16.7135 29.7407L10.6259 32.6304C8.48063 33.6488 6.05878 31.8892 6.36436 29.5342L7.23149 22.8516C7.34746 21.9579 7.05552 21.0594 6.4364 20.4045L1.80692 15.5079C0.175486 13.7823 1.10055 10.9352 3.43469 10.4981L10.0582 9.25776C10.944 9.09189 11.7083 8.53659 12.1398 7.74541L15.3662 1.82935Z" fill="#1FACF3"/>
</svg>
