<svg width="18" height="18" viewBox="0 0 18 18" fill="none" xmlns="http://www.w3.org/2000/svg">
<g clip-path="url(#clip0_35575_7532)">
<path d="M17.9531 6.90424C17.8353 6.53975 17.512 6.28088 17.1295 6.24641L11.9342 5.77467L9.87984 0.966247C9.72837 0.613852 9.38339 0.385742 9.00009 0.385742C8.6168 0.385742 8.27182 0.613852 8.12034 0.967071L6.06598 5.77467L0.869863 6.24641C0.488078 6.28171 0.165621 6.53975 0.0471028 6.90424C-0.0714153 7.26872 0.0380389 7.66849 0.326849 7.9205L4.25388 11.3645L3.09589 16.4655C3.01115 16.8405 3.15673 17.2282 3.46792 17.4532C3.63519 17.574 3.83089 17.6355 4.02824 17.6355C4.19839 17.6355 4.36718 17.5897 4.51865 17.499L9.00009 14.8206L13.4799 17.499C13.8077 17.6962 14.2209 17.6783 14.5314 17.4532C14.8428 17.2275 14.9882 16.8397 14.9035 16.4655L13.7455 11.3645L17.6725 7.92118C17.9613 7.66849 18.0716 7.2694 17.9531 6.90424Z" fill="#FFC107"/>
</g>
<defs>
<clipPath id="clip0_35575_7532">
<rect width="18" height="18" fill="white"/>
</clipPath>
</defs>
</svg>
