<svg width="23" height="15" viewBox="0 0 23 15" fill="none" xmlns="http://www.w3.org/2000/svg">
<path d="M20.7813 9.1875H22.4688V8.81625C22.4693 8.65828 22.4254 8.50334 22.3422 8.36906L19.4397 3.67781C19.3637 3.55622 19.258 3.456 19.1325 3.38661C19.007 3.31722 18.8659 3.28096 18.7225 3.28125H14.0313V1.59375C14.0313 1.36997 13.9424 1.15536 13.7841 0.997129C13.6259 0.838895 13.4113 0.75 13.1875 0.75H1.375C1.15122 0.75 0.936612 0.838895 0.778379 0.997129C0.620145 1.15536 0.53125 1.36997 0.53125 1.59375V12.5625C0.53125 12.7863 0.620145 13.0009 0.778379 13.1591C0.936612 13.3174 1.15122 13.4062 1.375 13.4062H4.1425C4.29192 13.6581 4.50428 13.8667 4.75873 14.0116C5.01318 14.1564 5.30094 14.2326 5.59375 14.2326C5.88656 14.2326 6.17432 14.1564 6.42877 14.0116C6.68322 13.8667 6.89558 13.6581 7.045 13.4062H15.955C16.1044 13.6581 16.3168 13.8667 16.5712 14.0116C16.8257 14.1564 17.1134 14.2326 17.4063 14.2326C17.6991 14.2326 17.9868 14.1564 18.2413 14.0116C18.4957 13.8667 18.7081 13.6581 18.8575 13.4062H21.625C21.8488 13.4062 22.0634 13.3174 22.2216 13.1591C22.3799 13.0009 22.4688 12.7863 22.4688 12.5625V10.875H20.7813C20.5575 10.875 20.3429 10.7861 20.1846 10.6279C20.0264 10.4696 19.9375 10.255 19.9375 10.0312C19.9375 9.80747 20.0264 9.59286 20.1846 9.43463C20.3429 9.27639 20.5575 9.1875 20.7813 9.1875ZM8.125 8.34375C8.125 8.56753 8.03611 8.78214 7.87787 8.94037C7.71964 9.09861 7.50503 9.1875 7.28125 9.1875H3.90625C3.68247 9.1875 3.46786 9.09861 3.30963 8.94037C3.1514 8.78214 3.0625 8.56753 3.0625 8.34375V4.125C3.0625 3.90122 3.1514 3.68661 3.30963 3.52838C3.46786 3.37015 3.68247 3.28125 3.90625 3.28125H7.28125C7.50503 3.28125 7.71964 3.37015 7.87787 3.52838C8.03611 3.68661 8.125 3.90122 8.125 4.125V8.34375Z" fill="#FFA200"/>
</svg>
