<svg width="28" height="28" viewBox="0 0 28 28" fill="none" xmlns="http://www.w3.org/2000/svg">
<path d="M25.6316 21.3852C25.6316 21.8052 25.5382 22.2368 25.3399 22.6568C25.1416 23.0768 24.8849 23.4735 24.5466 23.8468C23.9749 24.4768 23.3449 24.9318 22.6333 25.2235C21.9333 25.5152 21.1749 25.6668 20.3583 25.6668C19.1683 25.6668 17.8966 25.3868 16.5549 24.8152C15.2133 24.2435 13.8716 23.4735 12.5416 22.5052C11.1999 21.5252 9.92825 20.4402 8.71492 19.2385C7.51325 18.0252 6.42825 16.7535 5.45992 15.4235C4.50325 14.0935 3.73325 12.7635 3.17325 11.4452C2.61325 10.1152 2.33325 8.8435 2.33325 7.63016C2.33325 6.83683 2.47325 6.0785 2.75325 5.3785C3.03325 4.66683 3.47659 4.0135 4.09492 3.43016C4.84159 2.69516 5.65825 2.3335 6.52159 2.3335C6.84825 2.3335 7.17492 2.4035 7.46659 2.5435C7.76992 2.6835 8.03825 2.8935 8.24825 3.19683L10.9549 7.01183C11.1649 7.3035 11.3166 7.57183 11.4216 7.8285C11.5266 8.0735 11.5849 8.3185 11.5849 8.54016C11.5849 8.82016 11.5033 9.10016 11.3399 9.3685C11.1883 9.63683 10.9666 9.91683 10.6866 10.1968L9.79992 11.1185C9.67158 11.2468 9.61325 11.3985 9.61325 11.5852C9.61325 11.6785 9.62492 11.7602 9.64825 11.8535C9.68325 11.9468 9.71825 12.0168 9.74159 12.0868C9.95159 12.4718 10.3133 12.9735 10.8266 13.5802C11.3516 14.1868 11.9116 14.8052 12.5183 15.4235C13.1483 16.0418 13.7549 16.6135 14.3733 17.1385C14.9799 17.6518 15.4816 18.0018 15.8783 18.2118C15.9366 18.2352 16.0066 18.2702 16.0883 18.3052C16.1816 18.3402 16.2749 18.3518 16.3799 18.3518C16.5783 18.3518 16.7299 18.2818 16.8583 18.1535L17.7449 17.2785C18.0366 16.9868 18.3166 16.7652 18.5849 16.6252C18.8533 16.4618 19.1216 16.3802 19.4132 16.3802C19.6349 16.3802 19.8683 16.4268 20.1249 16.5318C20.3816 16.6368 20.6499 16.7885 20.9416 16.9868L24.8033 19.7285C25.1066 19.9385 25.3166 20.1835 25.4449 20.4752C25.5616 20.7668 25.6316 21.0585 25.6316 21.3852Z" fill="#1FACF3" stroke="#1FACF3" stroke-width="2" stroke-miterlimit="10"/>
</svg>
