<svg width="24" height="24" viewBox="0 0 24 24" fill="none" xmlns="http://www.w3.org/2000/svg">
<path d="M20.4 0H3.6C2.64522 0 1.72955 0.379285 1.05442 1.05442C0.379285 1.72955 0 2.64522 0 3.6V20.4C0 21.3548 0.379285 22.2705 1.05442 22.9456C1.72955 23.6207 2.64522 24 3.6 24H20.4C21.3548 24 22.2705 23.6207 22.9456 22.9456C23.6207 22.2705 24 21.3548 24 20.4V3.6C24 2.64522 23.6207 1.72955 22.9456 1.05442C22.2705 0.379285 21.3548 0 20.4 0ZM18.852 8.028L9.9 17.556C9.78707 17.6745 9.6511 17.7686 9.50046 17.8326C9.34981 17.8965 9.18767 17.929 9.024 17.928C8.86034 17.929 8.69819 17.8965 8.54755 17.8326C8.3969 17.7686 8.26093 17.6745 8.148 17.556L5.172 14.4C5.05049 14.2886 4.95322 14.1534 4.88628 14.0028C4.81933 13.8521 4.78414 13.6893 4.78289 13.5245C4.78165 13.3596 4.81438 13.1963 4.87904 13.0447C4.9437 12.893 5.03891 12.7564 5.15873 12.6432C5.27855 12.5299 5.42041 12.4426 5.57546 12.3867C5.73051 12.3307 5.89543 12.3073 6.05993 12.3179C6.22443 12.3285 6.38499 12.3728 6.53159 12.4482C6.67819 12.5236 6.80768 12.6284 6.912 12.756L9.024 15L17.1 6.408C17.2116 6.29553 17.3443 6.20625 17.4905 6.14533C17.6367 6.08441 17.7936 6.05304 17.952 6.05304C18.1104 6.05304 18.2673 6.08441 18.4135 6.14533C18.5597 6.20625 18.6924 6.29553 18.804 6.408C19.013 6.62316 19.1339 6.90881 19.1428 7.20867C19.1517 7.50853 19.0479 7.80084 18.852 8.028Z" fill="#1FACF3"/>
</svg>
