<svg width="37" height="38" viewBox="0 0 37 38" fill="none" xmlns="http://www.w3.org/2000/svg">
<path d="M36.2386 14.5182L33.217 4.84862C33.19 4.76291 33.1444 4.68424 33.0834 4.61826C33.0224 4.55228 32.9475 4.50063 32.8642 4.46702L23.7994 0.840623C23.7278 0.813082 23.6517 0.799241 23.575 0.799822H12.697C12.6201 0.799977 12.544 0.814632 12.4726 0.843021L3.40776 4.46942C3.32173 4.50259 3.2445 4.55513 3.18206 4.62297C3.11963 4.69082 3.07367 4.77214 3.04776 4.86062L0.0261571 15.1338C-0.00137422 15.224 -0.00727288 15.3194 0.00893836 15.4122C0.0251496 15.5051 0.0630153 15.5928 0.119465 15.6683C0.175916 15.7438 0.249361 15.805 0.33385 15.8468C0.418338 15.8886 0.511491 15.9099 0.605757 15.909H7.25376V36.4554C7.25376 36.6146 7.31697 36.7672 7.42949 36.8797C7.54202 36.9922 7.69463 37.0554 7.85376 37.0554H28.4098C28.5689 37.0554 28.7215 36.9922 28.834 36.8797C28.9465 36.7672 29.0098 36.6146 29.0098 36.4554V15.303H35.6578C35.7531 15.3041 35.8473 15.2825 35.9325 15.2399C36.0178 15.1973 36.0917 15.135 36.1481 15.0582C36.2046 14.9814 36.2419 14.8922 36.257 14.7981C36.2721 14.704 36.2645 14.6076 36.235 14.517L36.2386 14.5182ZM22.5706 2.00822L18.1306 10.3854L13.6906 2.00822H22.5706ZM27.805 22.6398C27.6498 22.8064 27.4617 22.939 27.2527 23.0292C27.0437 23.1195 26.8182 23.1655 26.5906 23.1642C25.8442 23.1642 25.4902 22.8042 24.931 22.1622C24.6565 21.729 24.277 21.3722 23.8278 21.125C23.3785 20.8777 22.874 20.7481 22.3612 20.7481C21.8483 20.7481 21.3438 20.8777 20.8946 21.125C20.4453 21.3722 20.0658 21.729 19.7914 22.1622C19.231 22.8018 18.8782 23.1642 18.1306 23.1642C17.383 23.1642 17.0302 22.8042 16.471 22.1622C16.1973 21.729 15.8184 21.372 15.3696 21.1247C14.9207 20.8773 14.4166 20.7476 13.9042 20.7476C13.3917 20.7476 12.8876 20.8773 12.4388 21.1247C11.9899 21.372 11.611 21.729 11.3374 22.1622C10.777 22.803 10.4242 23.1654 9.67656 23.1654C9.44974 23.1676 9.225 23.1222 9.01684 23.032C8.80869 22.9419 8.62177 22.8091 8.46816 22.6422V18.0594C8.8457 18.2381 9.25888 18.3288 9.67656 18.3246C10.1862 18.3075 10.6846 18.1704 11.1313 17.9243C11.5779 17.6783 11.9602 17.3303 12.247 16.9086C12.8062 16.2702 13.1578 15.9078 13.9006 15.9078C14.6434 15.9078 15.001 16.2678 15.5614 16.9098C15.8358 17.343 16.2153 17.6998 16.6646 17.9471C17.1138 18.1943 17.6183 18.324 18.1312 18.324C18.644 18.324 19.1485 18.1943 19.5978 17.9471C20.047 17.6998 20.4265 17.343 20.701 16.9098C21.2602 16.2702 21.6142 15.9078 22.3606 15.9078C23.107 15.9078 23.461 16.2678 24.0214 16.9098C24.3087 17.3302 24.691 17.6769 25.1374 17.9219C25.5838 18.1669 26.0816 18.3032 26.5906 18.3198C27.0103 18.3241 27.4255 18.233 27.805 18.0534V22.6398ZM8.46696 35.8506V24.1026C8.8445 24.2813 9.25768 24.372 9.67536 24.3678C10.1848 24.3505 10.683 24.2133 11.1294 23.9673C11.5758 23.7212 11.9579 23.3733 12.2446 22.9518C12.8038 22.3134 13.1554 21.951 13.8982 21.951C14.641 21.951 14.9986 22.311 15.559 22.953C15.8334 23.3862 16.2129 23.743 16.6622 23.9903C17.1114 24.2375 17.6159 24.3672 18.1288 24.3672C18.6416 24.3672 19.1461 24.2375 19.5954 23.9903C20.0446 23.743 20.4241 23.3862 20.6986 22.953C21.2578 22.3134 21.6118 21.951 22.3582 21.951C23.1046 21.951 23.4586 22.311 24.019 22.953C24.3058 23.3743 24.6879 23.722 25.1343 23.9678C25.5807 24.2136 26.0788 24.3507 26.5882 24.3678C27.0079 24.3721 27.4231 24.281 27.8026 24.1014V35.8494L8.46696 35.8506ZM29.0146 14.0946V8.65622H27.805V16.593C27.6498 16.7596 27.4617 16.8922 27.2527 16.9824C27.0437 17.0727 26.8182 17.1187 26.5906 17.1174C25.8442 17.1174 25.4902 16.7574 24.931 16.1154C24.6565 15.6822 24.277 15.3254 23.8278 15.0782C23.3785 14.8309 22.874 14.7013 22.3612 14.7013C21.8483 14.7013 21.3438 14.8309 20.8946 15.0782C20.4453 15.3254 20.0658 15.6822 19.7914 16.1154C19.231 16.755 18.8782 17.1174 18.1306 17.1174C17.383 17.1174 17.0302 16.7574 16.471 16.1154C16.1973 15.6822 15.8184 15.3252 15.3696 15.0779C14.9207 14.8305 14.4166 14.7008 13.9042 14.7008C13.3917 14.7008 12.8876 14.8305 12.4388 15.0779C11.9899 15.3252 11.611 15.6822 11.3374 16.1154C10.777 16.7562 10.4242 17.1186 9.67656 17.1186C9.44974 17.1208 9.225 17.0754 9.01684 16.9852C8.80869 16.8951 8.62177 16.7623 8.46816 16.5954V8.65622H7.25736V14.6994H1.41816L4.12896 5.47982L12.4174 2.16422L17.6014 11.9574C17.6517 12.0557 17.7282 12.1382 17.8224 12.1958C17.9166 12.2534 18.0249 12.2838 18.1354 12.2838C18.2458 12.2838 18.3541 12.2534 18.4483 12.1958C18.5425 12.1382 18.619 12.0557 18.6694 11.9574L23.8534 2.16422L32.149 5.47982L34.8394 14.0898L29.0146 14.0946Z" fill="#00C2FF"/>
</svg>
