<svg width="19" height="19" viewBox="0 0 19 19" fill="none" xmlns="http://www.w3.org/2000/svg">
<g clip-path="url(#clip0_35588_15503)">
<path d="M17.2188 3.23891V5.12109H0.59375V3.23891C0.59375 2.55609 1.14594 2.00391 1.82875 2.00391H15.9838C16.6666 2.00391 17.2188 2.55609 17.2188 3.23891Z" fill="#1FACF3"/>
<path d="M8.16406 8.38672H9.64844V9.87109H8.16406V8.38672Z" fill="#1FACF3"/>
<path d="M3.41406 8.38672V9.87109H4.89844V8.38672H3.41406ZM3.41406 8.38672V9.87109H4.89844V8.38672H3.41406ZM0.59375 6.01172V16.2064C0.59375 16.8892 1.14594 17.4414 1.82875 17.4414H11.0853C10.6459 16.7586 10.3906 15.9392 10.3906 15.0664C10.3906 12.6083 12.3856 10.6133 14.8438 10.6133C15.7166 10.6133 16.5359 10.8686 17.2188 11.308V6.01172H0.59375ZM5.78906 15.0664C5.78906 15.3098 5.58719 15.5117 5.34375 15.5117H2.96875C2.72531 15.5117 2.52344 15.3098 2.52344 15.0664V12.6914C2.52344 12.448 2.72531 12.2461 2.96875 12.2461H5.34375C5.58719 12.2461 5.78906 12.448 5.78906 12.6914V15.0664ZM5.78906 10.3164C5.78906 10.5598 5.58719 10.7617 5.34375 10.7617H2.96875C2.72531 10.7617 2.52344 10.5598 2.52344 10.3164V7.94141C2.52344 7.69797 2.72531 7.49609 2.96875 7.49609H5.34375C5.58719 7.49609 5.78906 7.69797 5.78906 7.94141V10.3164ZM10.5391 10.3164C10.5391 10.5598 10.3372 10.7617 10.0938 10.7617H7.71875C7.47531 10.7617 7.27344 10.5598 7.27344 10.3164V7.94141C7.27344 7.69797 7.47531 7.49609 7.71875 7.49609H10.0938C10.3372 7.49609 10.5391 7.69797 10.5391 7.94141V10.3164ZM3.41406 14.6211H4.89844V13.1367H3.41406V14.6211ZM3.41406 9.87109H4.89844V8.38672H3.41406V9.87109Z" fill="#1FACF3"/>
<path d="M8.90625 3.63672C8.66038 3.63672 8.46094 3.43728 8.46094 3.19141V0.816406C8.46094 0.570534 8.66038 0.371094 8.90625 0.371094C9.15212 0.371094 9.35156 0.570534 9.35156 0.816406V3.19141C9.35156 3.43728 9.15212 3.63672 8.90625 3.63672Z" fill="#1FACF3"/>
<path d="M2.96875 3.63672C2.72288 3.63672 2.52344 3.43728 2.52344 3.19141V0.816406C2.52344 0.570534 2.72288 0.371094 2.96875 0.371094C3.21462 0.371094 3.41406 0.570534 3.41406 0.816406V3.19141C3.41406 3.43728 3.21462 3.63672 2.96875 3.63672Z" fill="#1FACF3"/>
<path d="M14.8438 3.63672C14.5979 3.63672 14.3984 3.43728 14.3984 3.19141V0.816406C14.3984 0.570534 14.5979 0.371094 14.8438 0.371094C15.0896 0.371094 15.2891 0.570534 15.2891 0.816406V3.19141C15.2891 3.43728 15.0896 3.63672 14.8438 3.63672Z" fill="#1FACF3"/>
<path d="M14.8438 11.5039C12.8784 11.5039 11.2812 13.1011 11.2812 15.0664C11.2812 17.0317 12.8784 18.6289 14.8438 18.6289C16.8091 18.6289 18.4062 17.0317 18.4062 15.0664C18.4062 13.1011 16.8091 11.5039 14.8438 11.5039ZM16.0312 15.5117H14.8438C14.6003 15.5117 14.3984 15.3098 14.3984 15.0664V13.2852C14.3984 13.0417 14.6003 12.8398 14.8438 12.8398C15.0872 12.8398 15.2891 13.0417 15.2891 13.2852V14.6211H16.0312C16.2747 14.6211 16.4766 14.823 16.4766 15.0664C16.4766 15.3098 16.2747 15.5117 16.0312 15.5117Z" fill="#1FACF3"/>
</g>
<defs>
<clipPath id="clip0_35588_15503">
<rect width="19" height="19" fill="white"/>
</clipPath>
</defs>
</svg>
