<svg width="40" height="40" viewBox="0 0 40 40" fill="none" xmlns="http://www.w3.org/2000/svg">
<path d="M15 8.75H20C20.6912 8.75 21.25 8.19 21.25 7.5C21.25 6.81 20.6912 6.25 20 6.25H15C14.3088 6.25 13.75 6.81 13.75 7.5C13.75 8.19 14.3088 8.75 15 8.75Z" fill="#F39E1F"/>
<path d="M31.25 12.5087H28.75V6.25C28.75 4.1825 27.0675 2.5 25 2.5H10C7.9325 2.5 6.25 4.1825 6.25 6.25V33.75C6.25 35.8175 7.9325 37.5 10 37.5H25C27.0675 37.5 28.75 35.8175 28.75 33.75V28.7325H31.25C33.3175 28.7325 35 27.035 35 24.9487V16.2925C35 14.2063 33.3175 12.5087 31.25 12.5087ZM32.4912 16.25H16.2587C16.2825 15.5625 16.825 15.0087 17.5 15.0087H31.25C31.925 15.0087 32.4688 15.5625 32.4912 16.25ZM26.25 33.75C26.25 34.4387 25.69 35 25 35H10C9.31 35 8.75 34.4387 8.75 33.75V6.25C8.75 5.56125 9.31 5 10 5H25C25.69 5 26.25 5.56125 26.25 6.25V12.5087H17.5C15.4325 12.5087 13.75 14.2063 13.75 16.2925V24.9487C13.75 27.035 15.4325 28.7325 17.5 28.7325H26.25V33.75ZM31.25 26.2325H17.5C16.81 26.2325 16.25 25.6575 16.25 24.9487V18.75H32.5V24.9487C32.5 25.6562 31.94 26.2325 31.25 26.2325Z" fill="#F39E1F"/>
<path d="M20 25H18.75C18.0588 25 17.5 24.44 17.5 23.75C17.5 23.06 18.0588 22.5 18.75 22.5H20C20.6912 22.5 21.25 23.06 21.25 23.75C21.25 24.44 20.6912 25 20 25Z" fill="#F39E1F"/>
</svg>
