<svg width="512" height="512" viewBox="0 0 512 512" fill="none" xmlns="http://www.w3.org/2000/svg">
<g clip-path="url(#clip0_285_45)">
<path fill-rule="evenodd" clip-rule="evenodd" d="M242 90.6171C231.011 91.6231 215.485 94.2361 204.459 96.9361C141.098 112.448 70.8461 160.227 14.5591 226.086C3.58007 238.932 0.908067 243.99 0.231067 253.202C-0.712933 266.037 2.24007 272.215 17.5781 289.5C58.6801 335.82 103.758 371.8 149.36 394.684C233.188 436.75 314.863 429.632 399.949 372.846C435.293 349.257 466.882 321.157 497.236 286.303C505.418 276.909 511 268.132 511 264.664C511 263.814 511.45 262.84 512 262.5C512.55 262.16 513 258.732 513 254.882C513 250.47 512.63 248.11 512 248.5C511.45 248.84 511 248.412 511 247.548C511 240.056 484.825 209.471 455.24 182.393C400.258 132.07 341.009 100.676 285.642 92.5291C274.706 90.9201 250.346 89.8531 242 90.6171ZM237.5 147.608C182.308 157.46 143.912 205.217 146.335 261C148.429 309.214 181.462 350.026 228.663 362.716C237.531 365.1 240.224 365.36 256 365.36C271.721 365.36 274.487 365.095 283.206 362.749C365.026 340.735 393.364 240.846 335.134 179.71C310.594 153.945 272.382 141.381 237.5 147.608ZM242.5 178.013C210.812 183.82 184.99 208.945 178.58 240.208C174.32 260.988 178.942 283.64 190.921 300.691C220.271 342.466 278.97 346.807 313.607 309.764C354.19 266.361 334.68 197.113 277 179.836C269.501 177.59 250.336 176.578 242.5 178.013ZM0.336067 256C0.336067 260.125 0.513067 261.813 0.728067 259.75C0.944067 257.688 0.944067 254.313 0.728067 252.25C0.513067 250.188 0.336067 251.875 0.336067 256Z" fill="black" fill-opacity="0.627"/>
<path fill-rule="evenodd" clip-rule="evenodd" d="M229 92.5239C167.219 101.095 101.452 137.871 42.135 197.016C27.759 211.351 9.61598 231.565 5.61398 237.706C1.83598 243.506 -0.352017 252.357 0.344983 259.024C1.17298 266.948 3.74498 272.318 11.119 281.515C19.5 291.967 50.713 323.807 64 335.459C120.064 384.622 175.305 412.576 230.201 419.563C246.125 421.59 275.09 421.101 290 418.553C342.7 409.548 394.925 382.12 447.936 335.605C460.992 324.15 492.922 291.468 501.233 281.055C505.51 275.696 508.539 270.773 509.536 267.559C510.4 264.777 511.533 261.719 512.053 260.764C513.214 258.634 513.32 249.684 512.176 250.391C511.723 250.671 510.779 248.662 510.078 245.926C508.555 239.983 503.733 233.254 490.425 218.5C425.077 146.049 351.992 101.849 282 92.4489C269.076 90.7139 241.772 90.7519 229 92.5239ZM237.919 146.949C194.758 154.831 161.022 185.556 149.235 227.717C146.706 236.763 146.5 238.894 146.5 256C146.5 272.234 146.784 275.538 148.816 282.978C160.208 324.681 192.356 355.488 233.5 364.129C245.032 366.551 265.187 366.716 276.85 364.484C318.058 356.595 351.197 325.66 362.765 284.283C365.294 275.237 365.5 273.106 365.5 256C365.5 238.894 365.294 236.763 362.765 227.717C352.043 189.367 322.792 159.981 284.806 149.399C276.907 147.198 273.005 146.754 259 146.46C249.925 146.269 240.439 146.489 237.919 146.949ZM246.061 178.046C213.956 182.403 188.19 205.159 179.876 236.5C176.658 248.633 176.893 265.525 180.447 277.463C189.819 308.948 214.543 329.945 247.171 334.129C267.285 336.709 289.35 330.236 305.789 316.934C333.633 294.405 342.42 253.825 326.49 221.338C311.94 191.666 278.466 173.649 246.061 178.046ZM0.299983 256C0.299983 259.025 0.486983 260.262 0.715983 258.75C0.944983 257.238 0.944983 254.762 0.715983 253.25C0.486983 251.738 0.299983 252.975 0.299983 256Z" fill="black" fill-opacity="0.979"/>
</g>
<defs>
<clipPath id="clip0_285_45">
<rect width="512" height="512" fill="white"/>
</clipPath>
</defs>
</svg>
