<svg width="55" height="55" viewBox="0 0 55 55" fill="none" xmlns="http://www.w3.org/2000/svg">
<path d="M20.1666 35.3998L22.9603 19.6855H27.3254L24.619 35.3998H20.1666Z" fill="#3C58BF"/>
<path d="M20.1666 35.3998L23.746 19.6855H27.3254L24.619 35.3998H20.1666Z" fill="#293688"/>
<path d="M40.4206 19.8605C39.5476 19.5113 38.1508 19.1621 36.4047 19.1621C32.0397 19.1621 28.8968 21.3446 28.8968 24.4875C28.8968 26.8446 31.0793 28.0669 32.8254 28.8526C34.5714 29.6383 35.0952 30.1621 35.0952 30.8605C35.0952 31.9081 33.6984 32.432 32.4762 32.432C30.7301 32.432 29.7698 32.17 28.2857 31.5589L27.6746 31.297L27.0635 34.8764C28.1111 35.3129 30.0317 35.7494 32.0397 35.7494C36.6667 35.7494 39.7222 33.5669 39.7222 30.2494C39.7222 28.4161 38.5873 27.0193 35.9682 25.8843C34.3968 25.0986 33.4365 24.6621 33.4365 23.8764C33.4365 23.178 34.2222 22.4796 35.9682 22.4796C37.4524 22.4796 38.5 22.7415 39.2857 23.0907L39.7222 23.2653L40.4206 19.8605Z" fill="#3C58BF"/>
<path d="M40.4206 19.8605C39.5476 19.5113 38.1508 19.1621 36.4047 19.1621C32.0397 19.1621 29.6825 21.3446 29.6825 24.4875C29.6825 26.8446 31.0793 28.0669 32.8254 28.8526C34.5714 29.6383 35.0952 30.1621 35.0952 30.8605C35.0952 31.9081 33.6984 32.432 32.4762 32.432C30.7301 32.432 29.7698 32.17 28.2857 31.5589L27.6746 31.297L27.0635 34.8764C28.1111 35.3129 30.0317 35.7494 32.0397 35.7494C36.6667 35.7494 39.7222 33.5669 39.7222 30.2494C39.7222 28.4161 38.5873 27.0193 35.9682 25.8843C34.3968 25.0986 33.4365 24.6621 33.4365 23.8764C33.4365 23.178 34.2222 22.4796 35.9682 22.4796C37.4524 22.4796 38.5 22.7415 39.2857 23.0907L39.7222 23.2653L40.4206 19.8605Z" fill="#293688"/>
<path d="M47.9285 19.6855C46.8809 19.6855 46.0952 19.7728 45.6587 20.8205L39.1111 35.3998H43.8254L44.6984 32.7808H50.2857L50.8095 35.3998H55L51.3333 19.6855H47.9285ZM45.9206 30.1617C46.1825 29.376 47.6666 25.5348 47.6666 25.5348C47.6666 25.5348 48.0158 24.5744 48.2778 23.9633L48.5397 25.4475C48.5397 25.4475 49.4127 29.376 49.5873 30.249H45.9206V30.1617Z" fill="#3C58BF"/>
<path d="M48.9762 19.6855C47.9285 19.6855 47.1428 19.7728 46.7063 20.8205L39.1111 35.3998H43.8254L44.6984 32.7808H50.2857L50.8095 35.3998H55L51.3333 19.6855H48.9762ZM45.9206 30.1617C46.2698 29.2887 47.6666 25.5348 47.6666 25.5348C47.6666 25.5348 48.0158 24.5744 48.2778 23.9633L48.5397 25.4475C48.5397 25.4475 49.4127 29.376 49.5873 30.249H45.9206V30.1617Z" fill="#293688"/>
<path d="M12.1349 30.6861L11.6984 28.4163C10.9127 25.7972 8.38093 22.9163 5.58728 21.5195L9.51585 35.4877H14.2301L21.3016 19.7734H16.5873L12.1349 30.6861Z" fill="#3C58BF"/>
<path d="M12.1349 30.6861L11.6984 28.4163C10.9127 25.7972 8.38093 22.9163 5.58728 21.5195L9.51585 35.4877H14.2301L21.3016 19.7734H17.4603L12.1349 30.6861Z" fill="#293688"/>
<path d="M0 19.6855L0.785714 19.8602C6.37302 21.1697 10.2143 24.4871 11.6984 28.4157L10.127 20.9951C9.86508 19.9475 9.07936 19.6855 8.11905 19.6855H0Z" fill="#FFBC00"/>
<path d="M0 19.6855C5.5873 20.9951 10.2143 24.3998 11.6984 28.3284L10.2143 22.13C9.95238 21.0824 9.07936 20.4713 8.11905 20.4713L0 19.6855Z" fill="#F7981D"/>
<path d="M0 19.6855C5.5873 20.9951 10.2143 24.3998 11.6984 28.3284L10.6508 24.9236C10.3889 23.876 10.0397 22.8284 8.81746 22.3919L0 19.6855Z" fill="#ED7C00"/>
<path d="M16.5 30.1618L13.5317 27.1935L12.1349 30.511L11.7857 28.3285C11 25.7094 8.46821 22.8285 5.67456 21.4316L9.60313 35.3999H14.3174L16.5 30.1618Z" fill="#051244"/>
<path d="M24.619 35.3999L20.865 31.5586L20.1666 35.3999H24.619Z" fill="#051244"/>
<path d="M34.6587 29.9863C35.0079 30.3355 35.1825 30.5974 35.0952 30.9466C35.0952 31.9943 33.6984 32.5181 32.4762 32.5181C30.7301 32.5181 29.7698 32.2562 28.2857 31.6451L27.6746 31.3832L27.0635 34.9625C28.1111 35.399 30.0317 35.8355 32.0397 35.8355C34.8333 35.8355 37.1032 35.0498 38.4127 33.653L34.6587 29.9863Z" fill="#051244"/>
<path d="M39.7222 35.3994H43.8253L44.6984 32.7804H50.2857L50.8095 35.3994H54.9999L53.5158 29.0264L48.2777 23.9629L48.5396 25.3597C48.5396 25.3597 49.4126 29.2883 49.5872 30.1613H45.9206C46.2698 29.2883 47.6666 25.5343 47.6666 25.5343C47.6666 25.5343 48.0158 24.574 48.2777 23.9629" fill="#051244"/>
</svg>
