<svg width="25" height="25" viewBox="0 0 25 25" fill="none" xmlns="http://www.w3.org/2000/svg">
<path d="M19.1094 2.21875H5.89062C5.30632 2.21875 4.74595 2.45086 4.33278 2.86403C3.91961 3.2772 3.6875 3.83757 3.6875 4.42188V20.5781C3.6875 21.1624 3.91961 21.7228 4.33278 22.136C4.74595 22.5491 5.30632 22.7812 5.89062 22.7812H19.1094C19.6937 22.7812 20.2541 22.5491 20.6672 22.136C21.0804 21.7228 21.3125 21.1624 21.3125 20.5781V4.42188C21.3125 3.83757 21.0804 3.2772 20.6672 2.86403C20.2541 2.45086 19.6937 2.21875 19.1094 2.21875ZM16.1719 4.42188C16.3171 4.42188 16.4591 4.46495 16.5799 4.54564C16.7006 4.62633 16.7948 4.74103 16.8503 4.87522C16.9059 5.00941 16.9205 5.15706 16.8921 5.29952C16.8638 5.44197 16.7939 5.57283 16.6912 5.67553C16.5885 5.77824 16.4576 5.84818 16.3151 5.87651C16.1727 5.90485 16.025 5.89031 15.8908 5.83472C15.7567 5.77914 15.642 5.68501 15.5613 5.56425C15.4806 5.44348 15.4375 5.3015 15.4375 5.15625C15.4375 4.96148 15.5149 4.77469 15.6526 4.63697C15.7903 4.49925 15.9771 4.42188 16.1719 4.42188ZM5.89062 5.15625C5.89062 4.96148 5.968 4.77469 6.10572 4.63697C6.24344 4.49925 6.43023 4.42188 6.625 4.42188H8.82812C9.02289 4.42188 9.20968 4.49925 9.34741 4.63697C9.48513 4.77469 9.5625 4.96148 9.5625 5.15625C9.5625 5.35102 9.48513 5.53781 9.34741 5.67553C9.20968 5.81325 9.02289 5.89062 8.82812 5.89062H6.625C6.43023 5.89062 6.24344 5.81325 6.10572 5.67553C5.968 5.53781 5.89062 5.35102 5.89062 5.15625ZM12.5 20.5781C11.338 20.5781 10.2022 20.2336 9.23602 19.588C8.26989 18.9425 7.51687 18.0249 7.07221 16.9514C6.62754 15.8779 6.5112 14.6966 6.73789 13.557C6.96457 12.4173 7.52411 11.3705 8.34575 10.5489C9.16738 9.72724 10.2142 9.1677 11.3538 8.94101C12.4935 8.71432 13.6747 8.83067 14.7483 9.27533C15.8218 9.72 16.7393 10.473 17.3849 11.4391C18.0304 12.4053 18.375 13.5412 18.375 14.7031C18.3733 16.2607 17.7537 17.754 16.6523 18.8554C15.5509 19.9568 14.0576 20.5764 12.5 20.5781ZM18.375 5.89062C18.2298 5.89062 18.0878 5.84755 17.967 5.76686C17.8462 5.68617 17.7521 5.57147 17.6965 5.43728C17.6409 5.30309 17.6264 5.15544 17.6547 5.01298C17.6831 4.87053 17.753 4.73967 17.8557 4.63697C17.9584 4.53426 18.0893 4.46432 18.2317 4.43599C18.3742 4.40765 18.5218 4.42219 18.656 4.47778C18.7902 4.53336 18.9049 4.62749 18.9856 4.74825C19.0663 4.86902 19.1094 5.011 19.1094 5.15625C19.1094 5.35102 19.032 5.53781 18.8943 5.67553C18.7566 5.81325 18.5698 5.89062 18.375 5.89062Z" fill="#5799FC"/>
<path d="M12.5228 14.7031C11.8356 14.3571 11.0765 14.1779 10.3071 14.1802C9.53766 14.1825 8.77963 14.3662 8.09451 14.7163C8.09519 15.8849 8.56008 17.0054 9.38689 17.8313C9.79629 18.2402 10.2822 18.5645 10.8169 18.7856C11.3517 19.0067 11.9247 19.1203 12.5033 19.12C13.082 19.1197 13.6549 19.0054 14.1893 18.7836C14.7238 18.5619 15.2093 18.237 15.6183 17.8276C16.0272 17.4182 16.3515 16.9323 16.5726 16.3976C16.7937 15.8629 16.9073 15.2898 16.907 14.7112C16.226 15.0512 15.4751 15.2275 14.7139 15.2261C13.9528 15.2247 13.2025 15.0456 12.5228 14.7031Z" fill="#5799FC"/>
</svg>
