<svg width="28" height="28" viewBox="0 0 28 28" fill="none" xmlns="http://www.w3.org/2000/svg">
<path d="M22.5633 16.9049L21.3967 14.9683C21.1517 14.5366 20.93 13.7199 20.93 13.2416V10.2899C20.93 7.54825 19.32 5.17992 16.9983 4.07159C16.3917 2.99825 15.2717 2.33325 13.9883 2.33325C12.7167 2.33325 11.5733 3.02159 10.9667 4.10659C8.69168 5.23825 7.11668 7.58325 7.11668 10.2899V13.2416C7.11668 13.7199 6.89501 14.5366 6.65001 14.9566L5.47168 16.9049C5.00501 17.6866 4.90001 18.5499 5.19168 19.3433C5.47168 20.1249 6.13668 20.7316 7.00001 21.0233C9.26335 21.7933 11.6433 22.1666 14.0233 22.1666C16.4033 22.1666 18.7833 21.7933 21.0467 21.0349C21.8633 20.7666 22.4933 20.1483 22.7967 19.3433C23.1 18.5383 23.0183 17.6516 22.5633 16.9049Z" fill="#6E97AE"/>
<path d="M17.3016 23.3449C16.8116 24.6983 15.5166 25.6666 14 25.6666C13.0783 25.6666 12.1683 25.2933 11.5266 24.6283C11.1533 24.2783 10.8733 23.8116 10.71 23.3333C10.8616 23.3566 11.0133 23.3683 11.1766 23.3916C11.445 23.4266 11.725 23.4616 12.005 23.4849C12.67 23.5433 13.3466 23.5783 14.0233 23.5783C14.6883 23.5783 15.3533 23.5433 16.0066 23.4849C16.2516 23.4616 16.4966 23.4499 16.73 23.4149C16.9166 23.3916 17.1033 23.3683 17.3016 23.3449Z" fill="#6E97AE"/>
</svg>
