<svg width="26" height="26" viewBox="0 0 26 26" fill="none" xmlns="http://www.w3.org/2000/svg">
<path d="M13.0001 20.5833C17.1882 20.5833 20.5834 17.1881 20.5834 13C20.5834 8.8118 17.1882 5.41663 13.0001 5.41663C8.81192 5.41663 5.41675 8.8118 5.41675 13C5.41675 17.1881 8.81192 20.5833 13.0001 20.5833Z" fill="white"/>
<path d="M12.9999 24.8734C12.4041 24.8734 11.9166 24.4292 11.9166 23.8334V23.7467C11.9166 23.1509 12.4041 22.6634 12.9999 22.6634C13.5958 22.6634 14.0833 23.1509 14.0833 23.7467C14.0833 24.3425 13.5958 24.8734 12.9999 24.8734ZM20.7349 21.8184C20.4533 21.8184 20.1824 21.71 19.9658 21.5042L19.8249 21.3634C19.4024 20.9409 19.4024 20.2584 19.8249 19.8359C20.2474 19.4134 20.9299 19.4134 21.3524 19.8359L21.4933 19.9767C21.9158 20.3992 21.9158 21.0817 21.4933 21.5042C21.2874 21.71 21.0166 21.8184 20.7349 21.8184ZM5.26492 21.8184C4.98325 21.8184 4.71242 21.71 4.49575 21.5042C4.07325 21.0817 4.07325 20.3992 4.49575 19.9767L4.63659 19.8359C5.05909 19.4134 5.74159 19.4134 6.16409 19.8359C6.58659 20.2584 6.58659 20.9409 6.16409 21.3634L6.02325 21.5042C5.81742 21.71 5.53575 21.8184 5.26492 21.8184ZM23.8333 14.0834H23.7466C23.1508 14.0834 22.6633 13.5959 22.6633 13C22.6633 12.4042 23.1508 11.9167 23.7466 11.9167C24.3424 11.9167 24.8733 12.4042 24.8733 13C24.8733 13.5959 24.4291 14.0834 23.8333 14.0834ZM2.25325 14.0834H2.16659C1.57075 14.0834 1.08325 13.5959 1.08325 13C1.08325 12.4042 1.57075 11.9167 2.16659 11.9167C2.76242 11.9167 3.29325 12.4042 3.29325 13C3.29325 13.5959 2.84909 14.0834 2.25325 14.0834ZM20.5941 6.48921C20.3124 6.48921 20.0416 6.38087 19.8249 6.17504C19.4024 5.75254 19.4024 5.07004 19.8249 4.64754L19.9658 4.50671C20.3883 4.08421 21.0708 4.08421 21.4933 4.50671C21.9158 4.92921 21.9158 5.61171 21.4933 6.03421L21.3524 6.17504C21.1466 6.38087 20.8758 6.48921 20.5941 6.48921ZM5.40575 6.48921C5.12409 6.48921 4.85325 6.38087 4.63659 6.17504L4.49575 6.02337C4.07325 5.60087 4.07325 4.91837 4.49575 4.49587C4.91825 4.07337 5.60075 4.07337 6.02325 4.49587L6.16409 4.63671C6.58659 5.05921 6.58659 5.74171 6.16409 6.16421C5.95825 6.38087 5.67659 6.48921 5.40575 6.48921ZM12.9999 3.29337C12.4041 3.29337 11.9166 2.84921 11.9166 2.25337V2.16671C11.9166 1.57087 12.4041 1.08337 12.9999 1.08337C13.5958 1.08337 14.0833 1.57087 14.0833 2.16671C14.0833 2.76254 13.5958 3.29337 12.9999 3.29337Z" fill="white"/>
</svg>
