<svg width="39" height="39" viewBox="0 0 39 39" fill="none" xmlns="http://www.w3.org/2000/svg">
<path d="M19.103 38.206C29.6533 38.206 38.206 29.6533 38.206 19.103C38.206 8.5527 29.6533 0 19.103 0C8.5527 0 0 8.5527 0 19.103C0 29.6533 8.5527 38.206 19.103 38.206Z" fill="#00C2FF"/>
<path fill-rule="evenodd" clip-rule="evenodd" d="M19.2375 17.1145C18.8435 17.1007 18.4615 16.976 18.1352 16.7546C17.9501 16.6344 17.7762 16.4976 17.6159 16.3458C17.5922 16.3192 17.5677 16.2933 17.5421 16.2681C17.2699 16.0015 16.9073 15.8473 16.5265 15.8362C16.483 15.8362 16.4398 15.8362 16.397 15.8362C16.0162 15.8549 15.6563 16.0164 15.3893 16.2886C15.2116 16.4728 15.0154 16.6381 14.8038 16.782C14.4738 17.0277 14.0744 17.1623 13.663 17.1666C13.2516 17.1708 12.8495 17.0443 12.5145 16.8054C12.3002 16.6658 12.1009 16.5044 11.9197 16.3239C11.6524 16.0622 11.2979 15.9084 10.9242 15.892C10.8046 15.8866 10.6848 15.8952 10.5672 15.9176C10.5395 15.9831 10.5122 16.0493 10.4863 16.1155C10.2687 16.6688 10.1052 17.2419 9.99789 17.8267C9.7356 19.2542 9.81097 20.7232 10.218 22.1163C10.625 23.5093 11.3523 24.7879 12.3418 25.8496C13.3313 26.9113 14.5556 27.7267 15.9166 28.2306C17.2776 28.7345 18.7377 28.913 20.18 28.7517C21.6224 28.5904 23.007 28.0938 24.223 27.3017C25.4391 26.5096 26.453 25.4439 27.1835 24.1898C27.9141 22.9357 28.341 21.5281 28.4302 20.0795C28.5195 18.631 28.2685 17.1816 27.6973 15.8474C27.679 15.8049 27.6613 15.7632 27.6415 15.7207L27.5922 15.7229C27.2114 15.7414 26.8515 15.903 26.5846 16.1752C26.4068 16.3592 26.2108 16.5245 25.9994 16.6686C25.6694 16.9143 25.27 17.049 24.8586 17.0532C24.4472 17.0574 24.0451 16.9309 23.7102 16.692C23.4958 16.5521 23.2962 16.3908 23.1146 16.2105C22.8476 15.9488 22.4933 15.795 22.1198 15.7786C22.0627 15.7762 22.0056 15.7769 21.9485 15.7808C21.5764 15.805 21.2262 15.9655 20.965 16.2317L20.9625 16.2343C20.9376 16.2598 20.9135 16.2861 20.8905 16.3131C20.7336 16.4685 20.5626 16.6091 20.3798 16.7331C20.0451 16.9719 19.6471 17.1062 19.2361 17.1192L19.2375 17.1145Z" fill="white"/>
<path fill-rule="evenodd" clip-rule="evenodd" d="M8.12587 15.2252C8.89295 13.0541 10.2866 11.1593 12.1306 9.78023C13.9746 8.40121 16.1861 7.59997 18.4855 7.47783C20.7849 7.35568 23.0689 7.91812 25.0486 9.09403C27.0283 10.2699 28.6149 12.0065 29.6076 14.0841C30.6004 16.1617 30.9548 18.4871 30.626 20.7661C30.2972 23.0451 29.3 25.1754 27.7605 26.8877C26.2209 28.6 24.2082 29.8173 21.9768 30.3857C19.7455 30.954 17.3957 30.848 15.2246 30.0809C13.7803 29.5755 12.4501 28.7895 11.3107 27.7682C10.1712 26.7468 9.24502 25.5102 8.58528 24.1296C7.92554 22.7489 7.54531 21.2514 7.46646 19.7233C7.38762 18.1951 7.61172 16.6664 8.12587 15.2252ZM31.2153 23.3831C32.0621 20.9871 32.1794 18.3939 31.5523 15.9313C30.9252 13.4687 29.5819 11.2473 27.6923 9.5482C25.8026 7.84907 23.4516 6.74847 20.9364 6.38559C18.4213 6.0227 15.855 6.41383 13.5622 7.50951C11.2693 8.60519 9.3529 10.3562 8.05526 12.5411C6.75762 14.726 6.13706 17.2467 6.27205 19.7843C6.40704 22.3219 7.29153 24.7624 8.81365 26.7973C10.3358 28.8322 12.4271 30.3701 14.8233 31.2163C18.0358 32.351 21.5674 32.1632 24.6415 30.6943C27.7155 29.2254 30.0803 26.5957 31.2156 23.3834L31.2153 23.3831Z" fill="white"/>
</svg>
