<svg width="26" height="26" viewBox="0 0 26 26" fill="none" xmlns="http://www.w3.org/2000/svg">
<path d="M10.8333 4.0625H12.1874V9.20833C12.1874 9.6525 12.5558 10.0208 12.9999 10.0208C13.4441 10.0208 13.8124 9.6525 13.8124 9.20833V4.0625H15.1666C15.6108 4.0625 15.9791 3.69417 15.9791 3.25C15.9791 2.80583 15.6108 2.4375 15.1666 2.4375H10.8333C10.3891 2.4375 10.0208 2.80583 10.0208 3.25C10.0208 3.69417 10.3891 4.0625 10.8333 4.0625Z" fill="#6E97AE"/>
<path d="M15.1666 21.9375H13.8124V16.7916C13.8124 16.3475 13.4441 15.9791 12.9999 15.9791C12.5558 15.9791 12.1874 16.3475 12.1874 16.7916V21.9375H10.8333C10.3891 21.9375 10.0208 22.3058 10.0208 22.75C10.0208 23.1941 10.3891 23.5625 10.8333 23.5625H15.1666C15.6108 23.5625 15.9791 23.1941 15.9791 22.75C15.9791 22.3058 15.6108 21.9375 15.1666 21.9375Z" fill="#6E97AE"/>
<path d="M3.06582 10.7033C3.19582 10.7791 3.33665 10.8116 3.46665 10.8116C3.74832 10.8116 4.01915 10.6708 4.17082 10.4L4.85332 9.22997L9.31665 11.8083C9.43582 11.8841 9.57665 11.9166 9.71749 11.9166C9.99915 11.9166 10.27 11.7758 10.4217 11.505C10.6492 11.1258 10.5083 10.6275 10.1292 10.4L5.66582 7.82164L6.33749 6.65164C6.56499 6.26164 6.42415 5.7633 6.04499 5.54664C5.65499 5.31914 5.15665 5.44914 4.93999 5.83914L2.77332 9.58747C2.54582 9.9883 2.67582 10.4758 3.06582 10.7033Z" fill="#6E97AE"/>
<path d="M22.9341 15.2967C22.5441 15.0692 22.0458 15.1992 21.8291 15.5892L21.1466 16.7592L16.6833 14.1917C16.2933 13.9642 15.795 14.1051 15.5783 14.4842C15.3508 14.8742 15.4917 15.3726 15.8708 15.5892L20.3233 18.1676L19.6516 19.3376C19.4241 19.7276 19.565 20.2259 19.9441 20.4426C20.0741 20.5184 20.215 20.5509 20.345 20.5509C20.6267 20.5509 20.8975 20.4101 21.0491 20.1392L23.2158 16.3909C23.4541 16.0117 23.3241 15.5242 22.9341 15.2967Z" fill="#6E97AE"/>
<path d="M20.3341 7.82167L15.8708 10.4C15.4808 10.6275 15.3508 11.1258 15.5783 11.505C15.7299 11.765 16.0008 11.9167 16.2824 11.9167C16.4233 11.9167 16.5641 11.8842 16.6833 11.8083L21.1358 9.23L21.8183 10.4C21.9699 10.66 22.2408 10.8117 22.5224 10.8117C22.6633 10.8117 22.8041 10.7792 22.9233 10.7033C23.3133 10.4758 23.4433 9.9775 23.2158 9.59833L21.0491 5.85C20.8216 5.46 20.3233 5.33 19.9441 5.5575C19.5541 5.785 19.4241 6.28333 19.6516 6.6625L20.3341 7.82167Z" fill="#6E97AE"/>
<path d="M5.66582 18.1784L10.1183 15.6C10.5083 15.3725 10.6383 14.8742 10.4108 14.495C10.1833 14.105 9.68499 13.975 9.30582 14.2025L4.85332 16.7809L4.17082 15.6109C3.94332 15.2209 3.44499 15.0909 3.06582 15.3184C2.67582 15.5459 2.54582 16.0442 2.77332 16.4234L4.93999 20.1717C5.09165 20.4317 5.36249 20.5834 5.64415 20.5834C5.78499 20.5834 5.92582 20.5509 6.04499 20.475C6.43499 20.2475 6.56499 19.7492 6.33749 19.37L5.66582 18.1784Z" fill="#6E97AE"/>
<path d="M16.7916 13C16.7916 13.6934 16.6074 14.3325 16.2824 14.8959C15.6216 16.0334 14.3974 16.7917 12.9999 16.7917C11.6024 16.7917 10.3783 16.0334 9.71742 14.8959C9.39242 14.3325 9.20825 13.6934 9.20825 13C9.20825 12.3067 9.39242 11.6675 9.71742 11.1042C10.3783 9.96671 11.6024 9.20837 12.9999 9.20837C14.3974 9.20837 15.6216 9.96671 16.2824 11.1042C16.6074 11.6675 16.7916 12.3067 16.7916 13Z" fill="#6E97AE"/>
</svg>
