<svg width="68" height="66" viewBox="0 0 68 66" fill="none" xmlns="http://www.w3.org/2000/svg">
<path fill-rule="evenodd" clip-rule="evenodd" d="M55.0952 65.4149H13.7828C12.7795 65.4149 11.8173 65.0164 11.1078 64.3069C10.3983 63.5974 9.99976 62.6352 9.99976 61.6319V9.85168C9.99976 8.84834 10.3983 7.88612 11.1078 7.17666C11.8173 6.46719 12.7795 6.0686 13.7828 6.0686H55.0965C56.0998 6.0686 57.0621 6.46719 57.7715 7.17666C58.481 7.88612 58.8796 8.84834 58.8796 9.85168V61.6369C58.8782 62.6396 58.4789 63.6007 57.7693 64.3091C57.0597 65.0175 56.0979 65.4153 55.0952 65.4149Z" fill="url(#paint0_linear_35569_6337)"/>
<path d="M34.887 12.0828V64.2816C34.887 64.9222 34.6348 65.4417 34.3284 65.4417C34.022 65.4417 33.7698 64.9222 33.7698 64.2816V12.0828" fill="url(#paint1_linear_35569_6337)"/>
<path d="M34.2982 13.6387L48.1202 1.42188H20.4761L34.2982 13.6387Z" fill="url(#paint2_linear_35569_6337)"/>
<path d="M23.5481 2.58813L34.297 12.0887L45.046 2.58813H23.5481Z" fill="url(#paint3_linear_35569_6337)"/>
<g filter="url(#filter0_d_35569_6337)">
<path d="M32.4638 10.6816L27.9405 17.4558L16.2622 7.63496L20.5144 1.43701L32.4638 10.6816Z" fill="url(#paint4_linear_35569_6337)"/>
</g>
<g filter="url(#filter1_d_35569_6337)">
<path d="M35.6989 30.8294C35.3206 30.0987 34.4215 29.813 33.6908 30.1913C32.9601 30.5696 32.6743 31.4686 33.0526 32.1993C33.4309 32.9301 34.33 33.2158 35.0607 32.8375C35.7914 32.4592 36.0771 31.5601 35.6989 30.8294Z" fill="white"/>
</g>
<g filter="url(#filter2_d_35569_6337)">
<path d="M35.6989 40.7398C35.3206 40.0091 34.4215 39.7234 33.6908 40.1017C32.9601 40.48 32.6743 41.379 33.0526 42.1097C33.4309 42.8405 34.33 43.1262 35.0607 42.7479C35.7914 42.3696 36.0771 41.4705 35.6989 40.7398Z" fill="white"/>
</g>
<g filter="url(#filter3_d_35569_6337)">
<path d="M35.6989 52.5162C35.3206 51.7854 34.4215 51.4997 33.6908 51.878C32.9601 52.2563 32.6743 53.1554 33.0526 53.8861C33.4309 54.6168 34.33 54.9026 35.0607 54.5243C35.7914 54.146 36.0771 53.2469 35.6989 52.5162Z" fill="white"/>
</g>
<g filter="url(#filter4_d_35569_6337)">
<path d="M35.5607 18.5941C35.1824 17.8633 34.2833 17.5776 33.5526 17.9559C32.8219 18.3342 32.5362 19.2332 32.9144 19.964C33.2927 20.6947 34.1918 20.9804 34.9225 20.6021C35.6533 20.2238 35.939 19.3248 35.5607 18.5941Z" fill="white"/>
</g>
<g filter="url(#filter5_d_35569_6337)">
<path d="M48.0948 1.43115L52.4756 7.53955L41.0003 17.6013L36.3345 10.9179L48.0948 1.43115Z" fill="url(#paint5_linear_35569_6337)"/>
</g>
<g filter="url(#filter6_d_35569_6337)">
<path d="M18.7436 19.4533H18.7058C17.7302 19.4533 16.7946 19.0658 16.1047 18.3759C15.4149 17.6861 15.0273 16.7505 15.0273 15.7749C15.0273 14.7993 15.4149 13.8637 16.1047 13.1739C16.7946 12.484 17.7302 12.0965 18.7058 12.0965C18.8234 12.0965 18.9395 12.1019 19.0538 12.1129C19.3393 11.5128 19.7807 11.0003 20.3318 10.6289C20.8829 10.2575 21.5235 10.0408 22.1869 10.0014C22.8503 9.962 23.5121 10.1013 24.1033 10.4048C24.6945 10.7084 25.1935 11.165 25.5481 11.727C26.3479 11.1648 27.3383 10.9434 28.3014 11.1114C29.2645 11.2794 30.1214 11.8231 30.6836 12.623C31.2458 13.4228 31.4672 14.4132 31.2992 15.3763C31.1312 16.3394 30.5875 17.1963 29.7876 17.7585C29.6838 18.6605 29.2513 19.4927 28.5728 20.0961C27.8942 20.6995 27.0172 21.0318 26.1092 21.0296C25.8979 21.0297 25.687 21.012 25.4787 20.9766C25.0601 21.5935 24.4654 22.0699 23.772 22.3437C23.0786 22.6175 22.3188 22.676 21.5917 22.5115C20.8646 22.3471 20.2039 21.9673 19.6959 21.4218C19.1878 20.8762 18.856 20.1903 18.7436 19.4533Z" fill="white"/>
</g>
<g filter="url(#filter7_d_35569_6337)">
<path d="M57.8391 33.2517L57.8746 33.2387C58.7914 32.9051 59.8031 32.9492 60.6873 33.3615C61.5714 33.7738 62.2556 34.5205 62.5893 35.4372C62.9229 36.354 62.8788 37.3657 62.4665 38.2499C62.0542 39.134 61.3075 39.8182 60.3908 40.1519C60.2802 40.1921 60.1693 40.2267 60.0581 40.2555C59.995 40.9171 59.7556 41.5496 59.3648 42.0871C58.9739 42.6245 58.446 43.0473 57.8361 43.3112C57.2262 43.5752 56.5567 43.6706 55.8973 43.5876C55.2379 43.5046 54.6129 43.2462 54.0875 42.8393C53.5282 43.6411 52.6733 44.188 51.7108 44.3595C50.7483 44.531 49.7571 44.3131 48.9552 43.7538C48.1534 43.1945 47.6066 42.3396 47.4351 41.3771C47.2635 40.4146 47.4814 39.4234 48.0407 38.6216C47.8298 37.7384 47.9516 36.8085 48.3828 36.0094C48.814 35.2103 49.5245 34.5981 50.3785 34.2896C50.577 34.2172 50.7813 34.1618 50.9891 34.1238C51.1715 33.4009 51.5674 32.7499 52.1253 32.2554C52.6832 31.761 53.3772 31.4462 54.1167 31.352C54.8562 31.2579 55.6069 31.3888 56.2709 31.7276C56.9349 32.0665 57.4814 32.5976 57.8391 33.2517Z" fill="white"/>
</g>
<g filter="url(#filter8_d_35569_6337)">
<path d="M18.4796 40.7598L18.5133 40.7768C19.3815 41.2158 20.0398 41.9818 20.3434 42.9061C20.6469 43.8305 20.5708 44.8376 20.1318 45.7059C19.6928 46.5741 18.9268 47.2324 18.0024 47.536C17.0781 47.8395 16.071 47.7634 15.2027 47.3244C15.098 47.2714 14.9972 47.2143 14.9003 47.1532C14.3761 47.5587 13.7527 47.8162 13.0951 47.8988C12.4375 47.9813 11.7698 47.8859 11.1617 47.6225C10.5535 47.359 10.0272 46.9372 9.63761 46.401C9.24802 45.8649 9.00945 45.234 8.94678 44.5742C7.98194 44.7146 7.00084 44.466 6.21929 43.8831C5.43775 43.3001 4.91978 42.4306 4.77935 41.4658C4.63891 40.5009 4.8875 39.5198 5.47043 38.7383C6.05337 37.9567 6.9229 37.4388 7.88773 37.2983C8.38608 36.5422 9.14547 35.9962 10.0209 35.7645C10.8963 35.5328 11.8264 35.6318 12.6335 36.0423C12.8216 36.1373 13.0014 36.248 13.1708 36.3732C13.8209 36.0126 14.5647 35.8562 15.305 35.9246C16.0453 35.9929 16.7478 36.2827 17.3209 36.7563C17.8941 37.2299 18.3112 37.8652 18.5178 38.5793C18.7245 39.2935 18.7112 40.0533 18.4796 40.7598Z" fill="white"/>
</g>
<defs>
<filter id="filter0_d_35569_6337" x="14.5755" y="0.593638" width="21.2619" height="21.079" filterUnits="userSpaceOnUse" color-interpolation-filters="sRGB">
<feFlood flood-opacity="0" result="BackgroundImageFix"/>
<feColorMatrix in="SourceAlpha" type="matrix" values="0 0 0 0 0 0 0 0 0 0 0 0 0 0 0 0 0 0 127 0" result="hardAlpha"/>
<feOffset dx="0.843373" dy="1.68675"/>
<feGaussianBlur stdDeviation="1.26506"/>
<feColorMatrix type="matrix" values="0 0 0 0 0.00392157 0 0 0 0 0.133333 0 0 0 0 0.239216 0 0 0 0.271 0"/>
<feBlend mode="normal" in2="BackgroundImageFix" result="effect1_dropShadow_35569_6337"/>
<feBlend mode="normal" in="SourceGraphic" in2="effect1_dropShadow_35569_6337" result="shape"/>
</filter>
<filter id="filter1_d_35569_6337" x="32.4638" y="29.6025" width="5.51059" height="5.51059" filterUnits="userSpaceOnUse" color-interpolation-filters="sRGB">
<feFlood flood-opacity="0" result="BackgroundImageFix"/>
<feColorMatrix in="SourceAlpha" type="matrix" values="0 0 0 0 0 0 0 0 0 0 0 0 0 0 0 0 0 0 127 0" result="hardAlpha"/>
<feOffset dx="0.843373" dy="0.843373"/>
<feGaussianBlur stdDeviation="0.63253"/>
<feColorMatrix type="matrix" values="0 0 0 0 0.00784314 0 0 0 0 0.141176 0 0 0 0 0.376471 0 0 0 0.271 0"/>
<feBlend mode="normal" in2="BackgroundImageFix" result="effect1_dropShadow_35569_6337"/>
<feBlend mode="normal" in="SourceGraphic" in2="effect1_dropShadow_35569_6337" result="shape"/>
</filter>
<filter id="filter2_d_35569_6337" x="32.4638" y="39.5129" width="5.51059" height="5.51059" filterUnits="userSpaceOnUse" color-interpolation-filters="sRGB">
<feFlood flood-opacity="0" result="BackgroundImageFix"/>
<feColorMatrix in="SourceAlpha" type="matrix" values="0 0 0 0 0 0 0 0 0 0 0 0 0 0 0 0 0 0 127 0" result="hardAlpha"/>
<feOffset dx="0.843373" dy="0.843373"/>
<feGaussianBlur stdDeviation="0.63253"/>
<feColorMatrix type="matrix" values="0 0 0 0 0.00784314 0 0 0 0 0.141176 0 0 0 0 0.376471 0 0 0 0.271 0"/>
<feBlend mode="normal" in2="BackgroundImageFix" result="effect1_dropShadow_35569_6337"/>
<feBlend mode="normal" in="SourceGraphic" in2="effect1_dropShadow_35569_6337" result="shape"/>
</filter>
<filter id="filter3_d_35569_6337" x="32.4638" y="51.2893" width="5.51059" height="5.51059" filterUnits="userSpaceOnUse" color-interpolation-filters="sRGB">
<feFlood flood-opacity="0" result="BackgroundImageFix"/>
<feColorMatrix in="SourceAlpha" type="matrix" values="0 0 0 0 0 0 0 0 0 0 0 0 0 0 0 0 0 0 127 0" result="hardAlpha"/>
<feOffset dx="0.843373" dy="0.843373"/>
<feGaussianBlur stdDeviation="0.63253"/>
<feColorMatrix type="matrix" values="0 0 0 0 0.00784314 0 0 0 0 0.141176 0 0 0 0 0.376471 0 0 0 0.271 0"/>
<feBlend mode="normal" in2="BackgroundImageFix" result="effect1_dropShadow_35569_6337"/>
<feBlend mode="normal" in="SourceGraphic" in2="effect1_dropShadow_35569_6337" result="shape"/>
</filter>
<filter id="filter4_d_35569_6337" x="32.3256" y="17.3671" width="5.51059" height="5.51059" filterUnits="userSpaceOnUse" color-interpolation-filters="sRGB">
<feFlood flood-opacity="0" result="BackgroundImageFix"/>
<feColorMatrix in="SourceAlpha" type="matrix" values="0 0 0 0 0 0 0 0 0 0 0 0 0 0 0 0 0 0 127 0" result="hardAlpha"/>
<feOffset dx="0.843373" dy="0.843373"/>
<feGaussianBlur stdDeviation="0.63253"/>
<feColorMatrix type="matrix" values="0 0 0 0 0.00784314 0 0 0 0 0.141176 0 0 0 0 0.376471 0 0 0 0.271 0"/>
<feBlend mode="normal" in2="BackgroundImageFix" result="effect1_dropShadow_35569_6337"/>
<feBlend mode="normal" in="SourceGraphic" in2="effect1_dropShadow_35569_6337" result="shape"/>
</filter>
<filter id="filter5_d_35569_6337" x="34.6477" y="0.587779" width="21.2014" height="21.2304" filterUnits="userSpaceOnUse" color-interpolation-filters="sRGB">
<feFlood flood-opacity="0" result="BackgroundImageFix"/>
<feColorMatrix in="SourceAlpha" type="matrix" values="0 0 0 0 0 0 0 0 0 0 0 0 0 0 0 0 0 0 127 0" result="hardAlpha"/>
<feOffset dx="0.843373" dy="1.68675"/>
<feGaussianBlur stdDeviation="1.26506"/>
<feColorMatrix type="matrix" values="0 0 0 0 0.00392157 0 0 0 0 0.133333 0 0 0 0 0.239216 0 0 0 0.271 0"/>
<feBlend mode="normal" in2="BackgroundImageFix" result="effect1_dropShadow_35569_6337"/>
<feBlend mode="normal" in="SourceGraphic" in2="effect1_dropShadow_35569_6337" result="shape"/>
</filter>
<filter id="filter6_d_35569_6337" x="10.8105" y="4.09126" width="31.5074" height="27.7886" filterUnits="userSpaceOnUse" color-interpolation-filters="sRGB">
<feFlood flood-opacity="0" result="BackgroundImageFix"/>
<feColorMatrix in="SourceAlpha" type="matrix" values="0 0 0 0 0 0 0 0 0 0 0 0 0 0 0 0 0 0 127 0" result="hardAlpha"/>
<feOffset dx="3.37349" dy="1.68675"/>
<feGaussianBlur stdDeviation="3.79518"/>
<feColorMatrix type="matrix" values="0 0 0 0 0 0 0 0 0 0 0 0 0 0 0 0 0 0 0.412 0"/>
<feBlend mode="normal" in2="BackgroundImageFix" result="effect1_dropShadow_35569_6337"/>
<feBlend mode="normal" in="SourceGraphic" in2="effect1_dropShadow_35569_6337" result="shape"/>
</filter>
<filter id="filter7_d_35569_6337" x="38.1008" y="27.1054" width="28.9271" height="26.5885" filterUnits="userSpaceOnUse" color-interpolation-filters="sRGB">
<feFlood flood-opacity="0" result="BackgroundImageFix"/>
<feColorMatrix in="SourceAlpha" type="matrix" values="0 0 0 0 0 0 0 0 0 0 0 0 0 0 0 0 0 0 127 0" result="hardAlpha"/>
<feOffset dx="-2.53012" dy="2.53012"/>
<feGaussianBlur stdDeviation="3.37349"/>
<feColorMatrix type="matrix" values="0 0 0 0 0 0 0 0 0 0 0 0 0 0 0 0 0 0 0.271 0"/>
<feBlend mode="normal" in2="BackgroundImageFix" result="effect1_dropShadow_35569_6337"/>
<feBlend mode="normal" in="SourceGraphic" in2="effect1_dropShadow_35569_6337" result="shape"/>
</filter>
<filter id="filter8_d_35569_6337" x="0.5241" y="29.7382" width="30.9661" height="27.4666" filterUnits="userSpaceOnUse" color-interpolation-filters="sRGB">
<feFlood flood-opacity="0" result="BackgroundImageFix"/>
<feColorMatrix in="SourceAlpha" type="matrix" values="0 0 0 0 0 0 0 0 0 0 0 0 0 0 0 0 0 0 127 0" result="hardAlpha"/>
<feOffset dx="3.37349" dy="1.68675"/>
<feGaussianBlur stdDeviation="3.79518"/>
<feColorMatrix type="matrix" values="0 0 0 0 0 0 0 0 0 0 0 0 0 0 0 0 0 0 0.412 0"/>
<feBlend mode="normal" in2="BackgroundImageFix" result="effect1_dropShadow_35569_6337"/>
<feBlend mode="normal" in="SourceGraphic" in2="effect1_dropShadow_35569_6337" result="shape"/>
</filter>
<linearGradient id="paint0_linear_35569_6337" x1="34.4397" y1="68.2636" x2="34.4397" y2="4.16952" gradientUnits="userSpaceOnUse">
<stop stop-color="#019EED"/>
<stop offset="1" stop-color="#2EB3F5"/>
</linearGradient>
<linearGradient id="paint1_linear_35569_6337" x1="33.7698" y1="38.7622" x2="34.887" y2="38.7622" gradientUnits="userSpaceOnUse">
<stop stop-color="#019EED"/>
<stop offset="1" stop-color="#2EB3F5"/>
</linearGradient>
<linearGradient id="paint2_linear_35569_6337" x1="34.2152" y1="-5.92044" x2="34.2746" y2="20.6151" gradientUnits="userSpaceOnUse">
<stop stop-color="#2AD2FF"/>
<stop offset="1" stop-color="#72E3C6"/>
</linearGradient>
<linearGradient id="paint3_linear_35569_6337" x1="23.5481" y1="7.33841" x2="45.046" y2="7.33841" gradientUnits="userSpaceOnUse">
<stop stop-color="#019EED"/>
<stop offset="1" stop-color="#2EB3F5"/>
</linearGradient>
<linearGradient id="paint4_linear_35569_6337" x1="24.1848" y1="-5.80348" x2="24.4857" y2="20.7237" gradientUnits="userSpaceOnUse">
<stop stop-color="#2AD2FF"/>
<stop offset="1" stop-color="#72E3C6"/>
</linearGradient>
<linearGradient id="paint5_linear_35569_6337" x1="4.42345" y1="-5.73221" x2="4.74744" y2="20.8029" gradientUnits="userSpaceOnUse">
<stop stop-color="#2AD2FF"/>
<stop offset="1" stop-color="#72E3C6"/>
</linearGradient>
</defs>
</svg>
