<svg width="26" height="26" viewBox="0 0 26 26" fill="none" xmlns="http://www.w3.org/2000/svg">
<g opacity="0.4">
<path d="M13.0001 2.16663C7.03091 2.16663 2.16675 7.03079 2.16675 13C2.16675 18.9691 7.03091 23.8333 13.0001 23.8333C18.9692 23.8333 23.8334 18.9691 23.8334 13C23.8334 7.03079 18.9692 2.16663 13.0001 2.16663ZM18.1784 10.5083L12.0359 16.6508C11.8842 16.8025 11.6784 16.8891 11.4617 16.8891C11.2451 16.8891 11.0392 16.8025 10.8876 16.6508L7.82175 13.585C7.50758 13.2708 7.50758 12.7508 7.82175 12.4366C8.13591 12.1225 8.65591 12.1225 8.97008 12.4366L11.4617 14.9283L17.0301 9.35996C17.3442 9.04579 17.8642 9.04579 18.1784 9.35996C18.4926 9.67413 18.4926 10.1833 18.1784 10.5083Z" fill="#6E97AE"/>
</g>
</svg>
