<svg width="32" height="34" viewBox="0 0 32 34" fill="none" xmlns="http://www.w3.org/2000/svg">
<g filter="url(#filter0_d_35569_6365)">
<path d="M10.4466 2.33325H8.22992C5.67492 2.33325 4.33325 3.67492 4.33325 6.21825V8.43492C4.33325 10.9783 5.67492 12.3199 8.21825 12.3199H10.4349C12.9783 12.3199 14.3199 10.9783 14.3199 8.43492V6.21825C14.3316 3.67492 12.9899 2.33325 10.4466 2.33325Z" fill="#1FACF3"/>
<path d="M23.7816 2.33325H21.5649C19.0216 2.33325 17.6799 3.67492 17.6799 6.21825V8.43492C17.6799 10.9783 19.0216 12.3199 21.5649 12.3199H23.7816C26.3249 12.3199 27.6666 10.9783 27.6666 8.43492V6.21825C27.6666 3.67492 26.3249 2.33325 23.7816 2.33325Z" fill="#1FACF3"/>
<path d="M23.7816 15.6682H21.5649C19.0216 15.6682 17.6799 17.0099 17.6799 19.5532V21.7699C17.6799 24.3132 19.0216 25.6549 21.5649 25.6549H23.7816C26.3249 25.6549 27.6666 24.3132 27.6666 21.7699V19.5532C27.6666 17.0099 26.3249 15.6682 23.7816 15.6682Z" fill="#1FACF3"/>
<path d="M10.4466 15.6682H8.22992C5.67492 15.6682 4.33325 17.0099 4.33325 19.5532V21.7699C4.33325 24.3249 5.67492 25.6666 8.21825 25.6666H10.4349C12.9783 25.6666 14.3199 24.3249 14.3199 21.7815V19.5649C14.3316 17.0099 12.9899 15.6682 10.4466 15.6682Z" fill="#1FACF3"/>
</g>
<defs>
<filter id="filter0_d_35569_6365" x="-2" y="0" width="36" height="36" filterUnits="userSpaceOnUse" color-interpolation-filters="sRGB">
<feFlood flood-opacity="0" result="BackgroundImageFix"/>
<feColorMatrix in="SourceAlpha" type="matrix" values="0 0 0 0 0 0 0 0 0 0 0 0 0 0 0 0 0 0 127 0" result="hardAlpha"/>
<feOffset dy="4"/>
<feGaussianBlur stdDeviation="2"/>
<feComposite in2="hardAlpha" operator="out"/>
<feColorMatrix type="matrix" values="0 0 0 0 0 0 0 0 0 0 0 0 0 0 0 0 0 0 0.25 0"/>
<feBlend mode="normal" in2="BackgroundImageFix" result="effect1_dropShadow_35569_6365"/>
<feBlend mode="normal" in="SourceGraphic" in2="effect1_dropShadow_35569_6365" result="shape"/>
</filter>
</defs>
</svg>
