<svg width="19" height="20" viewBox="0 0 19 20" fill="none" xmlns="http://www.w3.org/2000/svg">
<g clip-path="url(#clip0_35575_10072)">
<path d="M6.85369 19.0374C7.47377 19.6543 8.47487 19.6543 9.09177 19.0374L17.8103 10.8603C18.2978 10.4031 18.8788 9.53669 18.9207 8.86976C19.0328 7.06548 18.9538 3.61059 18.8989 1.77889C18.8792 1.11129 18.3179 0.551622 17.6499 0.536277C15.3098 0.481867 10.3518 0.423751 9.89094 0.88505L0.289865 9.57131C-0.326584 10.1882 0.232639 11.7485 0.853907 12.3686L6.85369 19.0374ZM14.4937 3.18969C15.0166 2.66798 15.8621 2.66798 16.3855 3.18969C16.9072 3.71304 16.9072 4.5581 16.3855 5.07981C15.8617 5.60197 15.0162 5.60197 14.4937 5.07981C13.9715 4.5581 13.9715 3.71259 14.4937 3.18969Z" fill="#1FACF3"/>
</g>
<defs>
<clipPath id="clip0_35575_10072">
<rect width="19" height="19" fill="white" transform="matrix(-1 0 0 1 19 0.5)"/>
</clipPath>
</defs>
</svg>
