<svg width="15" height="15" viewBox="0 0 15 15" fill="none" xmlns="http://www.w3.org/2000/svg">
<path d="M13.75 13.2814H13.125V6.2377C13.125 5.8502 12.95 5.4877 12.6437 5.2502L11.875 4.6502L11.8625 3.11895C11.8625 2.7752 11.5813 2.5002 11.2375 2.5002H9.10625L8.26875 1.8502C7.81875 1.49395 7.18125 1.49395 6.73125 1.8502L2.35625 5.2502C2.05 5.4877 1.875 5.8502 1.875 6.23145L1.84375 13.2814H1.25C0.99375 13.2814 0.78125 13.4939 0.78125 13.7502C0.78125 14.0064 0.99375 14.2189 1.25 14.2189H13.75C14.0063 14.2189 14.2188 14.0064 14.2188 13.7502C14.2188 13.4939 14.0063 13.2814 13.75 13.2814ZM4.0625 7.96895V7.03145C4.0625 6.6877 4.34375 6.40645 4.6875 6.40645H5.9375C6.28125 6.40645 6.5625 6.6877 6.5625 7.03145V7.96895C6.5625 8.3127 6.28125 8.59395 5.9375 8.59395H4.6875C4.34375 8.59395 4.0625 8.3127 4.0625 7.96895ZM9.0625 13.2814H5.9375V11.5627C5.9375 11.0439 6.35625 10.6252 6.875 10.6252H8.125C8.64375 10.6252 9.0625 11.0439 9.0625 11.5627V13.2814ZM10.9375 7.96895C10.9375 8.3127 10.6562 8.59395 10.3125 8.59395H9.0625C8.71875 8.59395 8.4375 8.3127 8.4375 7.96895V7.03145C8.4375 6.6877 8.71875 6.40645 9.0625 6.40645H10.3125C10.6562 6.40645 10.9375 6.6877 10.9375 7.03145V7.96895Z" fill="#6E97AE"/>
</svg>
