<svg width="50" height="64" viewBox="0 0 50 64" fill="none" xmlns="http://www.w3.org/2000/svg">
<path d="M12.5262 4.88905C14.3809 4.88905 16.2367 4.86877 18.0914 4.8962C19.7516 4.92006 20.3694 5.55934 20.4279 7.21124C20.5734 11.3726 20.3802 11.573 16.2141 11.573C13.1822 11.573 10.1503 11.5837 7.11968 11.573C5.46659 11.5646 4.83208 10.9158 4.79152 9.27461C4.68418 5.02739 4.80942 4.89621 8.997 4.89382L12.5262 4.88905Z" fill="#B9F3EF"/>
<path d="M0.168817 16.1172H49.6839C49.7126 16.6145 49.7639 17.0892 49.7639 17.5628C49.7639 29.6949 49.771 45.2275 49.7639 57.3597C49.7639 61.4972 47.617 63.6477 43.4867 63.6501C31.0825 63.658 18.6784 63.658 6.27426 63.6501C2.15823 63.6501 0.0220991 61.4901 0.0149428 57.3419C0.0042085 50.7319 -0.0124894 44.1231 0.0149428 37.5131C0.0280626 33.669 0.127064 29.825 0.167616 25.9809C0.184314 23.865 0.168817 18.3523 0.168817 16.1172ZM38.9043 41.8868C38.9674 39.1262 38.2139 36.4084 36.7381 34.0745C35.2624 31.7406 33.1302 29.8945 30.6091 28.7679C28.0881 27.6414 25.2904 27.2845 22.5673 27.742C19.8441 28.1996 17.3167 29.4513 15.3023 31.3399C13.2879 33.2286 11.8761 35.6701 11.2442 38.3582C10.6123 41.0462 10.7884 43.8611 11.7503 46.4494C12.7123 49.0378 14.4172 51.2844 16.6513 52.9073C18.8854 54.5302 21.549 55.4572 24.308 55.5719C26.1689 55.6484 28.0264 55.3534 29.7721 54.7042C31.5178 54.0549 33.1167 53.0643 34.4753 51.7903C35.8339 50.5163 36.9251 48.9844 37.6851 47.284C38.4451 45.5836 38.8588 43.7488 38.9019 41.8868H38.9043Z" fill="url(#paint0_linear_35575_10009)"/>
<g filter="url(#filter0_d_35575_10009)">
<path d="M24.8771 55.6116C32.663 55.6116 38.9748 49.2998 38.9748 41.5138C38.9748 33.7278 32.663 27.416 24.8771 27.416C17.0911 27.416 10.7793 33.7278 10.7793 41.5138C10.7793 49.2998 17.0911 55.6116 24.8771 55.6116Z" fill="white"/>
</g>
<path d="M0.144782 16.119C0.144782 14.3145 0.144782 12.5624 0.144782 10.8103C0.144782 9.22638 0.126893 7.64248 0.157903 6.05857C0.114998 5.30789 0.228807 4.55648 0.492078 3.85217C0.755348 3.14785 1.16232 2.50606 1.68711 1.96758C2.2119 1.4291 2.84302 1.00574 3.54032 0.724427C4.23762 0.443116 4.98583 0.310012 5.73737 0.333581C18.5542 0.289848 31.371 0.289848 44.1878 0.333581C44.8941 0.303228 45.5993 0.414558 46.2618 0.661003C46.9244 0.907448 47.5309 1.28402 48.0456 1.76854C48.5604 2.25305 48.973 2.83571 49.259 3.48216C49.5451 4.12861 49.6988 4.82577 49.7112 5.53257C49.8305 8.87215 49.747 12.2284 49.741 15.5775C49.7153 15.7625 49.6669 15.9436 49.5967 16.1166L0.144782 16.119ZM12.6241 4.89329H9.10437C4.92991 4.89329 4.80349 5.02807 4.91083 9.2741C4.95258 10.9153 5.5847 11.5641 7.23302 11.5724C10.2565 11.5891 13.2788 11.5724 16.2976 11.5724C20.4518 11.5724 20.645 11.3732 20.4995 7.21071C20.4411 5.55881 19.8244 4.91953 18.1689 4.89567C16.3286 4.87301 14.4775 4.89447 12.6276 4.89209L12.6241 4.89329ZM29.3076 10.2223C29.7003 10.2338 30.0876 10.1284 30.4202 9.91935C30.7529 9.71035 31.016 9.40722 31.176 9.04843C31.3361 8.68964 31.3859 8.29137 31.3192 7.90421C31.2524 7.51705 31.0722 7.15845 30.8012 6.87393C30.5303 6.58941 30.181 6.39182 29.7976 6.30622C29.4141 6.22063 29.0139 6.25089 28.6477 6.39318C28.2815 6.53547 27.9659 6.78336 27.7408 7.10539C27.5158 7.42742 27.3915 7.80906 27.3838 8.20185C27.3782 8.72354 27.5767 9.22675 27.9371 9.60403C28.2974 9.98131 28.791 10.2028 29.3124 10.2211L29.3076 10.2223ZM38.0931 8.28415C38.0989 7.89574 37.9895 7.5143 37.7788 7.18796C37.5681 6.86161 37.2655 6.60498 36.9091 6.45042C36.5527 6.29585 36.1586 6.25027 35.7763 6.31944C35.3941 6.3886 35.0409 6.56943 34.7613 6.83908C34.4816 7.10873 34.2881 7.45514 34.2052 7.83463C34.1222 8.21412 34.1534 8.60968 34.295 8.97143C34.4365 9.33318 34.682 9.6449 35.0005 9.8673C35.319 10.0897 35.6962 10.2128 36.0846 10.2211C36.6053 10.2203 37.1055 10.0181 37.4805 9.65683C37.8555 9.29558 38.0763 8.80327 38.0967 8.28295L38.0931 8.28415ZM44.8629 8.30563C44.8721 7.91795 44.7664 7.53619 44.559 7.2085C44.3516 6.88081 44.0519 6.62183 43.6976 6.46419C43.3433 6.30655 42.9502 6.25731 42.568 6.32266C42.1857 6.38801 41.8314 6.56502 41.5496 6.83142C41.2678 7.09781 41.0711 7.44165 40.9844 7.81962C40.8977 8.19758 40.9248 8.59277 41.0623 8.95538C41.1997 9.31798 41.4414 9.63177 41.757 9.85722C42.0725 10.0827 42.4477 10.2097 42.8353 10.2223C43.3577 10.2306 43.8628 10.0346 44.243 9.67625C44.6232 9.31785 44.8486 8.82524 44.8712 8.30322L44.8629 8.30563Z" fill="url(#paint1_linear_35575_10009)"/>
<g filter="url(#filter1_d_35575_10009)">
<path d="M24.7831 52.5041C31.3511 52.5041 36.6755 47.4023 36.6755 41.109C36.6755 34.8156 31.3511 29.7139 24.7831 29.7139C18.2151 29.7139 12.8906 34.8156 12.8906 41.109C12.8906 47.4023 18.2151 52.5041 24.7831 52.5041Z" fill="#D1D3D4"/>
</g>
<path d="M36.557 42.4785C36.3752 45.3699 35.1287 48.0914 33.0583 50.1178C30.9878 52.1442 28.2401 53.3318 25.3455 53.4514C19.8829 53.8295 14.2009 49.5906 13.2813 44.4011C13.2093 43.892 13.311 43.3735 13.57 42.9293C14.0151 42.1486 14.6132 41.4658 15.3285 40.9218C16.0437 40.3777 16.8614 39.9836 17.7326 39.7629C18.6037 39.5423 19.5105 39.4998 20.3985 39.6379C21.2865 39.776 22.1375 40.0919 22.9005 40.5666C24.0717 41.2333 25.1583 42.0503 26.2735 42.8137C30.2893 45.5688 32.7022 45.5103 36.557 42.4785Z" fill="url(#paint2_radial_35575_10009)"/>
<path d="M36.1859 9.45575C36.8327 9.45575 37.3571 8.93137 37.3571 8.28452C37.3571 7.63766 36.8327 7.11328 36.1859 7.11328C35.539 7.11328 35.0146 7.63766 35.0146 8.28452C35.0146 8.93137 35.539 9.45575 36.1859 9.45575Z" fill="white"/>
<path d="M42.931 9.45575C43.5779 9.45575 44.1022 8.93137 44.1022 8.28452C44.1022 7.63766 43.5779 7.11328 42.931 7.11328C42.2841 7.11328 41.7598 7.63766 41.7598 8.28452C41.7598 8.93137 42.2841 9.45575 42.931 9.45575Z" fill="white"/>
<defs>
<filter id="filter0_d_35575_10009" x="9.09255" y="27.416" width="34.9423" height="34.9423" filterUnits="userSpaceOnUse" color-interpolation-filters="sRGB">
<feFlood flood-opacity="0" result="BackgroundImageFix"/>
<feColorMatrix in="SourceAlpha" type="matrix" values="0 0 0 0 0 0 0 0 0 0 0 0 0 0 0 0 0 0 127 0" result="hardAlpha"/>
<feOffset dx="1.68675" dy="3.37349"/>
<feGaussianBlur stdDeviation="1.68675"/>
<feColorMatrix type="matrix" values="0 0 0 0 0.00392157 0 0 0 0 0.133333 0 0 0 0 0.239216 0 0 0 0.212 0"/>
<feBlend mode="normal" in2="BackgroundImageFix" result="effect1_dropShadow_35575_10009"/>
<feBlend mode="normal" in="SourceGraphic" in2="effect1_dropShadow_35575_10009" result="shape"/>
</filter>
<filter id="filter1_d_35575_10009" x="12.0473" y="29.7139" width="28.8454" height="28.6937" filterUnits="userSpaceOnUse" color-interpolation-filters="sRGB">
<feFlood flood-opacity="0" result="BackgroundImageFix"/>
<feColorMatrix in="SourceAlpha" type="matrix" values="0 0 0 0 0 0 0 0 0 0 0 0 0 0 0 0 0 0 127 0" result="hardAlpha"/>
<feOffset dx="1.68675" dy="3.37349"/>
<feGaussianBlur stdDeviation="1.26506"/>
<feColorMatrix type="matrix" values="0 0 0 0 0 0 0 0 0 0.305882 0 0 0 0 0.556863 0 0 0 0.561 0"/>
<feBlend mode="normal" in2="BackgroundImageFix" result="effect1_dropShadow_35575_10009"/>
<feBlend mode="normal" in="SourceGraphic" in2="effect1_dropShadow_35575_10009" result="shape"/>
</filter>
<linearGradient id="paint0_linear_35575_10009" x1="24.8835" y1="63.8937" x2="24.8835" y2="15.309" gradientUnits="userSpaceOnUse">
<stop stop-color="#019EED"/>
<stop offset="1" stop-color="#2EB3F5"/>
</linearGradient>
<linearGradient id="paint1_linear_35575_10009" x1="-0.555248" y1="-0.711586" x2="7.40112" y2="29.3723" gradientUnits="userSpaceOnUse">
<stop stop-color="#2AD2FF"/>
<stop offset="1" stop-color="#72E3C6"/>
</linearGradient>
<radialGradient id="paint2_radial_35575_10009" cx="0" cy="0" r="1" gradientUnits="userSpaceOnUse" gradientTransform="translate(-121.176 39.322) scale(15.6198 15.628)">
<stop stop-color="#00D8FF"/>
<stop offset="1" stop-color="#0092FF"/>
</radialGradient>
</defs>
</svg>
