<svg width="36" height="47" viewBox="0 0 36 47" fill="none" xmlns="http://www.w3.org/2000/svg">
<path d="M9.03728 3.28739C10.365 3.28739 11.6936 3.27287 13.0213 3.29251C14.2099 3.30959 14.6522 3.76725 14.694 4.94982C14.7982 7.92888 14.6599 8.07232 11.6774 8.07232C9.50691 8.07232 7.33644 8.08001 5.16682 8.07232C3.98339 8.06635 3.52915 7.60185 3.50012 6.42696C3.42327 3.38643 3.51293 3.29251 6.51077 3.29081L9.03728 3.28739Z" fill="#B9F3EF"/>
<path d="M0.191167 11.3232H35.6385C35.659 11.6793 35.6957 12.0191 35.6957 12.3581C35.6957 21.0434 35.7008 32.163 35.6957 40.8483C35.6957 43.8103 34.1588 45.3498 31.2019 45.3515C22.3219 45.3572 13.442 45.3572 4.56198 45.3515C1.61537 45.3515 0.086133 43.8052 0.0810099 40.8355C0.0733253 36.1035 0.0613715 31.3724 0.0810099 26.6404C0.0904022 23.8884 0.161276 21.1365 0.190307 18.3845C0.202261 16.8698 0.191167 12.9233 0.191167 11.3232ZM27.9214 29.7714C27.9667 27.7951 27.4272 25.8495 26.3707 24.1787C25.3142 22.5078 23.7879 21.1863 21.983 20.3798C20.1782 19.5733 18.1754 19.3178 16.226 19.6453C14.2765 19.9729 12.4672 20.8689 11.0251 22.221C9.58296 23.5731 8.57231 25.321 8.11993 27.2453C7.66755 29.1697 7.79358 31.1848 8.48223 33.0377C9.17088 34.8907 10.3915 36.499 11.9908 37.6609C13.5901 38.8227 15.497 39.4863 17.4721 39.5684C18.8043 39.6232 20.1341 39.412 21.3838 38.9472C22.6335 38.4824 23.7781 37.7733 24.7508 36.8612C25.7234 35.9492 26.5046 34.8525 27.0487 33.6352C27.5928 32.4179 27.8889 31.1044 27.9197 29.7714H27.9214Z" fill="url(#paint0_linear_35575_9432)"/>
<g filter="url(#filter0_d_35575_9432)">
<path d="M17.8795 39.596C23.4534 39.596 27.972 35.0775 27.972 29.5036C27.972 23.9297 23.4534 19.4111 17.8795 19.4111C12.3056 19.4111 7.78711 23.9297 7.78711 29.5036C7.78711 35.0775 12.3056 39.596 17.8795 39.596Z" fill="white"/>
</g>
<path d="M0.174573 11.3241C0.174573 10.0322 0.174573 8.77794 0.174573 7.52364C0.174573 6.38974 0.161767 5.25584 0.183967 4.12193C0.153252 3.58453 0.234726 3.0466 0.423199 2.54239C0.611671 2.03819 0.903018 1.57873 1.27871 1.19324C1.6544 0.807752 2.10621 0.504671 2.6054 0.303283C3.10459 0.101895 3.64023 0.00660804 4.17824 0.0234807C13.3536 -0.0078269 22.5291 -0.0078269 31.7045 0.0234807C32.2101 0.00175157 32.7149 0.0814515 33.1892 0.257879C33.6636 0.434306 34.0977 0.703889 34.4662 1.05075C34.8348 1.39761 35.1301 1.81472 35.3349 2.27751C35.5397 2.7403 35.6497 3.23939 35.6586 3.74538C35.744 6.13614 35.6842 8.53887 35.68 10.9365C35.6616 11.0689 35.6269 11.1985 35.5766 11.3224L0.174573 11.3241ZM9.10835 3.28772H6.58864C3.60019 3.28772 3.50969 3.38421 3.58653 6.42389C3.61642 7.59878 4.06895 8.06328 5.24896 8.06925C7.41346 8.08121 9.5771 8.06925 11.7382 8.06925C14.7121 8.06925 14.8504 7.92665 14.7463 4.94674C14.7044 3.76416 14.263 3.30651 13.0779 3.28943C11.7604 3.27321 10.4352 3.28857 9.11091 3.28686L9.10835 3.28772ZM21.0519 7.1027C21.333 7.11094 21.6103 7.03545 21.8484 6.88582C22.0866 6.7362 22.2749 6.51919 22.3895 6.26234C22.504 6.00549 22.5397 5.72037 22.492 5.4432C22.4442 5.16604 22.3151 4.90932 22.1212 4.70564C21.9272 4.50196 21.6771 4.3605 21.4027 4.29923C21.1282 4.23795 20.8417 4.25961 20.5795 4.36148C20.3174 4.46334 20.0914 4.6408 19.9303 4.87134C19.7692 5.10188 19.6802 5.37509 19.6747 5.65629C19.6707 6.02976 19.8128 6.39 20.0708 6.66009C20.3287 6.93018 20.6821 7.08871 21.0553 7.10184L21.0519 7.1027ZM27.3413 5.7152C27.3455 5.43714 27.2672 5.16408 27.1164 4.93045C26.9655 4.69682 26.7489 4.51311 26.4937 4.40245C26.2386 4.2918 25.9564 4.25917 25.6828 4.30869C25.4091 4.3582 25.1563 4.48765 24.9561 4.68069C24.7559 4.87373 24.6174 5.12173 24.558 5.3934C24.4986 5.66507 24.521 5.94824 24.6223 6.20722C24.7236 6.46619 24.8994 6.68935 25.1274 6.84856C25.3554 7.00778 25.6254 7.09591 25.9034 7.10184C26.2762 7.10124 26.6343 6.9565 26.9028 6.69789C27.1713 6.43927 27.3293 6.08683 27.3439 5.71434L27.3413 5.7152ZM32.1877 5.73058C32.1943 5.45304 32.1186 5.17975 31.9702 4.94516C31.8217 4.71057 31.6072 4.52517 31.3535 4.41231C31.0999 4.29946 30.8185 4.26421 30.5449 4.31099C30.2712 4.35777 30.0176 4.4845 29.8158 4.67521C29.6141 4.86591 29.4733 5.11206 29.4112 5.38265C29.3491 5.65323 29.3685 5.93614 29.4669 6.19572C29.5654 6.45531 29.7384 6.67994 29.9643 6.84134C30.1901 7.00275 30.4587 7.09369 30.7362 7.1027C31.1102 7.10861 31.4718 6.96836 31.744 6.71179C32.0162 6.45522 32.1775 6.10257 32.1937 5.72886L32.1877 5.73058Z" fill="url(#paint1_linear_35575_9432)"/>
<g filter="url(#filter1_d_35575_9432)">
<path d="M17.8125 37.3699C22.5145 37.3699 26.3262 33.7176 26.3262 29.2123C26.3262 24.707 22.5145 21.0547 17.8125 21.0547C13.1105 21.0547 9.29883 24.707 9.29883 29.2123C9.29883 33.7176 13.1105 37.3699 17.8125 37.3699Z" fill="#D1D3D4"/>
</g>
<path d="M26.2414 30.1948C26.1112 32.2647 25.2189 34.213 23.7367 35.6637C22.2545 37.1144 20.2875 37.9646 18.2153 38.0502C14.3047 38.3209 10.2369 35.2863 9.57864 31.5712C9.52708 31.2068 9.59988 30.8355 9.78527 30.5176C10.1039 29.9587 10.5321 29.4699 11.0441 29.0804C11.5562 28.6909 12.1416 28.4087 12.7652 28.2508C13.3889 28.0929 14.038 28.0624 14.6737 28.1613C15.3094 28.2601 15.9186 28.4863 16.4649 28.8261C17.3034 29.3034 18.0812 29.8883 18.8796 30.4347C21.7545 32.4071 23.4818 32.3653 26.2414 30.1948Z" fill="url(#paint2_radial_35575_9432)"/>
<path d="M25.9752 6.5539C26.4383 6.5539 26.8137 6.1785 26.8137 5.71543C26.8137 5.25235 26.4383 4.87695 25.9752 4.87695C25.5121 4.87695 25.1367 5.25235 25.1367 5.71543C25.1367 6.1785 25.5121 6.5539 25.9752 6.5539Z" fill="white"/>
<path d="M30.8043 6.5539C31.2674 6.5539 31.6428 6.1785 31.6428 5.71543C31.6428 5.25235 31.2674 4.87695 30.8043 4.87695C30.3412 4.87695 29.9658 5.25235 29.9658 5.71543C29.9658 6.1785 30.3412 6.5539 30.8043 6.5539Z" fill="white"/>
<defs>
<filter id="filter0_d_35575_9432" x="6.10036" y="19.4111" width="26.9316" height="26.9316" filterUnits="userSpaceOnUse" color-interpolation-filters="sRGB">
<feFlood flood-opacity="0" result="BackgroundImageFix"/>
<feColorMatrix in="SourceAlpha" type="matrix" values="0 0 0 0 0 0 0 0 0 0 0 0 0 0 0 0 0 0 127 0" result="hardAlpha"/>
<feOffset dx="1.68675" dy="3.37349"/>
<feGaussianBlur stdDeviation="1.68675"/>
<feColorMatrix type="matrix" values="0 0 0 0 0.00392157 0 0 0 0 0.133333 0 0 0 0 0.239216 0 0 0 0.212 0"/>
<feBlend mode="normal" in2="BackgroundImageFix" result="effect1_dropShadow_35575_9432"/>
<feBlend mode="normal" in="SourceGraphic" in2="effect1_dropShadow_35575_9432" result="shape"/>
</filter>
<filter id="filter1_d_35575_9432" x="8.45545" y="21.0547" width="22.0876" height="22.219" filterUnits="userSpaceOnUse" color-interpolation-filters="sRGB">
<feFlood flood-opacity="0" result="BackgroundImageFix"/>
<feColorMatrix in="SourceAlpha" type="matrix" values="0 0 0 0 0 0 0 0 0 0 0 0 0 0 0 0 0 0 127 0" result="hardAlpha"/>
<feOffset dx="1.68675" dy="3.37349"/>
<feGaussianBlur stdDeviation="1.26506"/>
<feColorMatrix type="matrix" values="0 0 0 0 0 0 0 0 0 0.305882 0 0 0 0 0.556863 0 0 0 0.561 0"/>
<feBlend mode="normal" in2="BackgroundImageFix" result="effect1_dropShadow_35575_9432"/>
<feBlend mode="normal" in="SourceGraphic" in2="effect1_dropShadow_35575_9432" result="shape"/>
</filter>
<linearGradient id="paint0_linear_35575_9432" x1="17.8841" y1="45.5259" x2="17.8841" y2="10.7447" gradientUnits="userSpaceOnUse">
<stop stop-color="#019EED"/>
<stop offset="1" stop-color="#2EB3F5"/>
</linearGradient>
<linearGradient id="paint1_linear_35575_9432" x1="-0.32657" y1="-0.724742" x2="5.3693" y2="20.812" gradientUnits="userSpaceOnUse">
<stop stop-color="#2AD2FF"/>
<stop offset="1" stop-color="#72E3C6"/>
</linearGradient>
<radialGradient id="paint2_radial_35575_9432" cx="0" cy="0" r="1" gradientUnits="userSpaceOnUse" gradientTransform="translate(-86.6777 27.9351) scale(11.1821 11.1879)">
<stop stop-color="#00D8FF"/>
<stop offset="1" stop-color="#0092FF"/>
</radialGradient>
</defs>
</svg>
