<svg width="72" height="64" viewBox="0 0 72 64" fill="none" xmlns="http://www.w3.org/2000/svg">
<path d="M12.4625 5.10757C14.3078 5.10757 16.1543 5.08725 17.9996 5.11474C19.6513 5.13864 20.2704 5.77446 20.3242 7.41899C20.4688 11.5602 20.2776 11.7586 16.1316 11.7586C13.115 11.7586 10.0985 11.7694 7.08308 11.7586C5.43854 11.7502 4.81229 11.1049 4.76688 9.47227C4.66051 5.2462 4.7848 5.11593 8.94992 5.11354L12.4625 5.10757Z" fill="#B9F3EF"/>
<path d="M0.169164 16.2837H49.4358C49.4645 16.7785 49.5147 17.2506 49.5147 17.7179C49.5147 29.789 49.5219 45.2435 49.5147 57.3146C49.5147 61.4319 47.3826 63.5712 43.2688 63.5736C30.9269 63.5808 18.5849 63.5808 6.24295 63.5736C2.14715 63.5736 0.0281203 61.4223 0.0149735 57.2966C0.00421715 50.7233 -0.012515 44.144 0.0149735 37.5682C0.0281203 33.7437 0.12614 29.9192 0.166775 26.0947C0.183507 23.9924 0.169164 18.5079 0.169164 16.2837ZM38.7105 41.9234C38.7734 39.1766 38.0236 36.4724 36.5552 34.1502C35.0868 31.828 32.9653 29.9913 30.4569 28.8704C27.9484 27.7495 25.1648 27.3944 22.4553 27.8497C19.7458 28.305 17.2311 29.5505 15.2268 31.4297C13.2225 33.309 11.818 35.7383 11.1893 38.4129C10.5606 41.0875 10.7359 43.8882 11.6931 46.4636C12.6503 49.0389 14.3469 51.2742 16.5698 52.8889C18.7927 54.5036 21.4431 55.4258 24.1882 55.5398C26.0396 55.6157 27.8876 55.322 29.6243 54.6759C31.361 54.0297 32.9516 53.044 34.3032 51.7765C35.6548 50.5089 36.7403 48.9847 37.4964 47.293C38.2525 45.6013 38.6641 43.7759 38.7069 41.9234H38.7105Z" fill="url(#paint0_linear_35569_6279)"/>
<g filter="url(#filter0_d_35569_6279)">
<path d="M24.7568 55.5749C32.504 55.5749 38.7843 49.2945 38.7843 41.5473C38.7843 33.8001 32.504 27.5198 24.7568 27.5198C17.0096 27.5198 10.7292 33.8001 10.7292 41.5473C10.7292 49.2945 17.0096 55.5749 24.7568 55.5749Z" fill="white"/>
</g>
<path d="M0.143816 16.282C0.143816 14.4892 0.143816 12.7431 0.143816 10.9994C0.143816 9.42297 0.12589 7.84657 0.156964 6.27136C0.114307 5.52445 0.227563 4.77684 0.489527 4.07609C0.751492 3.37533 1.15644 2.73677 1.67859 2.20101C2.20075 1.66526 2.82869 1.24403 3.52248 0.964134C4.21627 0.68424 4.96071 0.551798 5.70847 0.575238C18.4608 0.532212 31.2135 0.532212 43.9666 0.575238C44.6695 0.544653 45.3713 0.655133 46.0308 0.90016C46.6903 1.14519 47.2941 1.5198 47.8065 2.00191C48.3189 2.48401 48.7296 3.06385 49.0143 3.70721C49.299 4.35058 49.452 5.04443 49.4643 5.74787C49.5838 9.07519 49.5001 12.4109 49.4942 15.7418C49.4687 15.9259 49.4205 16.1061 49.3508 16.2784L0.143816 16.282ZM12.5603 5.11205H9.05848C4.90412 5.11205 4.77862 5.24592 4.88499 9.47079C4.92563 11.1046 5.55547 11.7488 7.19523 11.7571C10.2034 11.7738 13.2105 11.7571 16.2187 11.7571C20.3527 11.7571 20.5439 11.5587 20.4017 7.41751C20.3443 5.77298 19.73 5.13836 18.0831 5.11326C16.2462 5.09294 14.4044 5.11325 12.5639 5.11205H12.5603ZM29.161 10.4138C29.5517 10.4255 29.9371 10.3209 30.2682 10.1132C30.5994 9.90551 30.8613 9.60407 31.0208 9.24719C31.1803 8.89032 31.2301 8.49411 31.1639 8.10886C31.0978 7.72361 30.9186 7.36671 30.6492 7.08349C30.3798 6.80027 30.0323 6.60351 29.6508 6.51819C29.2694 6.43287 28.8711 6.46285 28.5067 6.6043C28.1423 6.74576 27.8282 6.99232 27.6042 7.31267C27.3803 7.63302 27.2565 8.0127 27.2487 8.40351C27.2428 8.92227 27.4398 9.42283 27.7977 9.79839C28.1556 10.174 28.6461 10.3948 29.1646 10.4138H29.161ZM37.9107 8.48479C37.9166 8.09813 37.8077 7.71841 37.598 7.39353C37.3882 7.06865 37.087 6.81315 36.7322 6.65929C36.3774 6.50543 35.985 6.46009 35.6045 6.52899C35.224 6.59788 34.8724 6.77793 34.5941 7.04641C34.3158 7.3149 34.1232 7.65979 34.0407 8.03759C33.9582 8.41539 33.9894 8.80917 34.1304 9.16925C34.2715 9.52932 34.5159 9.83956 34.8331 10.0608C35.1502 10.2821 35.5258 10.4045 35.9124 10.4126C36.4298 10.4108 36.9265 10.2093 37.2988 9.85009C37.6712 9.49089 37.8904 9.00176 37.9107 8.48479ZM44.6466 8.50511C44.6547 8.11948 44.5485 7.74009 44.3413 7.41472C44.1342 7.08935 43.8354 6.83256 43.4826 6.6767C43.1297 6.52085 42.7387 6.4729 42.3587 6.53889C41.9786 6.60488 41.6267 6.78187 41.347 7.04754C41.0674 7.31322 40.8726 7.65569 40.7873 8.03185C40.702 8.408 40.7299 8.80101 40.8675 9.16133C41.0051 9.52166 41.2463 9.8332 41.5606 10.0567C41.875 10.2802 42.2485 10.4057 42.634 10.4173C43.151 10.4209 43.6492 10.2237 44.0238 9.86724C44.3983 9.51077 44.6199 9.02287 44.6418 8.50629L44.6466 8.50511Z" fill="url(#paint1_linear_35569_6279)"/>
<g filter="url(#filter1_d_35569_6279)">
<path d="M24.6648 52.4611C31.1995 52.4611 36.4968 47.3853 36.4968 41.1239C36.4968 34.8625 31.1995 29.7866 24.6648 29.7866C18.1301 29.7866 12.8328 34.8625 12.8328 41.1239C12.8328 47.3853 18.1301 52.4611 24.6648 52.4611Z" fill="#D1D3D4"/>
</g>
<path d="M36.374 42.5079C36.1944 45.3855 34.9549 48.0945 32.8948 50.1117C30.8348 52.129 28.1004 53.3113 25.2196 53.4304C19.7841 53.8069 14.131 49.5892 13.2155 44.4261C13.1435 43.9197 13.2445 43.4039 13.5023 42.9621C13.9455 42.1857 14.5408 41.5068 15.2524 40.9658C15.964 40.4248 16.7774 40.0328 17.644 39.8133C18.5106 39.5939 19.4125 39.5514 20.2958 39.6885C21.1792 39.8256 22.0258 40.1394 22.7851 40.6112C23.9504 41.2745 25.032 42.0872 26.1411 42.8461C30.1377 45.5818 32.5388 45.5245 36.374 42.5079Z" fill="url(#paint2_radial_35569_6279)"/>
<path d="M29.2605 9.65502C29.9041 9.65502 30.4258 9.1333 30.4258 8.48974C30.4258 7.84618 29.9041 7.32446 29.2605 7.32446C28.6169 7.32446 28.0952 7.84618 28.0952 8.48974C28.0952 9.1333 28.6169 9.65502 29.2605 9.65502Z" fill="white"/>
<path d="M36.0039 9.65502C36.6475 9.65502 37.1692 9.1333 37.1692 8.48974C37.1692 7.84618 36.6475 7.32446 36.0039 7.32446C35.3603 7.32446 34.8386 7.84618 34.8386 8.48974C34.8386 9.1333 35.3603 9.65502 36.0039 9.65502Z" fill="white"/>
<path d="M42.7153 9.65502C43.3589 9.65502 43.8806 9.1333 43.8806 8.48974C43.8806 7.84618 43.3589 7.32446 42.7153 7.32446C42.0718 7.32446 41.55 7.84618 41.55 8.48974C41.55 9.1333 42.0718 9.65502 42.7153 9.65502Z" fill="white"/>
<path d="M69.3869 62.6117C70.0848 62.5028 70.7203 62.1467 71.1775 61.6083C71.6347 61.0699 71.8832 60.3851 71.8776 59.6788V53.7126C71.9009 49.0784 70.5349 44.5435 67.9559 40.6932C65.377 36.8428 61.7033 33.8537 57.4091 32.1113V58.9091H57.5178C58.0302 58.9215 58.5178 59.1322 58.8778 59.4969C59.2379 59.8617 59.4423 60.3519 59.448 60.8644L59.4552 61.462C59.4564 61.619 59.4886 61.7743 59.5499 61.9189C59.6112 62.0635 59.7004 62.1946 59.8124 62.3047C59.9244 62.4148 60.057 62.5018 60.2026 62.5606C60.3483 62.6194 60.5041 62.649 60.6611 62.6476L69.3869 62.6117ZM64.1091 58.3151C63.857 58.3129 63.616 58.2112 63.4384 58.0321C63.2609 57.8531 63.1614 57.6111 63.1614 57.359V43.3554C63.1622 43.3146 63.1734 43.2748 63.194 43.2396C63.2145 43.2044 63.2437 43.1751 63.2788 43.1544C63.3139 43.1336 63.3537 43.1222 63.3944 43.1212C63.4352 43.1202 63.4755 43.1296 63.5115 43.1486C64.9038 43.9077 66.0624 45.0323 66.8627 46.4012C67.663 47.7702 68.0746 49.3315 68.0531 50.9171V57.3291C68.0544 57.4581 68.0302 57.5861 67.982 57.7058C67.9338 57.8255 67.8625 57.9345 67.7722 58.0266C67.6818 58.1187 67.5742 58.1921 67.4555 58.2427C67.3368 58.2932 67.2093 58.3198 67.0803 58.3211L64.1091 58.3151Z" fill="url(#paint3_linear_35569_6279)"/>
<path d="M53.8404 62.2363V31.0821C53.8406 31.006 53.8601 30.9311 53.8972 30.8646C53.9342 30.798 53.9876 30.742 54.0522 30.7017C54.1169 30.6615 54.1907 30.6383 54.2667 30.6344C54.3428 30.6305 54.4186 30.646 54.487 30.6794L57.4092 32.1112V60.2726C57.4092 60.7947 57.2018 61.2953 56.8326 61.6645C56.4635 62.0336 55.9628 62.241 55.4408 62.241L53.8404 62.2363Z" fill="url(#paint4_linear_35569_6279)"/>
<g filter="url(#filter2_d_35569_6279)">
<path d="M61.9754 56.4514L61.9749 56.4503C61.8137 56.139 61.4308 56.0173 61.1195 56.1785L61.1185 56.179C60.8072 56.3402 60.6855 56.7231 60.8466 57.0344L60.8472 57.0354C61.0083 57.3467 61.3913 57.4684 61.7025 57.3073L61.7036 57.3067C62.0149 57.1456 62.1366 56.7626 61.9754 56.4514Z" fill="white"/>
</g>
<g filter="url(#filter3_d_35569_6279)">
<path d="M61.9754 58.4724L61.9749 58.4713C61.8137 58.16 61.4308 58.0383 61.1195 58.1995L61.1185 58.2C60.8072 58.3612 60.6855 58.7441 60.8466 59.0554L60.8472 59.0564C61.0083 59.3677 61.3913 59.4894 61.7025 59.3282L61.7036 59.3277C62.0149 59.1666 62.1366 58.7836 61.9754 58.4724Z" fill="white"/>
</g>
<path d="M64.5623 48.8198V52.9419C64.5624 53.1264 64.5262 53.3092 64.4557 53.4797C64.3852 53.6502 64.2818 53.8052 64.1514 53.9357C64.0209 54.0662 63.8661 54.1698 63.6956 54.2404C63.5252 54.3111 63.3425 54.3474 63.1579 54.3474V47.4155C63.5304 47.4155 63.8876 47.5635 64.1509 47.8268C64.4143 48.0902 64.5623 48.4474 64.5623 48.8198Z" fill="#D1D3D4"/>
<g filter="url(#filter4_d_35569_6279)">
<path d="M64.5857 48.0722V53.5449C64.5857 53.7239 64.5145 53.8957 64.3879 54.0223C64.2613 54.149 64.0895 54.2201 63.9104 54.2201V47.397C64.0895 47.397 64.2613 47.4681 64.3879 47.5948C64.5145 47.7214 64.5857 47.8931 64.5857 48.0722V48.0722Z" fill="url(#paint5_linear_35569_6279)"/>
</g>
<defs>
<filter id="filter0_d_35569_6279" x="9.0425" y="27.5198" width="34.8022" height="34.8022" filterUnits="userSpaceOnUse" color-interpolation-filters="sRGB">
<feFlood flood-opacity="0" result="BackgroundImageFix"/>
<feColorMatrix in="SourceAlpha" type="matrix" values="0 0 0 0 0 0 0 0 0 0 0 0 0 0 0 0 0 0 127 0" result="hardAlpha"/>
<feOffset dx="1.68675" dy="3.37349"/>
<feGaussianBlur stdDeviation="1.68675"/>
<feColorMatrix type="matrix" values="0 0 0 0 0.00392157 0 0 0 0 0.133333 0 0 0 0 0.239216 0 0 0 0.212 0"/>
<feBlend mode="normal" in2="BackgroundImageFix" result="effect1_dropShadow_35569_6279"/>
<feBlend mode="normal" in="SourceGraphic" in2="effect1_dropShadow_35569_6279" result="shape"/>
</filter>
<filter id="filter1_d_35569_6279" x="11.9894" y="29.7866" width="28.7243" height="28.5782" filterUnits="userSpaceOnUse" color-interpolation-filters="sRGB">
<feFlood flood-opacity="0" result="BackgroundImageFix"/>
<feColorMatrix in="SourceAlpha" type="matrix" values="0 0 0 0 0 0 0 0 0 0 0 0 0 0 0 0 0 0 127 0" result="hardAlpha"/>
<feOffset dx="1.68675" dy="3.37349"/>
<feGaussianBlur stdDeviation="1.26506"/>
<feColorMatrix type="matrix" values="0 0 0 0 0 0 0 0 0 0.305882 0 0 0 0 0.556863 0 0 0 0.561 0"/>
<feBlend mode="normal" in2="BackgroundImageFix" result="effect1_dropShadow_35569_6279"/>
<feBlend mode="normal" in="SourceGraphic" in2="effect1_dropShadow_35569_6279" result="shape"/>
</filter>
<filter id="filter2_d_35569_6279" x="59.932" y="55.264" width="4.64473" height="4.64449" filterUnits="userSpaceOnUse" color-interpolation-filters="sRGB">
<feFlood flood-opacity="0" result="BackgroundImageFix"/>
<feColorMatrix in="SourceAlpha" type="matrix" values="0 0 0 0 0 0 0 0 0 0 0 0 0 0 0 0 0 0 127 0" result="hardAlpha"/>
<feOffset dx="0.843373" dy="0.843373"/>
<feGaussianBlur stdDeviation="0.843373"/>
<feColorMatrix type="matrix" values="0 0 0 0 0.00784314 0 0 0 0 0.227451 0 0 0 0 0.376471 0 0 0 0.341 0"/>
<feBlend mode="normal" in2="BackgroundImageFix" result="effect1_dropShadow_35569_6279"/>
<feBlend mode="normal" in="SourceGraphic" in2="effect1_dropShadow_35569_6279" result="shape"/>
</filter>
<filter id="filter3_d_35569_6279" x="59.932" y="57.285" width="4.64473" height="4.64449" filterUnits="userSpaceOnUse" color-interpolation-filters="sRGB">
<feFlood flood-opacity="0" result="BackgroundImageFix"/>
<feColorMatrix in="SourceAlpha" type="matrix" values="0 0 0 0 0 0 0 0 0 0 0 0 0 0 0 0 0 0 127 0" result="hardAlpha"/>
<feOffset dx="0.843373" dy="0.843373"/>
<feGaussianBlur stdDeviation="0.843373"/>
<feColorMatrix type="matrix" values="0 0 0 0 0.00784314 0 0 0 0 0.227451 0 0 0 0 0.376471 0 0 0 0.341 0"/>
<feBlend mode="normal" in2="BackgroundImageFix" result="effect1_dropShadow_35569_6279"/>
<feBlend mode="normal" in="SourceGraphic" in2="effect1_dropShadow_35569_6279" result="shape"/>
</filter>
<filter id="filter4_d_35569_6279" x="63.067" y="45.7102" width="4.04879" height="10.1967" filterUnits="userSpaceOnUse" color-interpolation-filters="sRGB">
<feFlood flood-opacity="0" result="BackgroundImageFix"/>
<feColorMatrix in="SourceAlpha" type="matrix" values="0 0 0 0 0 0 0 0 0 0 0 0 0 0 0 0 0 0 127 0" result="hardAlpha"/>
<feOffset dx="0.843373"/>
<feGaussianBlur stdDeviation="0.843373"/>
<feColorMatrix type="matrix" values="0 0 0 0 0.00392157 0 0 0 0 0.133333 0 0 0 0 0.239216 0 0 0 0.302 0"/>
<feBlend mode="normal" in2="BackgroundImageFix" result="effect1_dropShadow_35569_6279"/>
<feBlend mode="normal" in="SourceGraphic" in2="effect1_dropShadow_35569_6279" result="shape"/>
</filter>
<linearGradient id="paint0_linear_35569_6279" x1="24.759" y1="63.8155" x2="24.759" y2="15.4797" gradientUnits="userSpaceOnUse">
<stop stop-color="#019EED"/>
<stop offset="1" stop-color="#2EB3F5"/>
</linearGradient>
<linearGradient id="paint1_linear_35569_6279" x1="-0.552783" y1="-0.464327" x2="7.36333" y2="29.4691" gradientUnits="userSpaceOnUse">
<stop stop-color="#2AD2FF"/>
<stop offset="1" stop-color="#72E3C6"/>
</linearGradient>
<radialGradient id="paint2_radial_35569_6279" cx="0" cy="0" r="1" gradientUnits="userSpaceOnUse" gradientTransform="translate(-121.566 39.3745) scale(15.5414 15.5468)">
<stop stop-color="#00D8FF"/>
<stop offset="1" stop-color="#0092FF"/>
</radialGradient>
<linearGradient id="paint3_linear_35569_6279" x1="72.6448" y1="47.3795" x2="55.3979" y2="47.3795" gradientUnits="userSpaceOnUse">
<stop stop-color="#019EED"/>
<stop offset="1" stop-color="#2EB3F5"/>
</linearGradient>
<linearGradient id="paint4_linear_35569_6279" x1="50.807" y1="30.4758" x2="61.9068" y2="30.9658" gradientUnits="userSpaceOnUse">
<stop stop-color="#2AD2FF"/>
<stop offset="1" stop-color="#72E3C6"/>
</linearGradient>
<linearGradient id="paint5_linear_35569_6279" x1="66.155" y1="50.8085" x2="63.743" y2="50.8085" gradientUnits="userSpaceOnUse">
<stop stop-color="#019EED"/>
<stop offset="1" stop-color="#2EB3F5"/>
</linearGradient>
</defs>
</svg>
