<svg width="28" height="28" viewBox="0 0 28 28" fill="none" xmlns="http://www.w3.org/2000/svg">
<path d="M19.5418 4.15325V2.33325C19.5418 1.85492 19.1451 1.45825 18.6668 1.45825C18.1884 1.45825 17.7918 1.85492 17.7918 2.33325V4.08325H10.2084V2.33325C10.2084 1.85492 9.81177 1.45825 9.33344 1.45825C8.85511 1.45825 8.45844 1.85492 8.45844 2.33325V4.15325C5.30844 4.44492 3.7801 6.32325 3.54677 9.11159C3.52344 9.44992 3.80344 9.72992 4.1301 9.72992H23.8701C24.2084 9.72992 24.4884 9.43825 24.4534 9.11159C24.2201 6.32325 22.6918 4.44492 19.5418 4.15325Z" fill="#6E97AE"/>
<path d="M23.3333 11.48H4.66667C4.025 11.48 3.5 12.005 3.5 12.6466V19.8333C3.5 23.3333 5.25 25.6666 9.33333 25.6666H18.6667C22.75 25.6666 24.5 23.3333 24.5 19.8333V12.6466C24.5 12.005 23.975 11.48 23.3333 11.48ZM10.745 21.245C10.6283 21.35 10.5 21.4316 10.36 21.49C10.22 21.5483 10.0683 21.5833 9.91667 21.5833C9.765 21.5833 9.61333 21.5483 9.47333 21.49C9.33333 21.4316 9.205 21.35 9.08833 21.245C8.87833 21.0233 8.75 20.72 8.75 20.4166C8.75 20.1133 8.87833 19.81 9.08833 19.5883C9.205 19.4833 9.33333 19.4016 9.47333 19.3433C9.75333 19.2266 10.08 19.2266 10.36 19.3433C10.5 19.4016 10.6283 19.4833 10.745 19.5883C10.955 19.81 11.0833 20.1133 11.0833 20.4166C11.0833 20.72 10.955 21.0233 10.745 21.245ZM10.99 16.7766C10.9317 16.9166 10.85 17.045 10.745 17.1616C10.6283 17.2666 10.5 17.3483 10.36 17.4066C10.22 17.465 10.0683 17.5 9.91667 17.5C9.765 17.5 9.61333 17.465 9.47333 17.4066C9.33333 17.3483 9.205 17.2666 9.08833 17.1616C8.98333 17.045 8.90167 16.9166 8.84333 16.7766C8.785 16.6366 8.75 16.485 8.75 16.3333C8.75 16.1816 8.785 16.03 8.84333 15.89C8.90167 15.75 8.98333 15.6216 9.08833 15.505C9.205 15.4 9.33333 15.3183 9.47333 15.26C9.75333 15.1433 10.08 15.1433 10.36 15.26C10.5 15.3183 10.6283 15.4 10.745 15.505C10.85 15.6216 10.9317 15.75 10.99 15.89C11.0483 16.03 11.0833 16.1816 11.0833 16.3333C11.0833 16.485 11.0483 16.6366 10.99 16.7766ZM14.8283 17.1616C14.7117 17.2666 14.5833 17.3483 14.4433 17.4066C14.3033 17.465 14.1517 17.5 14 17.5C13.8483 17.5 13.6967 17.465 13.5567 17.4066C13.4167 17.3483 13.2883 17.2666 13.1717 17.1616C12.9617 16.94 12.8333 16.6366 12.8333 16.3333C12.8333 16.03 12.9617 15.7266 13.1717 15.505C13.2883 15.4 13.4167 15.3183 13.5567 15.26C13.8367 15.1316 14.1633 15.1316 14.4433 15.26C14.5833 15.3183 14.7117 15.4 14.8283 15.505C15.0383 15.7266 15.1667 16.03 15.1667 16.3333C15.1667 16.6366 15.0383 16.94 14.8283 17.1616Z" fill="#6E97AE"/>
</svg>
