<svg width="37" height="34" viewBox="0 0 37 34" fill="none" xmlns="http://www.w3.org/2000/svg">
<path fill-rule="evenodd" clip-rule="evenodd" d="M28.4281 32.007H9.05616C8.58568 32.007 8.13449 31.8201 7.80181 31.4874C7.46913 31.1548 7.28223 30.7036 7.28223 30.2331V5.95265C7.28223 5.48217 7.46913 5.03097 7.80181 4.69829C8.13449 4.36561 8.58568 4.17871 9.05616 4.17871H28.4287C28.8992 4.17871 29.3504 4.36561 29.6831 4.69829C30.0158 5.03097 30.2026 5.48217 30.2026 5.95265V30.2355C30.202 30.7056 30.0148 31.1563 29.682 31.4885C29.3493 31.8207 28.8983 32.0072 28.4281 32.007Z" fill="url(#paint0_linear_35575_9462)"/>
<path d="M18.9526 6.99854V31.4753C18.9526 31.7757 18.8343 32.0193 18.6907 32.0193C18.547 32.0193 18.4287 31.7757 18.4287 31.4753V6.99854" fill="url(#paint1_linear_35575_9462)"/>
<path d="M18.6757 7.72864L25.1571 2H12.1943L18.6757 7.72864Z" fill="url(#paint2_linear_35575_9462)"/>
<path d="M13.6348 2.54688L18.6751 7.00182L23.7154 2.54688H13.6348Z" fill="url(#paint3_linear_35575_9462)"/>
<g filter="url(#filter0_d_35575_9462)">
<path d="M17.8159 6.34174L15.6949 9.51827L10.2188 4.91314L12.2126 2.00684L17.8159 6.34174Z" fill="url(#paint4_linear_35575_9462)"/>
</g>
<g filter="url(#filter1_d_35575_9462)">
<path d="M19.3325 15.7886C19.1552 15.4459 18.7336 15.312 18.3909 15.4894C18.0483 15.6667 17.9143 16.0883 18.0917 16.431C18.2691 16.7736 18.6907 16.9076 19.0333 16.7302C19.376 16.5528 19.5099 16.1312 19.3325 15.7886Z" fill="white"/>
</g>
<g filter="url(#filter2_d_35575_9462)">
<path d="M19.3325 20.4361C19.1552 20.0934 18.7336 19.9594 18.3909 20.1368C18.0483 20.3142 17.9143 20.7358 18.0917 21.0784C18.2691 21.4211 18.6907 21.5551 19.0333 21.3777C19.376 21.2003 19.5099 20.7787 19.3325 20.4361Z" fill="white"/>
</g>
<g filter="url(#filter3_d_35575_9462)">
<path d="M19.3325 25.9595C19.1552 25.6168 18.7336 25.4829 18.3909 25.6603C18.0483 25.8376 17.9143 26.2592 18.0917 26.6019C18.2691 26.9445 18.6907 27.0785 19.0333 26.9011C19.376 26.7237 19.5099 26.3021 19.3325 25.9595Z" fill="white"/>
</g>
<g filter="url(#filter4_d_35575_9462)">
<path d="M19.2681 10.0528C19.0907 9.7101 18.6691 9.57613 18.3265 9.75352C17.9838 9.93091 17.8499 10.3525 18.0272 10.6951C18.2046 11.0378 18.6262 11.1718 18.9689 10.9944C19.3115 10.817 19.4455 10.3954 19.2681 10.0528Z" fill="white"/>
</g>
<g filter="url(#filter5_d_35575_9462)">
<path d="M25.1454 2.00537L27.1997 4.86968L21.8187 9.58776L19.6309 6.45381L25.1454 2.00537Z" fill="url(#paint5_linear_35575_9462)"/>
</g>
<g filter="url(#filter6_d_35575_9462)">
<path d="M11.3822 10.4547H11.3645C10.907 10.4547 10.4683 10.273 10.1448 9.94952C9.82137 9.62605 9.63965 9.18732 9.63965 8.72986C9.63965 8.2724 9.82137 7.83368 10.1448 7.5102C10.4683 7.18673 10.907 7.00501 11.3645 7.00501C11.4197 7.00501 11.4741 7.00757 11.5277 7.01269C11.6616 6.7313 11.8686 6.491 12.127 6.31685C12.3854 6.1427 12.6858 6.04108 12.9969 6.0226C13.308 6.00411 13.6183 6.06944 13.8955 6.21177C14.1727 6.35409 14.4067 6.5682 14.573 6.83175C14.948 6.56813 15.4124 6.46429 15.864 6.54308C16.3156 6.62187 16.7175 6.87683 16.9811 7.25188C17.2447 7.62693 17.3485 8.09134 17.2698 8.54295C17.191 8.99456 16.936 9.39637 16.561 9.65999C16.5123 10.083 16.3095 10.4732 15.9913 10.7561C15.6731 11.0391 15.2619 11.1949 14.8361 11.1939C14.737 11.1939 14.6381 11.1856 14.5404 11.169C14.3442 11.4583 14.0653 11.6817 13.7401 11.8101C13.415 11.9384 13.0587 11.9659 12.7178 11.8888C12.3768 11.8116 12.067 11.6336 11.8288 11.3778C11.5906 11.122 11.4349 10.8003 11.3822 10.4547Z" fill="white"/>
</g>
<g filter="url(#filter7_d_35575_9462)">
<path d="M29.7147 16.9263L29.7314 16.9203C30.1613 16.7638 30.6357 16.7845 31.0503 16.9779C31.4649 17.1712 31.7857 17.5213 31.9422 17.9512C32.0986 18.381 32.0779 18.8555 31.8846 19.2701C31.6912 19.6847 31.3411 20.0055 30.9113 20.1619C30.8594 20.1808 30.8074 20.197 30.7553 20.2105C30.7257 20.5207 30.6134 20.8173 30.4301 21.0694C30.2469 21.3214 29.9993 21.5196 29.7133 21.6434C29.4273 21.7672 29.1134 21.8119 28.8042 21.773C28.495 21.7341 28.2019 21.6129 27.9555 21.4221C27.6933 21.7981 27.2924 22.0545 26.8411 22.1349C26.3897 22.2154 25.925 22.1132 25.549 21.8509C25.173 21.5887 24.9165 21.1878 24.8361 20.7365C24.7557 20.2851 24.8579 19.8204 25.1201 19.4444C25.0212 19.0302 25.0783 18.5942 25.2805 18.2195C25.4827 17.8448 25.8159 17.5577 26.2164 17.4131C26.3094 17.3791 26.4052 17.3531 26.5027 17.3353C26.5882 16.9963 26.7739 16.691 27.0355 16.4592C27.2971 16.2273 27.6225 16.0797 27.9693 16.0356C28.316 15.9914 28.668 16.0528 28.9794 16.2117C29.2908 16.3706 29.547 16.6196 29.7147 16.9263Z" fill="white"/>
</g>
<g filter="url(#filter8_d_35575_9462)">
<path d="M11.2584 20.4453L11.2742 20.4533C11.6813 20.6591 11.99 21.0183 12.1323 21.4517C12.2747 21.8852 12.239 22.3574 12.0331 22.7646C11.8273 23.1717 11.4681 23.4804 11.0347 23.6227C10.6012 23.765 10.129 23.7294 9.72182 23.5235C9.6727 23.4987 9.62544 23.4719 9.58003 23.4432C9.33423 23.6334 9.04191 23.7541 8.73355 23.7928C8.42519 23.8316 8.11209 23.7868 7.82692 23.6633C7.54175 23.5397 7.29495 23.3419 7.11227 23.0905C6.92959 22.8391 6.81772 22.5433 6.78833 22.2339C6.3359 22.2997 5.87585 22.1832 5.50937 21.9098C5.1429 21.6365 4.90002 21.2287 4.83416 20.7763C4.76831 20.3239 4.88488 19.8638 5.15822 19.4974C5.43157 19.1309 5.8393 18.888 6.29173 18.8222C6.52541 18.4676 6.8815 18.2116 7.29199 18.1029C7.70249 17.9943 8.13861 18.0407 8.51708 18.2332C8.60529 18.2777 8.68958 18.3296 8.76904 18.3883C9.07389 18.2192 9.42263 18.1459 9.76977 18.178C10.1169 18.21 10.4463 18.3459 10.7151 18.568C10.9838 18.79 11.1794 19.0879 11.2763 19.4228C11.3733 19.7577 11.367 20.114 11.2584 20.4453Z" fill="white"/>
</g>
<defs>
<filter id="filter0_d_35575_9462" x="8.532" y="1.16346" width="12.6579" height="12.5715" filterUnits="userSpaceOnUse" color-interpolation-filters="sRGB">
<feFlood flood-opacity="0" result="BackgroundImageFix"/>
<feColorMatrix in="SourceAlpha" type="matrix" values="0 0 0 0 0 0 0 0 0 0 0 0 0 0 0 0 0 0 127 0" result="hardAlpha"/>
<feOffset dx="0.843373" dy="1.68675"/>
<feGaussianBlur stdDeviation="1.26506"/>
<feColorMatrix type="matrix" values="0 0 0 0 0.00392157 0 0 0 0 0.133333 0 0 0 0 0.239216 0 0 0 0.271 0"/>
<feBlend mode="normal" in2="BackgroundImageFix" result="effect1_dropShadow_35575_9462"/>
<feBlend mode="normal" in="SourceGraphic" in2="effect1_dropShadow_35575_9462" result="shape"/>
</filter>
<filter id="filter1_d_35575_9462" x="17.592" y="14.9894" width="3.92758" height="3.92758" filterUnits="userSpaceOnUse" color-interpolation-filters="sRGB">
<feFlood flood-opacity="0" result="BackgroundImageFix"/>
<feColorMatrix in="SourceAlpha" type="matrix" values="0 0 0 0 0 0 0 0 0 0 0 0 0 0 0 0 0 0 127 0" result="hardAlpha"/>
<feOffset dx="0.843373" dy="0.843373"/>
<feGaussianBlur stdDeviation="0.63253"/>
<feColorMatrix type="matrix" values="0 0 0 0 0.00784314 0 0 0 0 0.141176 0 0 0 0 0.376471 0 0 0 0.271 0"/>
<feBlend mode="normal" in2="BackgroundImageFix" result="effect1_dropShadow_35575_9462"/>
<feBlend mode="normal" in="SourceGraphic" in2="effect1_dropShadow_35575_9462" result="shape"/>
</filter>
<filter id="filter2_d_35575_9462" x="17.592" y="19.6369" width="3.92758" height="3.92758" filterUnits="userSpaceOnUse" color-interpolation-filters="sRGB">
<feFlood flood-opacity="0" result="BackgroundImageFix"/>
<feColorMatrix in="SourceAlpha" type="matrix" values="0 0 0 0 0 0 0 0 0 0 0 0 0 0 0 0 0 0 127 0" result="hardAlpha"/>
<feOffset dx="0.843373" dy="0.843373"/>
<feGaussianBlur stdDeviation="0.63253"/>
<feColorMatrix type="matrix" values="0 0 0 0 0.00784314 0 0 0 0 0.141176 0 0 0 0 0.376471 0 0 0 0.271 0"/>
<feBlend mode="normal" in2="BackgroundImageFix" result="effect1_dropShadow_35575_9462"/>
<feBlend mode="normal" in="SourceGraphic" in2="effect1_dropShadow_35575_9462" result="shape"/>
</filter>
<filter id="filter3_d_35575_9462" x="17.592" y="25.1603" width="3.92758" height="3.92758" filterUnits="userSpaceOnUse" color-interpolation-filters="sRGB">
<feFlood flood-opacity="0" result="BackgroundImageFix"/>
<feColorMatrix in="SourceAlpha" type="matrix" values="0 0 0 0 0 0 0 0 0 0 0 0 0 0 0 0 0 0 127 0" result="hardAlpha"/>
<feOffset dx="0.843373" dy="0.843373"/>
<feGaussianBlur stdDeviation="0.63253"/>
<feColorMatrix type="matrix" values="0 0 0 0 0.00784314 0 0 0 0 0.141176 0 0 0 0 0.376471 0 0 0 0.271 0"/>
<feBlend mode="normal" in2="BackgroundImageFix" result="effect1_dropShadow_35575_9462"/>
<feBlend mode="normal" in="SourceGraphic" in2="effect1_dropShadow_35575_9462" result="shape"/>
</filter>
<filter id="filter4_d_35575_9462" x="17.5275" y="9.25361" width="3.92758" height="3.92709" filterUnits="userSpaceOnUse" color-interpolation-filters="sRGB">
<feFlood flood-opacity="0" result="BackgroundImageFix"/>
<feColorMatrix in="SourceAlpha" type="matrix" values="0 0 0 0 0 0 0 0 0 0 0 0 0 0 0 0 0 0 127 0" result="hardAlpha"/>
<feOffset dx="0.843373" dy="0.843373"/>
<feGaussianBlur stdDeviation="0.63253"/>
<feColorMatrix type="matrix" values="0 0 0 0 0.00784314 0 0 0 0 0.141176 0 0 0 0 0.376471 0 0 0 0.271 0"/>
<feBlend mode="normal" in2="BackgroundImageFix" result="effect1_dropShadow_35575_9462"/>
<feBlend mode="normal" in="SourceGraphic" in2="effect1_dropShadow_35575_9462" result="shape"/>
</filter>
<filter id="filter5_d_35575_9462" x="17.9441" y="1.162" width="12.6286" height="12.6428" filterUnits="userSpaceOnUse" color-interpolation-filters="sRGB">
<feFlood flood-opacity="0" result="BackgroundImageFix"/>
<feColorMatrix in="SourceAlpha" type="matrix" values="0 0 0 0 0 0 0 0 0 0 0 0 0 0 0 0 0 0 127 0" result="hardAlpha"/>
<feOffset dx="0.843373" dy="1.68675"/>
<feGaussianBlur stdDeviation="1.26506"/>
<feColorMatrix type="matrix" values="0 0 0 0 0.00392157 0 0 0 0 0.133333 0 0 0 0 0.239216 0 0 0 0.271 0"/>
<feBlend mode="normal" in2="BackgroundImageFix" result="effect1_dropShadow_35575_9462"/>
<feBlend mode="normal" in="SourceGraphic" in2="effect1_dropShadow_35575_9462" result="shape"/>
</filter>
<filter id="filter6_d_35575_9462" x="5.42278" y="0.115917" width="22.837" height="21.0928" filterUnits="userSpaceOnUse" color-interpolation-filters="sRGB">
<feFlood flood-opacity="0" result="BackgroundImageFix"/>
<feColorMatrix in="SourceAlpha" type="matrix" values="0 0 0 0 0 0 0 0 0 0 0 0 0 0 0 0 0 0 127 0" result="hardAlpha"/>
<feOffset dx="3.37349" dy="1.68675"/>
<feGaussianBlur stdDeviation="3.79518"/>
<feColorMatrix type="matrix" values="0 0 0 0 0 0 0 0 0 0 0 0 0 0 0 0 0 0 0.412 0"/>
<feBlend mode="normal" in2="BackgroundImageFix" result="effect1_dropShadow_35575_9462"/>
<feBlend mode="normal" in="SourceGraphic" in2="effect1_dropShadow_35575_9462" result="shape"/>
</filter>
<filter id="filter7_d_35575_9462" x="15.5325" y="11.8046" width="20.7303" height="19.6346" filterUnits="userSpaceOnUse" color-interpolation-filters="sRGB">
<feFlood flood-opacity="0" result="BackgroundImageFix"/>
<feColorMatrix in="SourceAlpha" type="matrix" values="0 0 0 0 0 0 0 0 0 0 0 0 0 0 0 0 0 0 127 0" result="hardAlpha"/>
<feOffset dx="-2.53012" dy="2.53012"/>
<feGaussianBlur stdDeviation="3.37349"/>
<feColorMatrix type="matrix" values="0 0 0 0 0 0 0 0 0 0 0 0 0 0 0 0 0 0 0.271 0"/>
<feBlend mode="normal" in2="BackgroundImageFix" result="effect1_dropShadow_35575_9462"/>
<feBlend mode="normal" in="SourceGraphic" in2="effect1_dropShadow_35575_9462" result="shape"/>
</filter>
<filter id="filter8_d_35575_9462" x="0.599539" y="12.1423" width="22.5821" height="20.9415" filterUnits="userSpaceOnUse" color-interpolation-filters="sRGB">
<feFlood flood-opacity="0" result="BackgroundImageFix"/>
<feColorMatrix in="SourceAlpha" type="matrix" values="0 0 0 0 0 0 0 0 0 0 0 0 0 0 0 0 0 0 127 0" result="hardAlpha"/>
<feOffset dx="3.37349" dy="1.68675"/>
<feGaussianBlur stdDeviation="3.79518"/>
<feColorMatrix type="matrix" values="0 0 0 0 0 0 0 0 0 0 0 0 0 0 0 0 0 0 0.412 0"/>
<feBlend mode="normal" in2="BackgroundImageFix" result="effect1_dropShadow_35575_9462"/>
<feBlend mode="normal" in="SourceGraphic" in2="effect1_dropShadow_35575_9462" result="shape"/>
</filter>
<linearGradient id="paint0_linear_35575_9462" x1="18.7424" y1="33.3428" x2="18.7424" y2="3.2882" gradientUnits="userSpaceOnUse">
<stop stop-color="#019EED"/>
<stop offset="1" stop-color="#2EB3F5"/>
</linearGradient>
<linearGradient id="paint1_linear_35575_9462" x1="18.4287" y1="19.5089" x2="18.9526" y2="19.5089" gradientUnits="userSpaceOnUse">
<stop stop-color="#019EED"/>
<stop offset="1" stop-color="#2EB3F5"/>
</linearGradient>
<linearGradient id="paint2_linear_35575_9462" x1="18.6368" y1="-1.44291" x2="18.6647" y2="10.9999" gradientUnits="userSpaceOnUse">
<stop stop-color="#2AD2FF"/>
<stop offset="1" stop-color="#72E3C6"/>
</linearGradient>
<linearGradient id="paint3_linear_35575_9462" x1="13.6348" y1="4.77435" x2="23.7154" y2="4.77435" gradientUnits="userSpaceOnUse">
<stop stop-color="#019EED"/>
<stop offset="1" stop-color="#2EB3F5"/>
</linearGradient>
<linearGradient id="paint4_linear_35575_9462" x1="13.9338" y1="-1.38833" x2="14.0749" y2="11.0506" gradientUnits="userSpaceOnUse">
<stop stop-color="#2AD2FF"/>
<stop offset="1" stop-color="#72E3C6"/>
</linearGradient>
<linearGradient id="paint5_linear_35575_9462" x1="4.66734" y1="-1.35363" x2="4.81926" y2="11.0891" gradientUnits="userSpaceOnUse">
<stop stop-color="#2AD2FF"/>
<stop offset="1" stop-color="#72E3C6"/>
</linearGradient>
</defs>
</svg>
