<svg width="48" height="48" viewBox="0 0 48 48" fill="none" xmlns="http://www.w3.org/2000/svg">
<path d="M10.8347 10.35L9.09326 38.004L14.3831 37.7364V41.4864L34.6056 41.2188V37.2012L40.1626 37.7364L38.154 10.35L28.0425 6.4668H20.7429L10.8347 10.35Z" fill="#BBEFFF"/>
<path d="M38.9171 10.1484C38.9095 10.0335 38.8691 9.92317 38.8006 9.83061C38.7321 9.73805 38.6384 9.66716 38.5307 9.62641L28.9595 6.03721C28.8919 6.01223 28.8203 5.99962 28.7483 6.00001H20.3735C20.3018 5.99977 20.2307 6.01237 20.1635 6.03721L10.5887 9.62641C10.4807 9.66697 10.3868 9.73778 10.318 9.83036C10.2493 9.92293 10.2087 10.0334 10.2011 10.1484L8.40107 37.6656C8.39119 37.8238 8.44433 37.9795 8.54888 38.0987C8.65343 38.2179 8.80091 38.2908 8.95907 38.3016H13.7927V41.292C13.7927 41.4511 13.8559 41.6037 13.9684 41.7163C14.0809 41.8288 14.2335 41.892 14.3927 41.892H34.7303C34.8894 41.892 35.042 41.8288 35.1545 41.7163C35.2671 41.6037 35.3303 41.4511 35.3303 41.292V38.3028H40.1087C40.2678 38.3028 40.4204 38.2396 40.5329 38.1271C40.6455 38.0145 40.7087 37.8619 40.7087 37.7028C40.7087 37.6896 40.7087 37.6764 40.7087 37.6632L38.9171 10.1484ZM30.2495 7.80001L28.1963 12.2496C27.8024 11.7819 27.244 11.4833 26.6363 11.4156L28.5371 7.20001H28.6391L30.2495 7.80001ZM25.1951 11.7036C24.9582 11.8266 24.744 11.9889 24.5615 12.1836C24.3796 11.9852 24.1644 11.8203 23.9255 11.6964L21.8975 7.20001H27.2255L25.1951 11.7036ZM20.4827 7.20001H20.5847L22.4843 11.4192C21.8766 11.4869 21.3181 11.7855 20.9243 12.2532L18.8687 7.80001L20.4827 7.20001ZM9.64667 37.11L9.72587 35.91H13.7939V37.11H9.64667ZM13.7927 16.1688V34.7136H9.80147L11.3735 10.6116L17.7479 8.22121L20.4287 14.0268C20.4871 14.1489 20.5851 14.2477 20.7067 14.3071C20.8284 14.3664 20.9665 14.383 21.0987 14.3539C21.2309 14.3248 21.3494 14.2519 21.435 14.147C21.5205 14.0421 21.568 13.9114 21.5699 13.776C21.5715 13.579 21.6215 13.3854 21.7156 13.2124C21.8098 13.0393 21.945 12.8921 22.1095 12.7837C22.274 12.6753 22.4627 12.6091 22.6588 12.5908C22.855 12.5726 23.0526 12.603 23.2343 12.6792C23.4513 12.7684 23.6367 12.9205 23.7666 13.116C23.8964 13.3115 23.9647 13.5413 23.9627 13.776V40.6956H14.9891V16.1688H13.7927ZM34.1315 16.1688V40.6956H25.1591V13.776C25.1581 13.5384 25.2287 13.3061 25.3616 13.1092C25.4945 12.9123 25.6836 12.7599 25.9043 12.672C26.0465 12.6098 26.2002 12.5783 26.3555 12.5796C26.6737 12.5796 26.979 12.706 27.204 12.9311C27.429 13.1561 27.5555 13.4613 27.5555 13.7796C27.5557 13.9158 27.6023 14.0479 27.6876 14.1541C27.7729 14.2603 27.8917 14.3343 28.0247 14.364C28.0669 14.3731 28.1099 14.3775 28.1531 14.3772C28.2674 14.377 28.3793 14.3442 28.4757 14.2825C28.572 14.2209 28.6486 14.133 28.6967 14.0292L31.3763 8.22721L37.7507 10.614L39.3227 34.716H35.3279V16.1688H34.1315ZM35.3315 37.1052V35.9052H39.3995L39.4775 37.1052H35.3315Z" fill="#00C2FF"/>
<path d="M26.3555 15.5703H27.5555V16.7703H26.3555V15.5703Z" fill="#00C2FF"/>
<path d="M26.3555 19.1602H27.5555V20.3602H26.3555V19.1602Z" fill="#00C2FF"/>
<path d="M26.3555 22.75H27.5555V23.95H26.3555V22.75Z" fill="#00C2FF"/>
<path d="M26.3555 26.3379H27.5555V27.5379H26.3555V26.3379Z" fill="#00C2FF"/>
<path d="M26.3555 29.9277H27.5555V31.1277H26.3555V29.9277Z" fill="#00C2FF"/>
<path d="M26.3555 33.5176H27.5555V34.7176H26.3555V33.5176Z" fill="#00C2FF"/>
<path d="M26.3555 37.1055H27.5555V38.3055H26.3555V37.1055Z" fill="#00C2FF"/>
<path d="M17.3842 20.9536H20.9734C21.1325 20.9536 21.2851 20.8904 21.3976 20.7778C21.5102 20.6653 21.5734 20.5127 21.5734 20.3536V16.768C21.5734 16.6088 21.5102 16.4562 21.3976 16.3437C21.2851 16.2312 21.1325 16.168 20.9734 16.168H17.3842C17.225 16.168 17.0724 16.2312 16.9599 16.3437C16.8474 16.4562 16.7842 16.6088 16.7842 16.768V20.3572C16.7851 20.5157 16.8488 20.6674 16.9612 20.7791C17.0736 20.8909 17.2257 20.9536 17.3842 20.9536ZM17.9842 17.368H20.377V19.7608H17.9842V17.368Z" fill="#00C2FF"/>
</svg>
