<svg width="48" height="48" viewBox="0 0 48 48" fill="none" xmlns="http://www.w3.org/2000/svg">
<path d="M9.92756 20.8484C9.92756 20.8484 9.19076 37.7228 9.92756 37.7228C10.6644 37.7228 22.3811 38.0576 22.3811 37.7228V25.2668C22.3811 25.2668 22.7592 23.5664 23.802 23.846C24.1302 23.9611 24.4285 24.1485 24.6744 24.3945C24.9204 24.6404 25.1078 24.9386 25.2229 25.2668V37.7216H37.7162V20.8484L36.7787 16.2956L35.0989 13.7516V9.59961H12.1324V13.7516C11.5285 14.7771 11.0128 15.8522 10.5914 16.9652C10.463 17.7008 9.92756 20.8484 9.92756 20.8484Z" fill="#BBEFFF"/>
<path d="M36.8593 15.5648L35.9785 13.7996V10.0796C35.9785 9.95231 35.9279 9.83022 35.8379 9.7402C35.7479 9.65018 35.6258 9.59961 35.4985 9.59961H12.4801C12.3528 9.59961 12.2307 9.65018 12.1407 9.7402C12.0507 9.83022 12.0001 9.95231 12.0001 10.0796V13.7996L11.1181 15.5624C10.1227 17.5589 9.60311 19.7587 9.6001 21.9896V37.8956C9.6001 38.0229 9.65067 38.145 9.74069 38.235C9.8307 38.325 9.95279 38.3756 10.0801 38.3756H22.5493C22.6766 38.3756 22.7987 38.325 22.8887 38.235C22.9787 38.145 23.0293 38.0229 23.0293 37.8956V25.9064C23.0293 25.6518 23.1304 25.4076 23.3105 25.2276C23.4905 25.0476 23.7347 24.9464 23.9893 24.9464C24.2439 24.9464 24.4881 25.0476 24.6681 25.2276C24.8482 25.4076 24.9493 25.6518 24.9493 25.9064V37.8956C24.9493 38.0229 24.9999 38.145 25.0899 38.235C25.1799 38.325 25.302 38.3756 25.4293 38.3756H37.8961C38.0234 38.3756 38.1455 38.325 38.2355 38.235C38.3255 38.145 38.3761 38.0229 38.3761 37.8956V21.9896C38.3731 19.7597 37.8539 17.5607 36.8593 15.5648ZM37.3393 20.63H35.2297L32.6221 18.0224V14.3996H35.2033L36.0001 15.9944C36.7229 17.4463 37.1778 19.0166 37.3429 20.63H37.3393ZM35.0161 13.43H26.8657V10.5596H35.0185L35.0161 13.43ZM22.0669 13.43V10.5596H25.9069V13.4396L22.0669 13.43ZM21.1069 10.55V13.43H12.9601V10.5596L21.1069 10.55ZM11.9713 15.986L12.7741 14.3996H15.3601V18.0272L12.7525 20.6348H10.6333C10.7975 19.0199 11.252 17.4478 11.9749 15.9944L11.9713 15.986ZM37.4113 37.4084H25.9069V35.4884H33.1069V34.5284H25.9069V25.9064C25.9069 25.3972 25.7046 24.9088 25.3445 24.5488C24.9845 24.1887 24.4961 23.9864 23.9869 23.9864C23.4777 23.9864 22.9893 24.1887 22.6293 24.5488C22.2692 24.9088 22.0669 25.3972 22.0669 25.9064V37.4168H10.5601V35.4968H17.7601V34.5368H10.5601V21.9896C10.5601 21.8564 10.5673 21.722 10.5721 21.5888H12.9469C13.01 21.5889 13.0724 21.5765 13.1307 21.5524C13.1889 21.5283 13.2419 21.493 13.2865 21.4484L16.1749 18.56C16.2195 18.5154 16.2548 18.4624 16.2789 18.4042C16.303 18.3459 16.3153 18.2835 16.3153 18.2204V14.3996H31.6621V18.2252C31.6621 18.2883 31.6744 18.3507 31.6985 18.409C31.7226 18.4672 31.7579 18.5202 31.8025 18.5648L34.6909 21.4532C34.7355 21.4978 34.7885 21.5331 34.8467 21.5572C34.905 21.5813 34.9675 21.5937 35.0305 21.5936H37.4053C37.4053 21.7268 37.4173 21.8612 37.4173 21.9944L37.4113 37.4084Z" fill="#00C2FF"/>
</svg>
